<svg width="37" height="37" viewBox="0 0 37 37" fill="none" xmlns="http://www.w3.org/2000/svg">
<g id="logo-carrossel.svg" clip-path="url(#clip0_105_514)">
<path id="Vector" d="M32.5404 8.35282L6.95701 0.695829C5.07579 0.135347 3.02841 0.634526 1.63381 2.00362C0.236251 3.37855 -0.27411 5.38402 0.301531 7.24354L8.08455 32.4156C8.77295 34.64 10.7462 36.0996 13.1081 36.1317H13.1912C15.5175 36.1317 17.4936 34.7363 18.2414 32.5586L21.8792 21.9241L32.6947 18.3393C34.935 17.5949 36.3592 15.6099 36.3236 13.2892C36.288 10.9655 34.8014 9.02715 32.5404 8.35282ZM20.173 16.9498C18.6034 17.4723 17.3512 18.7042 16.823 20.2455L13.1941 30.8859L5.41702 5.72848L30.9885 13.368L20.173 16.9498Z" fill="#BD95FF"/>
</g>
<defs>
<clipPath id="clip0_105_514">
<rect width="37" height="37" fill="white"/>
</clipPath>
</defs>
</svg>
