<svg width="440" height="970" viewBox="0 0 440 970" fill="none" xmlns="http://www.w3.org/2000/svg">
<g clip-path="url(#clip0_13630_110)">
<g opacity="0.1">
<path d="M-73.5419 266.705L-74.01 268.045L-74.0035 268.048L-73.5419 266.705ZM-112.726 243.406L-113.697 244.443L-113.691 244.448L-113.686 244.453L-112.726 243.406ZM-139.202 204.221L-140.519 204.752L-140.516 204.761L-140.512 204.769L-139.202 204.221ZM-139.202 92.6693L-140.515 92.1287L-140.519 92.1386L-139.202 92.6693ZM-112.726 53.1319L-111.756 54.1684L-111.755 54.1677L-112.726 53.1319ZM-73.5419 29.833L-73.0929 31.1801L-73.0803 31.1758L-73.5419 29.833ZM22.1246 30.539L21.6565 31.8795L21.6692 31.884L21.682 31.8882L22.1246 30.539ZM61.3091 53.8379L60.3271 54.8635L60.3383 54.8742L60.3496 54.8846L61.3091 53.8379ZM87.7851 93.0223L86.4681 93.5531L86.4729 93.565L86.478 93.5769L87.7851 93.0223ZM87.7851 204.221L86.475 203.674L86.4715 203.682L86.4681 203.691L87.7851 204.221ZM61.3091 243.406L60.3496 242.359L60.3441 242.364L60.3387 242.369L61.3091 243.406ZM22.1246 266.705L21.6631 265.362L21.6565 265.364L22.1246 266.705ZM-25.5321 54.8969L-25.5025 53.4773L-25.5173 53.477H-25.5321V54.8969ZM-58.3623 61.2512L-57.8605 62.5795L-57.8477 62.5746L-57.835 62.5695L-58.3623 61.2512ZM-86.6034 79.2548L-85.614 80.2733L-86.6034 79.2548ZM-106.725 108.908L-108.025 108.336L-108.03 108.349L-106.725 108.908ZM-106.725 187.983L-108.03 188.542L-106.725 187.983ZM-86.9564 217.283L-87.9458 218.301L-87.9386 218.308L-87.9314 218.315L-86.9564 217.283ZM-58.3623 235.64L-57.835 234.321L-58.3623 235.64ZM8.35713 235.64L7.83971 234.317L7.82979 234.321L8.35713 235.64ZM36.5982 217.283L35.6088 216.264L35.6014 216.272L35.5942 216.279L36.5982 217.283ZM56.0139 187.983L57.3286 188.519L56.0139 187.983ZM55.6609 108.908L54.3558 109.467L55.6609 108.908ZM35.5392 79.6078L34.5498 80.6263L34.5569 80.6333L34.5642 80.6401L35.5392 79.6078ZM7.2981 61.6042L6.77075 62.9225L6.78348 62.9276L6.7963 62.9325L7.2981 61.6042ZM-25.5321 273.051C-42.3298 273.051 -58.1762 270.485 -73.0803 265.362L-74.0035 268.048C-58.7838 273.279 -42.6237 275.891 -25.5321 275.891V273.051ZM-73.0738 265.364C-87.7229 260.249 -100.616 252.581 -111.767 242.359L-113.686 244.453C-102.244 254.941 -89.014 262.806 -74.01 268.045L-73.0738 265.364ZM-111.756 242.369C-122.653 232.168 -131.37 219.28 -137.892 203.674L-140.512 204.769C-133.855 220.698 -124.922 233.934 -113.697 244.443L-111.756 242.369ZM-137.885 203.691C-144.156 188.129 -147.314 169.725 -147.314 148.445H-150.154C-150.154 169.998 -146.957 188.778 -140.519 204.752L-137.885 203.691ZM-147.314 148.445C-147.314 127.166 -144.156 108.762 -137.885 93.2001L-140.519 92.1386C-146.957 108.113 -150.154 126.893 -150.154 148.445H-147.314ZM-137.889 93.21C-131.366 77.3679 -122.649 64.3661 -111.756 54.1684L-113.697 52.0953C-124.926 62.6077 -133.859 75.9642 -140.515 92.1287L-137.889 93.21ZM-111.755 54.1677C-100.61 43.7189 -87.7269 36.058 -73.0929 31.18L-73.9909 28.4859C-89.0101 33.4923 -102.25 41.364 -113.698 52.096L-111.755 54.1677ZM-73.0803 31.1758C-58.1829 26.0548 -42.3433 23.6063 -25.5518 23.8395L-25.5124 20.9999C-42.6102 20.7625 -58.7771 23.2561 -74.0035 28.4902L-73.0803 31.1758ZM-25.5518 23.8395C-8.74789 24.0729 6.98518 26.7562 21.6565 31.8795L22.5928 29.1985C7.61101 23.9668 -8.42709 21.2372 -25.5124 20.9999L-25.5518 23.8395ZM21.682 31.8882C36.5495 36.7666 49.4248 44.4251 60.3271 54.8635L62.2911 52.8123C51.0712 42.0698 37.8236 34.1958 22.5673 29.1899L21.682 31.8882ZM60.3496 54.8846C71.4735 65.0815 80.1843 77.96 86.4681 93.5531L89.1021 92.4916C82.6774 76.5489 73.7375 63.3044 62.2686 52.7912L60.3496 54.8846ZM86.478 93.5769C92.976 108.894 96.2495 127.17 96.2495 148.445H99.0894C99.0894 126.888 95.7734 108.216 89.0922 92.4678L86.478 93.5769ZM96.2495 148.445C96.2495 169.72 92.9762 188.117 86.475 203.674L89.0952 204.769C95.7731 188.79 99.0894 170.004 99.0894 148.445H96.2495ZM86.4681 203.691C80.1843 219.284 71.4735 232.162 60.3496 242.359L62.2686 244.453C73.7375 233.939 82.6774 220.695 89.1021 204.752L86.4681 203.691ZM60.3387 242.369C49.4312 252.581 36.5456 260.246 21.6631 265.362L22.5862 268.048C37.8275 262.808 51.0649 254.941 62.2795 244.443L60.3387 242.369ZM21.6565 265.364C6.99191 270.485 -8.73428 273.051 -25.5321 273.051V275.891C-8.4407 275.891 7.60428 273.279 22.5928 268.045L21.6565 265.364ZM-25.5321 53.477C-37.011 53.477 -48.1332 55.6302 -58.8897 59.9328L-57.835 62.5695C-47.4107 58.3998 -36.6461 56.3168 -25.5321 56.3168V53.477ZM-58.8641 59.9229C-69.6393 63.9935 -79.2183 70.1011 -87.5928 78.2364L-85.614 80.2733C-77.5146 72.4053 -68.2662 66.5105 -57.8605 62.5795L-58.8641 59.9229ZM-87.5928 78.2364C-95.9758 86.3798 -102.782 96.4215 -108.025 108.336L-105.425 109.48C-100.313 97.8602 -93.705 88.1331 -85.614 80.2733L-87.5928 78.2364ZM-108.03 108.349C-113.061 120.086 -115.558 133.461 -115.558 148.445H-112.719C-112.719 133.777 -110.274 120.793 -105.42 109.467L-108.03 108.349ZM-115.558 148.445C-115.558 163.43 -113.061 176.805 -108.03 188.542L-105.42 187.424C-110.274 176.098 -112.719 163.114 -112.719 148.445H-115.558ZM-108.03 188.542C-103.021 200.23 -96.3293 210.157 -87.9458 218.301L-85.967 216.264C-94.0575 208.405 -100.545 198.799 -105.42 187.424L-108.03 188.542ZM-87.9314 218.315C-79.332 226.437 -69.6496 232.654 -58.8897 236.958L-57.835 234.321C-68.2559 230.153 -77.6361 224.132 -85.9815 216.251L-87.9314 218.315ZM-58.8897 236.958C-48.1332 241.261 -37.011 243.414 -25.5321 243.414V240.574C-36.6461 240.574 -47.4107 238.491 -57.835 234.321L-58.8897 236.958ZM-25.5321 243.414C-13.3586 243.414 -1.88231 241.265 8.88448 236.958L7.82979 234.321C-2.58421 238.487 -13.7007 240.574 -25.5321 240.574V243.414ZM8.87454 236.962C19.8776 232.656 29.4582 226.431 37.6022 218.287L35.5942 216.279C27.7349 224.138 18.4881 230.151 7.83972 234.317L8.87454 236.962ZM37.5876 218.301C45.9766 210.152 52.554 200.217 57.3286 188.519L54.6993 187.446C50.0601 198.812 43.6938 208.411 35.6088 216.264L37.5876 218.301ZM57.3286 188.519C62.1168 176.788 64.4941 163.422 64.4941 148.445H61.6543C61.6543 163.122 59.3247 176.114 54.6993 187.446L57.3286 188.519ZM64.4941 148.445C64.4941 133.461 61.9964 120.086 56.966 108.349L54.3558 109.467C59.2097 120.793 61.6543 133.777 61.6543 148.445H64.4941ZM56.966 108.349C51.9532 96.6521 45.1382 86.7206 36.5141 78.5755L34.5642 80.6401C42.8847 88.4984 49.4842 98.1002 54.3558 109.467L56.966 108.349ZM36.5285 78.5894C28.154 70.4541 18.575 64.3465 7.7999 60.2759L6.7963 62.9325C17.202 66.8635 26.4503 72.7583 34.5498 80.6263L36.5285 78.5894ZM7.82544 60.2858C-2.92191 55.9869 -14.0338 53.7162 -25.5025 53.4773L-25.5617 56.3165C-14.4376 56.5483 -3.66269 58.7492 6.77075 62.9225L7.82544 60.2858ZM116.092 24.8908V23.4709H114.672V24.8908H116.092ZM298.247 24.8908H299.667V23.4709H298.247V24.8908ZM298.247 57.368V58.7879H299.667V57.368H298.247ZM151.747 55.2499L152.306 53.9448V53.9448L151.747 55.2499ZM142.921 49.2487L143.925 48.2447L142.532 46.8516L141.651 48.6137L142.921 49.2487ZM142.568 49.9547L141.298 49.3197L140.841 50.2351L141.564 50.9588L142.568 49.9547ZM148.217 58.7801L146.898 59.3074L146.92 59.3622L146.947 59.4151L148.217 58.7801ZM150.688 137.502H149.268V138.922H150.688V137.502ZM293.658 137.502H295.078V136.082H293.658V137.502ZM293.658 166.449V167.869H295.078V166.449H293.658ZM151.747 164.331L151.146 165.618L151.182 165.635L151.219 165.649L151.747 164.331ZM142.568 157.977L143.572 156.973L142.568 155.969L141.564 156.973L142.568 157.977ZM142.215 158.33L141.211 157.326L140.207 158.33L141.211 159.334L142.215 158.33ZM148.217 167.508L146.898 168.035L146.913 168.072L146.93 168.109L148.217 167.508ZM150.688 272V273.42H152.108V272H150.688ZM116.092 272H114.672V273.42H116.092V272ZM116.092 26.3107H298.247V23.4709H116.092V26.3107ZM296.827 24.8908V57.368H299.667V24.8908H296.827ZM298.247 55.9481H161.631V58.7879H298.247V55.9481ZM161.631 55.9481C158.545 55.9481 155.44 55.2878 152.306 53.9448L151.187 56.555C154.643 58.0361 158.128 58.7879 161.631 58.7879V55.9481ZM152.306 53.9448C149.181 52.6055 146.389 50.7085 143.925 48.2447L141.917 50.2527C144.631 52.9665 147.723 55.0703 151.187 56.555L152.306 53.9448ZM141.651 48.6137L141.298 49.3197L143.838 50.5897L144.191 49.8837L141.651 48.6137ZM141.564 50.9588C143.764 53.1582 145.547 55.9305 146.898 59.3074L149.535 58.2527C148.062 54.5693 146.08 51.4581 143.572 48.9507L141.564 50.9588ZM146.947 59.4151C148.507 62.5362 149.268 65.615 149.268 68.6644H152.108C152.108 65.1243 151.221 61.6135 149.487 58.1451L146.947 59.4151ZM149.268 68.6644V137.502H152.108V68.6644H149.268ZM150.688 138.922H293.658V136.082H150.688V138.922ZM292.238 137.502V166.449H295.078V137.502H292.238ZM293.658 165.029H162.337V167.869H293.658V165.029ZM162.337 165.029C159.001 165.029 155.649 164.363 152.274 163.013L151.219 165.649C154.904 167.123 158.613 167.869 162.337 167.869V165.029ZM152.347 163.044C148.957 161.462 146.037 159.437 143.572 156.973L141.564 158.981C144.277 161.694 147.476 163.905 151.146 165.618L152.347 163.044ZM141.564 156.973L141.211 157.326L143.219 159.334L143.572 158.981L141.564 156.973ZM141.211 159.334C143.659 161.781 145.555 164.677 146.898 168.035L149.535 166.981C148.054 163.279 145.949 160.056 143.219 157.326L141.211 159.334ZM146.93 168.109C148.499 171.47 149.268 174.797 149.268 178.099H152.108C152.108 174.34 151.229 170.606 149.503 166.908L146.93 168.109ZM149.268 178.099V272H152.108V178.099H149.268ZM150.688 270.58H116.092V273.42H150.688V270.58ZM117.512 272V24.8908H114.672V272H117.512ZM-145.91 353.891V352.471H-147.33V353.891H-145.91ZM39.7753 353.891H41.1952V352.471H39.7753V353.891ZM39.7753 386.368V387.788H41.1952V386.368H39.7753ZM-111.314 386.368V384.948H-112.734V386.368H-111.314ZM-111.314 466.502H-112.734V467.922H-111.314V466.502ZM34.8331 466.502H36.2531V465.082H34.8331V466.502ZM34.8331 495.449V496.869H36.2531V495.449H34.8331ZM-111.314 495.449V494.029H-112.734V495.449H-111.314ZM-111.314 568.523H-112.734V569.943H-111.314V568.523ZM39.7753 568.523H41.1952V567.103H39.7753V568.523ZM39.7753 601V602.42H41.1952V601H39.7753ZM-145.91 601H-147.33V602.42H-145.91V601ZM-145.91 355.311H39.7753V352.471H-145.91V355.311ZM38.3554 353.891V386.368H41.1952V353.891H38.3554ZM39.7753 384.948H-111.314V387.788H39.7753V384.948ZM-112.734 386.368V466.502H-109.894V386.368H-112.734ZM-111.314 467.922H34.8331V465.082H-111.314V467.922ZM33.4132 466.502V495.449H36.2531V466.502H33.4132ZM34.8331 494.029H-111.314V496.869H34.8331V494.029ZM-112.734 495.449V568.523H-109.894V495.449H-112.734ZM-111.314 569.943H39.7753V567.103H-111.314V569.943ZM38.3554 568.523V601H41.1952V568.523H38.3554ZM39.7753 599.58H-145.91V602.42H39.7753V599.58ZM-144.49 601V353.891H-147.33V601H-144.49ZM59.8998 601H58.4799V602.42H59.8998V601ZM59.8998 353.891V352.471H58.4799V353.891H59.8998ZM239.23 371.188L238.4 372.34L239.23 371.188ZM257.587 452.028L258.809 452.752L257.587 452.028ZM244.879 467.914L243.929 466.859L243.876 466.906L243.828 466.959L244.879 467.914ZM236.406 474.974L237.111 476.207L237.143 476.189L237.174 476.169L236.406 474.974ZM225.816 479.917L225.317 478.587H225.317L225.816 479.917ZM214.167 483.447L213.841 482.064L213.832 482.067L213.822 482.069L214.167 483.447ZM203.223 485.918L202.945 484.525L201.803 484.754V485.918H203.223ZM203.223 486.624H201.803V488.335L203.485 488.019L203.223 486.624ZM215.226 484.506L215.004 483.103L214.992 483.105L215.226 484.506ZM239.583 484.859L239.193 486.224L239.249 486.24L239.305 486.251L239.583 484.859ZM248.762 489.095L247.863 490.194L247.923 490.243L247.988 490.285L248.762 489.095ZM265.706 529.691H264.287L264.287 529.698L265.706 529.691ZM266.059 601V602.42H267.486L267.479 600.993L266.059 601ZM231.111 601H229.691V602.42H231.111V601ZM225.463 516.983L224.494 518.021L224.53 518.054L224.568 518.085L225.463 516.983ZM206.047 512.041V510.621L206.043 510.621L206.047 512.041ZM94.8481 512.394L94.8436 510.974L93.4282 510.978V512.394H94.8481ZM94.8481 601V602.42H96.268V601H94.8481ZM192.28 478.151L192.692 479.51L192.704 479.506L192.717 479.502L192.28 478.151ZM226.522 452.028L225.283 451.335L225.272 451.354L225.262 451.373L226.522 452.028ZM214.873 394.487L214.097 395.677L214.109 395.684L214.873 394.487ZM94.8481 383.897V382.477H93.4282V383.897H94.8481ZM94.8481 481.682H93.4282V483.101H94.8481V481.682ZM61.3197 601V353.891H58.4799V601H61.3197ZM59.8998 355.311H172.864V352.471H59.8998V355.311ZM172.864 355.311C200.931 355.311 222.723 361.043 238.4 372.34L240.061 370.036C223.731 358.27 201.279 352.471 172.864 352.471V355.311ZM238.4 372.34C253.94 383.538 261.815 401.169 261.815 425.552H264.655C264.655 400.514 256.528 381.902 240.061 370.036L238.4 372.34ZM261.815 425.552C261.815 436.718 259.95 445.256 256.366 451.305L258.809 452.752C262.755 446.092 264.655 436.979 264.655 425.552H261.815ZM256.366 451.305C252.661 457.555 248.513 462.733 243.929 466.859L245.829 468.969C250.658 464.623 254.982 459.21 258.809 452.752L256.366 451.305ZM243.828 466.959C241.567 469.446 238.841 471.721 235.639 473.78L237.174 476.169C240.561 473.991 243.483 471.56 245.929 468.869L243.828 466.959ZM235.702 473.741C232.477 475.584 229.016 477.2 225.317 478.587L226.315 481.246C230.147 479.809 233.746 478.13 237.111 476.207L235.702 473.741ZM225.317 478.587C221.61 479.977 217.785 481.137 213.841 482.064L214.492 484.829C218.55 483.874 222.491 482.68 226.315 481.246L225.317 478.587ZM213.822 482.069C210.077 483.005 206.451 483.824 202.945 484.525L203.502 487.31C207.055 486.599 210.725 485.771 214.511 484.824L213.822 482.069ZM201.803 485.918V486.624H204.643V485.918H201.803ZM203.485 488.019C207.24 487.315 211.231 486.611 215.459 485.906L214.992 483.105C210.748 483.812 206.737 484.52 202.961 485.228L203.485 488.019ZM215.447 485.908C219.846 485.214 224.244 484.867 228.64 484.867V482.027C224.094 482.027 219.548 482.386 215.004 483.103L215.447 485.908ZM228.64 484.867C232.53 484.867 236.045 485.324 239.193 486.224L239.974 483.493C236.533 482.51 232.751 482.027 228.64 482.027V484.867ZM239.305 486.251C242.625 486.915 245.467 488.234 247.863 490.194L249.661 487.996C246.879 485.72 243.602 484.214 239.862 483.466L239.305 486.251ZM247.988 490.285C252.467 493.197 256.321 497.48 259.525 503.203L262.003 501.816C258.618 495.771 254.471 491.112 249.536 487.904L247.988 490.285ZM259.525 503.203C262.64 508.765 264.287 517.528 264.287 529.691H267.126C267.126 517.379 265.478 508.021 262.003 501.816L259.525 503.203ZM264.287 529.698L264.64 601.007L267.479 600.993L267.126 529.684L264.287 529.698ZM266.059 599.58H231.111V602.42H266.059V599.58ZM232.531 601V531.809H229.691V601H232.531ZM232.531 531.809C232.531 524.739 230.575 519.307 226.358 515.881L224.568 518.085C227.882 520.778 229.691 525.23 229.691 531.809H232.531ZM226.432 515.945C222.481 512.258 215.523 510.621 206.047 510.621V513.461C215.398 513.461 221.384 515.118 224.494 518.021L226.432 515.945ZM206.043 510.621L94.8436 510.974L94.8526 513.814L206.052 513.461L206.043 510.621ZM93.4282 512.394V601H96.268V512.394H93.4282ZM94.8481 599.58H59.8998V602.42H94.8481V599.58ZM166.157 483.101C175.92 483.101 184.769 481.911 192.692 479.51L191.868 476.793C184.258 479.099 175.692 480.262 166.157 480.262V483.101ZM192.717 479.502C200.85 476.871 207.94 473.272 213.967 468.692L212.248 466.431C206.508 470.793 199.713 474.254 191.843 476.8L192.717 479.502ZM213.967 468.692C219.998 464.108 224.615 458.774 227.782 452.684L225.262 451.373C222.31 457.05 217.984 462.071 212.248 466.431L213.967 468.692ZM227.761 452.722C231.18 446.617 232.884 439.904 232.884 432.613H230.044C230.044 439.442 228.454 445.673 225.283 451.335L227.761 452.722ZM232.884 432.613C232.884 413.983 227.258 400.708 215.637 393.29L214.109 395.684C224.61 402.387 230.044 414.529 230.044 432.613H232.884ZM215.648 393.298C204.507 386.032 189.255 382.477 170.04 382.477V385.317C188.95 385.317 203.587 388.822 214.097 395.677L215.648 393.298ZM170.04 382.477H94.8481V385.317H170.04V382.477ZM93.4282 383.897V481.682H96.268V383.897H93.4282ZM94.8481 483.101H166.157V480.262H94.8481V483.101ZM63.0742 682.891H64.4941V681.471H63.0742V682.891ZM63.0742 715.368V716.788H64.4941V715.368H63.0742ZM-24.8261 712.897L-25.4266 714.184L-25.411 714.191L-25.3952 714.198L-24.8261 712.897ZM-34.0044 706.543L-33.0004 705.539L-34.0044 704.535L-35.0085 705.539L-34.0044 706.543ZM-34.7105 707.249L-35.7145 706.245L-36.7185 707.249L-35.7145 708.253L-34.7105 707.249ZM-28.3562 716.78L-29.6571 717.349L-29.6502 717.365L-29.6429 717.381L-28.3562 716.78ZM-25.8851 930V931.42H-24.4652V930H-25.8851ZM-60.4804 930H-61.9003V931.42H-60.4804V930ZM-60.4804 715.368H-59.0605V713.948H-60.4804V715.368ZM-149.44 715.368H-150.86V716.788H-149.44V715.368ZM-149.44 682.891V681.471H-150.86V682.891H-149.44ZM61.6543 682.891V715.368H64.4941V682.891H61.6543ZM63.0742 713.948H-13.8827V716.788H63.0742V713.948ZM-13.8827 713.948C-17.1874 713.948 -20.6418 713.178 -24.257 711.596L-25.3952 714.198C-21.4795 715.911 -17.6383 716.788 -13.8827 716.788V713.948ZM-24.2256 711.61C-27.6155 710.028 -30.536 708.003 -33.0004 705.539L-35.0085 707.547C-32.2954 710.26 -29.097 712.471 -25.4266 714.184L-24.2256 711.61ZM-35.0085 705.539L-35.7145 706.245L-33.7064 708.253L-33.0004 707.547L-35.0085 705.539ZM-35.7145 708.253C-33.2654 710.702 -31.2422 713.726 -29.6571 717.349L-27.0554 716.211C-28.7651 712.303 -30.9781 708.973 -33.7064 706.245L-35.7145 708.253ZM-29.6429 717.381C-28.0741 720.742 -27.3051 724.068 -27.3051 727.37H-24.4652C-24.4652 723.612 -25.3436 719.878 -27.0695 716.18L-29.6429 717.381ZM-27.3051 727.37V930H-24.4652V727.37H-27.3051ZM-25.8851 928.58H-60.4804V931.42H-25.8851V928.58ZM-59.0605 930V715.368H-61.9003V930H-59.0605ZM-60.4804 713.948H-149.44V716.788H-60.4804V713.948ZM-148.02 715.368V682.891H-150.86V715.368H-148.02ZM-149.44 684.311H63.0742V681.471H-149.44V684.311ZM20.8698 930L19.5412 929.499L18.8167 931.42H20.8698V930ZM114.065 682.891V681.471H113.083L112.737 682.39L114.065 682.891ZM164.546 682.891L165.875 682.39L165.528 681.471H164.546V682.891ZM257.742 930V931.42H259.795L259.07 929.499L257.742 930ZM220.675 930L219.352 930.515L219.704 931.42H220.675V930ZM197.729 871.047L199.053 870.532L198.7 869.627H197.729V871.047ZM80.529 871.047V869.627H79.5471L79.2005 870.546L80.529 871.047ZM58.2892 930V931.42H59.2711L59.6177 930.501L58.2892 930ZM91.4724 840.335L90.1438 839.834L89.4195 841.755H91.4724V840.335ZM156.78 841.747L156.604 843.156L156.625 843.158L156.647 843.16L156.78 841.747ZM178.314 848.454L177.628 849.697L177.637 849.702L177.645 849.707L178.314 848.454ZM196.67 867.517L195.441 868.228L198 867.018L196.67 867.517ZM139.129 713.956L140.459 713.458L139.133 709.921L137.801 713.455L139.129 713.956ZM22.1984 930.501L115.394 683.392L112.737 682.39L19.5412 929.499L22.1984 930.501ZM114.065 684.311H164.546V681.471H114.065V684.311ZM163.218 683.392L256.413 930.501L259.07 929.499L165.875 682.39L163.218 683.392ZM257.742 928.58H220.675V931.42H257.742V928.58ZM221.998 929.485L199.053 870.532L196.406 871.562L219.352 930.515L221.998 929.485ZM197.729 869.627H80.529V872.467H197.729V869.627ZM79.2005 870.546L56.9607 929.499L59.6177 930.501L81.8575 871.548L79.2005 870.546ZM58.2892 928.58H20.8698V931.42H58.2892V928.58ZM91.4724 841.755C91.5014 841.755 91.5303 841.755 91.5593 841.755C91.5882 841.755 91.6171 841.755 91.6461 841.755C91.675 841.755 91.7039 841.755 91.7328 841.755C91.7617 841.755 91.7906 841.755 91.8195 841.755C91.8484 841.755 91.8773 841.755 91.9062 841.755C91.9351 841.755 91.9639 841.755 91.9928 841.755C92.0217 841.755 92.0505 841.755 92.0793 841.755C92.1082 841.755 92.137 841.755 92.1659 841.755C92.1947 841.755 92.2235 841.755 92.2523 841.755C92.2811 841.755 92.3099 841.755 92.3387 841.755C92.3675 841.755 92.3963 841.755 92.4251 841.755C92.4539 841.755 92.4827 841.755 92.5114 841.755C92.5402 841.755 92.5689 841.755 92.5977 841.755C92.6264 841.755 92.6552 841.755 92.6839 841.755C92.7126 841.755 92.7414 841.755 92.7701 841.755C92.7988 841.755 92.8275 841.755 92.8562 841.755C92.8849 841.755 92.9136 841.755 92.9423 841.755C92.971 841.755 92.9996 841.755 93.0283 841.755C93.057 841.755 93.0856 841.755 93.1143 841.755C93.1429 841.755 93.1716 841.755 93.2002 841.755C93.2288 841.755 93.2575 841.755 93.2861 841.755C93.3147 841.755 93.3433 841.755 93.3719 841.755C93.4005 841.755 93.4291 841.755 93.4577 841.755C93.4863 841.755 93.5149 841.755 93.5434 841.755C93.572 841.755 93.6006 841.755 93.6291 841.755C93.6577 841.755 93.6862 841.755 93.7148 841.755C93.7433 841.755 93.7718 841.755 93.8004 841.755C93.8289 841.755 93.8574 841.755 93.8859 841.755C93.9144 841.755 93.9429 841.755 93.9714 841.755C93.9999 841.755 94.0284 841.755 94.0568 841.755C94.0853 841.755 94.1138 841.755 94.1422 841.755C94.1707 841.755 94.1991 841.755 94.2276 841.755C94.256 841.755 94.2845 841.755 94.3129 841.755C94.3413 841.755 94.3697 841.755 94.3981 841.755C94.4265 841.755 94.4549 841.755 94.4833 841.755C94.5117 841.755 94.5401 841.755 94.5685 841.755C94.5969 841.755 94.6252 841.755 94.6536 841.755C94.6819 841.755 94.7103 841.755 94.7386 841.755C94.767 841.755 94.7953 841.755 94.8237 841.755C94.852 841.755 94.8803 841.755 94.9086 841.755C94.9369 841.755 94.9652 841.755 94.9935 841.755C95.0218 841.755 95.0501 841.755 95.0784 841.755C95.1067 841.755 95.1349 841.755 95.1632 841.755C95.1915 841.755 95.2197 841.755 95.248 841.755C95.2762 841.755 95.3044 841.755 95.3327 841.755C95.3609 841.755 95.3891 841.755 95.4173 841.755C95.4456 841.755 95.4738 841.755 95.502 841.755C95.5302 841.755 95.5583 841.755 95.5865 841.755C95.6147 841.755 95.6429 841.755 95.6711 841.755C95.6992 841.755 95.7274 841.755 95.7555 841.755C95.7837 841.755 95.8118 841.755 95.84 841.755C95.8681 841.755 95.8962 841.755 95.9243 841.755C95.9525 841.755 95.9806 841.755 96.0087 841.755C96.0368 841.755 96.0649 841.755 96.0929 841.755C96.121 841.755 96.1491 841.755 96.1772 841.755C96.2052 841.755 96.2333 841.755 96.2614 841.755C96.2894 841.755 96.3175 841.755 96.3455 841.755C96.3735 841.755 96.4016 841.755 96.4296 841.755C96.4576 841.755 96.4856 841.755 96.5136 841.755C96.5416 841.755 96.5696 841.755 96.5976 841.755C96.6256 841.755 96.6536 841.755 96.6815 841.755C96.7095 841.755 96.7375 841.755 96.7654 841.755C96.7934 841.755 96.8214 841.755 96.8493 841.755C96.8772 841.755 96.9052 841.755 96.9331 841.755C96.961 841.755 96.9889 841.755 97.0168 841.755C97.0447 841.755 97.0726 841.755 97.1005 841.755C97.1284 841.755 97.1563 841.755 97.1842 841.755C97.2121 841.755 97.2399 841.755 97.2678 841.755C97.2957 841.755 97.3235 841.755 97.3513 841.755C97.3792 841.755 97.407 841.755 97.4348 841.755C97.4627 841.755 97.4905 841.755 97.5183 841.755C97.5461 841.755 97.5739 841.755 97.6017 841.755C97.6295 841.755 97.6573 841.755 97.6851 841.755C97.7128 841.755 97.7406 841.755 97.7684 841.755C97.7961 841.755 97.8239 841.755 97.8516 841.755C97.8794 841.755 97.9071 841.755 97.9349 841.755C97.9626 841.755 97.9903 841.755 98.018 841.755C98.0457 841.755 98.0734 841.755 98.1011 841.755C98.1288 841.755 98.1565 841.755 98.1842 841.755C98.2119 841.755 98.2396 841.755 98.2672 841.755C98.2949 841.755 98.3226 841.755 98.3502 841.755C98.3779 841.755 98.4055 841.755 98.4331 841.755C98.4608 841.755 98.4884 841.755 98.516 841.755C98.5436 841.755 98.5712 841.755 98.5988 841.755C98.6264 841.755 98.654 841.755 98.6816 841.755C98.7092 841.755 98.7368 841.755 98.7643 841.755C98.7919 841.755 98.8195 841.755 98.847 841.755C98.8746 841.755 98.9021 841.755 98.9296 841.755C98.9572 841.755 98.9847 841.755 99.0122 841.755C99.0397 841.755 99.0673 841.755 99.0948 841.755C99.1223 841.755 99.1498 841.755 99.1773 841.755C99.2047 841.755 99.2322 841.755 99.2597 841.755C99.2872 841.755 99.3146 841.755 99.3421 841.755C99.3695 841.755 99.397 841.755 99.4244 841.755C99.4519 841.755 99.4793 841.755 99.5067 841.755C99.5341 841.755 99.5616 841.755 99.589 841.755C99.6164 841.755 99.6438 841.755 99.6711 841.755C99.6985 841.755 99.7259 841.755 99.7533 841.755C99.7807 841.755 99.808 841.755 99.8354 841.755C99.8628 841.755 99.8901 841.755 99.9174 841.755C99.9448 841.755 99.9721 841.755 99.9995 841.755C100.027 841.755 100.054 841.755 100.081 841.755C100.109 841.755 100.136 841.755 100.163 841.755C100.191 841.755 100.218 841.755 100.245 841.755C100.272 841.755 100.3 841.755 100.327 841.755C100.354 841.755 100.382 841.755 100.409 841.755C100.436 841.755 100.463 841.755 100.49 841.755C100.518 841.755 100.545 841.755 100.572 841.755C100.599 841.755 100.627 841.755 100.654 841.755C100.681 841.755 100.708 841.755 100.735 841.755C100.762 841.755 100.79 841.755 100.817 841.755C100.844 841.755 100.871 841.755 100.898 841.755C100.925 841.755 100.953 841.755 100.98 841.755C101.007 841.755 101.034 841.755 101.061 841.755C101.088 841.755 101.115 841.755 101.142 841.755C101.169 841.755 101.197 841.755 101.224 841.755C101.251 841.755 101.278 841.755 101.305 841.755C101.332 841.755 101.359 841.755 101.386 841.755C101.413 841.755 101.44 841.755 101.467 841.755C101.494 841.755 101.521 841.755 101.548 841.755C101.575 841.755 101.602 841.755 101.629 841.755C101.656 841.755 101.683 841.755 101.71 841.755C101.737 841.755 101.764 841.755 101.791 841.755C101.818 841.755 101.845 841.755 101.872 841.755C101.899 841.755 101.926 841.755 101.953 841.755C101.98 841.755 102.007 841.755 102.034 841.755C102.061 841.755 102.088 841.755 102.115 841.755C102.141 841.755 102.168 841.755 102.195 841.755C102.222 841.755 102.249 841.755 102.276 841.755C102.303 841.755 102.33 841.755 102.356 841.755C102.383 841.755 102.41 841.755 102.437 841.755C102.464 841.755 102.491 841.755 102.517 841.755C102.544 841.755 102.571 841.755 102.598 841.755C102.625 841.755 102.652 841.755 102.678 841.755C102.705 841.755 102.732 841.755 102.759 841.755C102.785 841.755 102.812 841.755 102.839 841.755C102.866 841.755 102.893 841.755 102.919 841.755C102.946 841.755 102.973 841.755 102.999 841.755C103.026 841.755 103.053 841.755 103.08 841.755C103.106 841.755 103.133 841.755 103.16 841.755C103.186 841.755 103.213 841.755 103.24 841.755C103.266 841.755 103.293 841.755 103.32 841.755C103.346 841.755 103.373 841.755 103.4 841.755C103.426 841.755 103.453 841.755 103.48 841.755C103.506 841.755 103.533 841.755 103.56 841.755C103.586 841.755 103.613 841.755 103.639 841.755C103.666 841.755 103.693 841.755 103.719 841.755C103.746 841.755 103.772 841.755 103.799 841.755C103.825 841.755 103.852 841.755 103.879 841.755C103.905 841.755 103.932 841.755 103.958 841.755C103.985 841.755 104.011 841.755 104.038 841.755C104.064 841.755 104.091 841.755 104.117 841.755C104.144 841.755 104.17 841.755 104.197 841.755C104.223 841.755 104.25 841.755 104.276 841.755C104.303 841.755 104.329 841.755 104.356 841.755C104.382 841.755 104.408 841.755 104.435 841.755C104.461 841.755 104.488 841.755 104.514 841.755C104.541 841.755 104.567 841.755 104.593 841.755C104.62 841.755 104.646 841.755 104.673 841.755C104.699 841.755 104.725 841.755 104.752 841.755C104.778 841.755 104.805 841.755 104.831 841.755C104.857 841.755 104.884 841.755 104.91 841.755C104.936 841.755 104.963 841.755 104.989 841.755C105.015 841.755 105.042 841.755 105.068 841.755C105.094 841.755 105.12 841.755 105.147 841.755C105.173 841.755 105.199 841.755 105.226 841.755C105.252 841.755 105.278 841.755 105.304 841.755C105.331 841.755 105.357 841.755 105.383 841.755C105.409 841.755 105.436 841.755 105.462 841.755C105.488 841.755 105.514 841.755 105.541 841.755C105.567 841.755 105.593 841.755 105.619 841.755C105.645 841.755 105.672 841.755 105.698 841.755C105.724 841.755 105.75 841.755 105.776 841.755C105.802 841.755 105.829 841.755 105.855 841.755C105.881 841.755 105.907 841.755 105.933 841.755C105.959 841.755 105.985 841.755 106.011 841.755C106.038 841.755 106.064 841.755 106.09 841.755C106.116 841.755 106.142 841.755 106.168 841.755C106.194 841.755 106.22 841.755 106.246 841.755C106.272 841.755 106.298 841.755 106.324 841.755C106.35 841.755 106.377 841.755 106.403 841.755C106.429 841.755 106.455 841.755 106.481 841.755C106.507 841.755 106.533 841.755 106.559 841.755C106.585 841.755 106.611 841.755 106.637 841.755C106.663 841.755 106.689 841.755 106.715 841.755C106.741 841.755 106.767 841.755 106.792 841.755C106.818 841.755 106.844 841.755 106.87 841.755C106.896 841.755 106.922 841.755 106.948 841.755C106.974 841.755 107 841.755 107.026 841.755C107.052 841.755 107.078 841.755 107.103 841.755C107.129 841.755 107.155 841.755 107.181 841.755C107.207 841.755 107.233 841.755 107.259 841.755C107.285 841.755 107.31 841.755 107.336 841.755C107.362 841.755 107.388 841.755 107.414 841.755C107.44 841.755 107.465 841.755 107.491 841.755C107.517 841.755 107.543 841.755 107.569 841.755C107.594 841.755 107.62 841.755 107.646 841.755C107.672 841.755 107.697 841.755 107.723 841.755C107.749 841.755 107.775 841.755 107.801 841.755C107.826 841.755 107.852 841.755 107.878 841.755C107.903 841.755 107.929 841.755 107.955 841.755C107.981 841.755 108.006 841.755 108.032 841.755C108.058 841.755 108.083 841.755 108.109 841.755C108.135 841.755 108.16 841.755 108.186 841.755C108.212 841.755 108.237 841.755 108.263 841.755C108.289 841.755 108.314 841.755 108.34 841.755C108.366 841.755 108.391 841.755 108.417 841.755C108.442 841.755 108.468 841.755 108.494 841.755C108.519 841.755 108.545 841.755 108.57 841.755C108.596 841.755 108.621 841.755 108.647 841.755C108.673 841.755 108.698 841.755 108.724 841.755C108.749 841.755 108.775 841.755 108.8 841.755C108.826 841.755 108.851 841.755 108.877 841.755C108.902 841.755 108.928 841.755 108.953 841.755C108.979 841.755 109.004 841.755 109.03 841.755C109.055 841.755 109.081 841.755 109.106 841.755C109.132 841.755 109.157 841.755 109.183 841.755C109.208 841.755 109.234 841.755 109.259 841.755C109.284 841.755 109.31 841.755 109.335 841.755C109.361 841.755 109.386 841.755 109.412 841.755C109.437 841.755 109.462 841.755 109.488 841.755C109.513 841.755 109.539 841.755 109.564 841.755C109.589 841.755 109.615 841.755 109.64 841.755C109.665 841.755 109.691 841.755 109.716 841.755C109.741 841.755 109.767 841.755 109.792 841.755C109.817 841.755 109.843 841.755 109.868 841.755C109.893 841.755 109.919 841.755 109.944 841.755C109.969 841.755 109.994 841.755 110.02 841.755C110.045 841.755 110.07 841.755 110.095 841.755C110.121 841.755 110.146 841.755 110.171 841.755C110.196 841.755 110.222 841.755 110.247 841.755C110.272 841.755 110.297 841.755 110.323 841.755C110.348 841.755 110.373 841.755 110.398 841.755C110.423 841.755 110.449 841.755 110.474 841.755C110.499 841.755 110.524 841.755 110.549 841.755C110.574 841.755 110.6 841.755 110.625 841.755C110.65 841.755 110.675 841.755 110.7 841.755C110.725 841.755 110.75 841.755 110.775 841.755C110.801 841.755 110.826 841.755 110.851 841.755C110.876 841.755 110.901 841.755 110.926 841.755C110.951 841.755 110.976 841.755 111.001 841.755C111.026 841.755 111.051 841.755 111.076 841.755C111.102 841.755 111.127 841.755 111.152 841.755C111.177 841.755 111.202 841.755 111.227 841.755C111.252 841.755 111.277 841.755 111.302 841.755C111.327 841.755 111.352 841.755 111.377 841.755C111.402 841.755 111.427 841.755 111.452 841.755C111.477 841.755 111.501 841.755 111.526 841.755C111.551 841.755 111.576 841.755 111.601 841.755C111.626 841.755 111.651 841.755 111.676 841.755C111.701 841.755 111.726 841.755 111.751 841.755C111.776 841.755 111.801 841.755 111.825 841.755C111.85 841.755 111.875 841.755 111.9 841.755C111.925 841.755 111.95 841.755 111.975 841.755C112 841.755 112.024 841.755 112.049 841.755C112.074 841.755 112.099 841.755 112.124 841.755C112.148 841.755 112.173 841.755 112.198 841.755C112.223 841.755 112.248 841.755 112.273 841.755C112.297 841.755 112.322 841.755 112.347 841.755C112.372 841.755 112.396 841.755 112.421 841.755C112.446 841.755 112.471 841.755 112.495 841.755C112.52 841.755 112.545 841.755 112.57 841.755C112.594 841.755 112.619 841.755 112.644 841.755C112.668 841.755 112.693 841.755 112.718 841.755C112.743 841.755 112.767 841.755 112.792 841.755C112.817 841.755 112.841 841.755 112.866 841.755C112.891 841.755 112.915 841.755 112.94 841.755C112.965 841.755 112.989 841.755 113.014 841.755C113.038 841.755 113.063 841.755 113.088 841.755C113.112 841.755 113.137 841.755 113.161 841.755C113.186 841.755 113.211 841.755 113.235 841.755C113.26 841.755 113.284 841.755 113.309 841.755C113.333 841.755 113.358 841.755 113.383 841.755C113.407 841.755 113.432 841.755 113.456 841.755C113.481 841.755 113.505 841.755 113.53 841.755C113.554 841.755 113.579 841.755 113.603 841.755C113.628 841.755 113.652 841.755 113.677 841.755C113.701 841.755 113.726 841.755 113.75 841.755C113.775 841.755 113.799 841.755 113.824 841.755C113.848 841.755 113.872 841.755 113.897 841.755C113.921 841.755 113.946 841.755 113.97 841.755C113.995 841.755 114.019 841.755 114.043 841.755C114.068 841.755 114.092 841.755 114.117 841.755C114.141 841.755 114.165 841.755 114.19 841.755C114.214 841.755 114.238 841.755 114.263 841.755C114.287 841.755 114.311 841.755 114.336 841.755C114.36 841.755 114.384 841.755 114.409 841.755C114.433 841.755 114.457 841.755 114.482 841.755C114.506 841.755 114.53 841.755 114.555 841.755C114.579 841.755 114.603 841.755 114.627 841.755C114.652 841.755 114.676 841.755 114.7 841.755C114.724 841.755 114.749 841.755 114.773 841.755C114.797 841.755 114.821 841.755 114.846 841.755C114.87 841.755 114.894 841.755 114.918 841.755C114.943 841.755 114.967 841.755 114.991 841.755C115.015 841.755 115.039 841.755 115.063 841.755C115.088 841.755 115.112 841.755 115.136 841.755C115.16 841.755 115.184 841.755 115.208 841.755C115.233 841.755 115.257 841.755 115.281 841.755C115.305 841.755 115.329 841.755 115.353 841.755C115.377 841.755 115.401 841.755 115.425 841.755C115.45 841.755 115.474 841.755 115.498 841.755C115.522 841.755 115.546 841.755 115.57 841.755C115.594 841.755 115.618 841.755 115.642 841.755C115.666 841.755 115.69 841.755 115.714 841.755C115.738 841.755 115.762 841.755 115.786 841.755C115.81 841.755 115.834 841.755 115.858 841.755C115.882 841.755 115.906 841.755 115.93 841.755C115.954 841.755 115.978 841.755 116.002 841.755C116.026 841.755 116.05 841.755 116.074 841.755C116.098 841.755 116.122 841.755 116.146 841.755C116.17 841.755 116.194 841.755 116.218 841.755C116.242 841.755 116.265 841.755 116.289 841.755C116.313 841.755 116.337 841.755 116.361 841.755C116.385 841.755 116.409 841.755 116.433 841.755C116.457 841.755 116.48 841.755 116.504 841.755C116.528 841.755 116.552 841.755 116.576 841.755C116.6 841.755 116.623 841.755 116.647 841.755C116.671 841.755 116.695 841.755 116.719 841.755C116.742 841.755 116.766 841.755 116.79 841.755C116.814 841.755 116.838 841.755 116.861 841.755C116.885 841.755 116.909 841.755 116.933 841.755C116.956 841.755 116.98 841.755 117.004 841.755C117.028 841.755 117.051 841.755 117.075 841.755C117.099 841.755 117.123 841.755 117.146 841.755C117.17 841.755 117.194 841.755 117.217 841.755C117.241 841.755 117.265 841.755 117.288 841.755C117.312 841.755 117.336 841.755 117.359 841.755C117.383 841.755 117.407 841.755 117.43 841.755C117.454 841.755 117.478 841.755 117.501 841.755C117.525 841.755 117.549 841.755 117.572 841.755C117.596 841.755 117.619 841.755 117.643 841.755C117.667 841.755 117.69 841.755 117.714 841.755C117.737 841.755 117.761 841.755 117.784 841.755C117.808 841.755 117.831 841.755 117.855 841.755C117.879 841.755 117.902 841.755 117.926 841.755C117.949 841.755 117.973 841.755 117.996 841.755C118.02 841.755 118.043 841.755 118.067 841.755C118.09 841.755 118.114 841.755 118.137 841.755C118.161 841.755 118.184 841.755 118.208 841.755C118.231 841.755 118.255 841.755 118.278 841.755C118.301 841.755 118.325 841.755 118.348 841.755C118.372 841.755 118.395 841.755 118.419 841.755C118.442 841.755 118.465 841.755 118.489 841.755C118.512 841.755 118.536 841.755 118.559 841.755C118.582 841.755 118.606 841.755 118.629 841.755C118.652 841.755 118.676 841.755 118.699 841.755C118.723 841.755 118.746 841.755 118.769 841.755C118.793 841.755 118.816 841.755 118.839 841.755C118.862 841.755 118.886 841.755 118.909 841.755C118.932 841.755 118.956 841.755 118.979 841.755C119.002 841.755 119.026 841.755 119.049 841.755C119.072 841.755 119.095 841.755 119.119 841.755C119.142 841.755 119.165 841.755 119.188 841.755C119.212 841.755 119.235 841.755 119.258 841.755C119.281 841.755 119.304 841.755 119.328 841.755C119.351 841.755 119.374 841.755 119.397 841.755C119.42 841.755 119.444 841.755 119.467 841.755C119.49 841.755 119.513 841.755 119.536 841.755C119.559 841.755 119.583 841.755 119.606 841.755C119.629 841.755 119.652 841.755 119.675 841.755C119.698 841.755 119.721 841.755 119.744 841.755C119.768 841.755 119.791 841.755 119.814 841.755C119.837 841.755 119.86 841.755 119.883 841.755C119.906 841.755 119.929 841.755 119.952 841.755C119.975 841.755 119.998 841.755 120.021 841.755C120.044 841.755 120.067 841.755 120.091 841.755C120.114 841.755 120.137 841.755 120.16 841.755C120.183 841.755 120.206 841.755 120.229 841.755C120.252 841.755 120.275 841.755 120.298 841.755C120.321 841.755 120.343 841.755 120.366 841.755C120.389 841.755 120.412 841.755 120.435 841.755C120.458 841.755 120.481 841.755 120.504 841.755C120.527 841.755 120.55 841.755 120.573 841.755C120.596 841.755 120.619 841.755 120.642 841.755C120.665 841.755 120.687 841.755 120.71 841.755C120.733 841.755 120.756 841.755 120.779 841.755C120.802 841.755 120.825 841.755 120.847 841.755C120.87 841.755 120.893 841.755 120.916 841.755C120.939 841.755 120.962 841.755 120.984 841.755C121.007 841.755 121.03 841.755 121.053 841.755C121.076 841.755 121.099 841.755 121.121 841.755C121.144 841.755 121.167 841.755 121.19 841.755C121.212 841.755 121.235 841.755 121.258 841.755C121.281 841.755 121.303 841.755 121.326 841.755C121.349 841.755 121.372 841.755 121.394 841.755C121.417 841.755 121.44 841.755 121.462 841.755C121.485 841.755 121.508 841.755 121.531 841.755C121.553 841.755 121.576 841.755 121.599 841.755C121.621 841.755 121.644 841.755 121.667 841.755C121.689 841.755 121.712 841.755 121.735 841.755C121.757 841.755 121.78 841.755 121.802 841.755C121.825 841.755 121.848 841.755 121.87 841.755C121.893 841.755 121.915 841.755 121.938 841.755C121.961 841.755 121.983 841.755 122.006 841.755C122.028 841.755 122.051 841.755 122.074 841.755C122.096 841.755 122.119 841.755 122.141 841.755C122.164 841.755 122.186 841.755 122.209 841.755C122.231 841.755 122.254 841.755 122.276 841.755C122.299 841.755 122.321 841.755 122.344 841.755C122.366 841.755 122.389 841.755 122.411 841.755C122.434 841.755 122.456 841.755 122.479 841.755C122.501 841.755 122.524 841.755 122.546 841.755C122.569 841.755 122.591 841.755 122.613 841.755C122.636 841.755 122.658 841.755 122.681 841.755C122.703 841.755 122.725 841.755 122.748 841.755C122.77 841.755 122.793 841.755 122.815 841.755C122.837 841.755 122.86 841.755 122.882 841.755C122.905 841.755 122.927 841.755 122.949 841.755C122.972 841.755 122.994 841.755 123.016 841.755C123.039 841.755 123.061 841.755 123.083 841.755C123.106 841.755 123.128 841.755 123.15 841.755C123.172 841.755 123.195 841.755 123.217 841.755C123.239 841.755 123.262 841.755 123.284 841.755C123.306 841.755 123.328 841.755 123.351 841.755C123.373 841.755 123.395 841.755 123.417 841.755C123.44 841.755 123.462 841.755 123.484 841.755C123.506 841.755 123.528 841.755 123.551 841.755C123.573 841.755 123.595 841.755 123.617 841.755C123.639 841.755 123.662 841.755 123.684 841.755C123.706 841.755 123.728 841.755 123.75 841.755C123.772 841.755 123.795 841.755 123.817 841.755C123.839 841.755 123.861 841.755 123.883 841.755C123.905 841.755 123.927 841.755 123.949 841.755C123.972 841.755 123.994 841.755 124.016 841.755C124.038 841.755 124.06 841.755 124.082 841.755C124.104 841.755 124.126 841.755 124.148 841.755C124.17 841.755 124.192 841.755 124.214 841.755C124.236 841.755 124.258 841.755 124.28 841.755C124.302 841.755 124.324 841.755 124.346 841.755C124.368 841.755 124.391 841.755 124.413 841.755C124.435 841.755 124.456 841.755 124.478 841.755C124.5 841.755 124.522 841.755 124.544 841.755C124.566 841.755 124.588 841.755 124.61 841.755C124.632 841.755 124.654 841.755 124.676 841.755C124.698 841.755 124.72 841.755 124.742 841.755C124.764 841.755 124.786 841.755 124.807 841.755C124.829 841.755 124.851 841.755 124.873 841.755C124.895 841.755 124.917 841.755 124.939 841.755C124.961 841.755 124.983 841.755 125.004 841.755C125.026 841.755 125.048 841.755 125.07 841.755C125.092 841.755 125.114 841.755 125.135 841.755C125.157 841.755 125.179 841.755 125.201 841.755C125.223 841.755 125.244 841.755 125.266 841.755C125.288 841.755 125.31 841.755 125.331 841.755C125.353 841.755 125.375 841.755 125.397 841.755C125.418 841.755 125.44 841.755 125.462 841.755C125.484 841.755 125.505 841.755 125.527 841.755C125.549 841.755 125.571 841.755 125.592 841.755C125.614 841.755 125.636 841.755 125.657 841.755C125.679 841.755 125.701 841.755 125.722 841.755C125.744 841.755 125.766 841.755 125.787 841.755C125.809 841.755 125.831 841.755 125.852 841.755C125.874 841.755 125.896 841.755 125.917 841.755C125.939 841.755 125.96 841.755 125.982 841.755C126.004 841.755 126.025 841.755 126.047 841.755C126.068 841.755 126.09 841.755 126.112 841.755C126.133 841.755 126.155 841.755 126.176 841.755C126.198 841.755 126.219 841.755 126.241 841.755C126.262 841.755 126.284 841.755 126.306 841.755C126.327 841.755 126.349 841.755 126.37 841.755C126.392 841.755 126.413 841.755 126.435 841.755C126.456 841.755 126.478 841.755 126.499 841.755C126.521 841.755 126.542 841.755 126.563 841.755C126.585 841.755 126.606 841.755 126.628 841.755C126.649 841.755 126.671 841.755 126.692 841.755C126.714 841.755 126.735 841.755 126.756 841.755C126.778 841.755 126.799 841.755 126.821 841.755C126.842 841.755 126.863 841.755 126.885 841.755C126.906 841.755 126.927 841.755 126.949 841.755C126.97 841.755 126.992 841.755 127.013 841.755C127.034 841.755 127.056 841.755 127.077 841.755C127.098 841.755 127.12 841.755 127.141 841.755C127.162 841.755 127.184 841.755 127.205 841.755C127.226 841.755 127.247 841.755 127.269 841.755C127.29 841.755 127.311 841.755 127.333 841.755C127.354 841.755 127.375 841.755 127.396 841.755C127.418 841.755 127.439 841.755 127.46 841.755C127.481 841.755 127.502 841.755 127.524 841.755C127.545 841.755 127.566 841.755 127.587 841.755C127.609 841.755 127.63 841.755 127.651 841.755C127.672 841.755 127.693 841.755 127.714 841.755C127.736 841.755 127.757 841.755 127.778 841.755C127.799 841.755 127.82 841.755 127.841 841.755C127.862 841.755 127.884 841.755 127.905 841.755C127.926 841.755 127.947 841.755 127.968 841.755C127.989 841.755 128.01 841.755 128.031 841.755C128.052 841.755 128.074 841.755 128.095 841.755C128.116 841.755 128.137 841.755 128.158 841.755C128.179 841.755 128.2 841.755 128.221 841.755C128.242 841.755 128.263 841.755 128.284 841.755C128.305 841.755 128.326 841.755 128.347 841.755C128.368 841.755 128.389 841.755 128.41 841.755C128.431 841.755 128.452 841.755 128.473 841.755C128.494 841.755 128.515 841.755 128.536 841.755C128.557 841.755 128.578 841.755 128.599 841.755C128.62 841.755 128.641 841.755 128.662 841.755C128.683 841.755 128.703 841.755 128.724 841.755C128.745 841.755 128.766 841.755 128.787 841.755C128.808 841.755 128.829 841.755 128.85 841.755C128.871 841.755 128.891 841.755 128.912 841.755C128.933 841.755 128.954 841.755 128.975 841.755C128.996 841.755 129.017 841.755 129.037 841.755C129.058 841.755 129.079 841.755 129.1 841.755C129.121 841.755 129.141 841.755 129.162 841.755C129.183 841.755 129.204 841.755 129.225 841.755C129.245 841.755 129.266 841.755 129.287 841.755C129.308 841.755 129.328 841.755 129.349 841.755C129.37 841.755 129.391 841.755 129.411 841.755C129.432 841.755 129.453 841.755 129.474 841.755C129.494 841.755 129.515 841.755 129.536 841.755C129.556 841.755 129.577 841.755 129.598 841.755V838.915C129.577 838.915 129.556 838.915 129.536 838.915C129.515 838.915 129.494 838.915 129.474 838.915C129.453 838.915 129.432 838.915 129.411 838.915C129.391 838.915 129.37 838.915 129.349 838.915C129.328 838.915 129.308 838.915 129.287 838.915C129.266 838.915 129.245 838.915 129.225 838.915C129.204 838.915 129.183 838.915 129.162 838.915C129.141 838.915 129.121 838.915 129.1 838.915C129.079 838.915 129.058 838.915 129.037 838.915C129.017 838.915 128.996 838.915 128.975 838.915C128.954 838.915 128.933 838.915 128.912 838.915C128.891 838.915 128.871 838.915 128.85 838.915C128.829 838.915 128.808 838.915 128.787 838.915C128.766 838.915 128.745 838.915 128.724 838.915C128.703 838.915 128.683 838.915 128.662 838.915C128.641 838.915 128.62 838.915 128.599 838.915C128.578 838.915 128.557 838.915 128.536 838.915C128.515 838.915 128.494 838.915 128.473 838.915C128.452 838.915 128.431 838.915 128.41 838.915C128.389 838.915 128.368 838.915 128.347 838.915C128.326 838.915 128.305 838.915 128.284 838.915C128.263 838.915 128.242 838.915 128.221 838.915C128.2 838.915 128.179 838.915 128.158 838.915C128.137 838.915 128.116 838.915 128.095 838.915C128.074 838.915 128.052 838.915 128.031 838.915C128.01 838.915 127.989 838.915 127.968 838.915C127.947 838.915 127.926 838.915 127.905 838.915C127.884 838.915 127.862 838.915 127.841 838.915C127.82 838.915 127.799 838.915 127.778 838.915C127.757 838.915 127.736 838.915 127.714 838.915C127.693 838.915 127.672 838.915 127.651 838.915C127.63 838.915 127.609 838.915 127.587 838.915C127.566 838.915 127.545 838.915 127.524 838.915C127.502 838.915 127.481 838.915 127.46 838.915C127.439 838.915 127.418 838.915 127.396 838.915C127.375 838.915 127.354 838.915 127.333 838.915C127.311 838.915 127.29 838.915 127.269 838.915C127.247 838.915 127.226 838.915 127.205 838.915C127.184 838.915 127.162 838.915 127.141 838.915C127.12 838.915 127.098 838.915 127.077 838.915C127.056 838.915 127.034 838.915 127.013 838.915C126.992 838.915 126.97 838.915 126.949 838.915C126.927 838.915 126.906 838.915 126.885 838.915C126.863 838.915 126.842 838.915 126.821 838.915C126.799 838.915 126.778 838.915 126.756 838.915C126.735 838.915 126.714 838.915 126.692 838.915C126.671 838.915 126.649 838.915 126.628 838.915C126.606 838.915 126.585 838.915 126.563 838.915C126.542 838.915 126.521 838.915 126.499 838.915C126.478 838.915 126.456 838.915 126.435 838.915C126.413 838.915 126.392 838.915 126.37 838.915C126.349 838.915 126.327 838.915 126.306 838.915C126.284 838.915 126.262 838.915 126.241 838.915C126.219 838.915 126.198 838.915 126.176 838.915C126.155 838.915 126.133 838.915 126.112 838.915C126.09 838.915 126.068 838.915 126.047 838.915C126.025 838.915 126.004 838.915 125.982 838.915C125.96 838.915 125.939 838.915 125.917 838.915C125.896 838.915 125.874 838.915 125.852 838.915C125.831 838.915 125.809 838.915 125.787 838.915C125.766 838.915 125.744 838.915 125.722 838.915C125.701 838.915 125.679 838.915 125.657 838.915C125.636 838.915 125.614 838.915 125.592 838.915C125.571 838.915 125.549 838.915 125.527 838.915C125.505 838.915 125.484 838.915 125.462 838.915C125.44 838.915 125.418 838.915 125.397 838.915C125.375 838.915 125.353 838.915 125.331 838.915C125.31 838.915 125.288 838.915 125.266 838.915C125.244 838.915 125.223 838.915 125.201 838.915C125.179 838.915 125.157 838.915 125.135 838.915C125.114 838.915 125.092 838.915 125.07 838.915C125.048 838.915 125.026 838.915 125.004 838.915C124.983 838.915 124.961 838.915 124.939 838.915C124.917 838.915 124.895 838.915 124.873 838.915C124.851 838.915 124.829 838.915 124.807 838.915C124.786 838.915 124.764 838.915 124.742 838.915C124.72 838.915 124.698 838.915 124.676 838.915C124.654 838.915 124.632 838.915 124.61 838.915C124.588 838.915 124.566 838.915 124.544 838.915C124.522 838.915 124.5 838.915 124.478 838.915C124.456 838.915 124.435 838.915 124.413 838.915C124.391 838.915 124.368 838.915 124.346 838.915C124.324 838.915 124.302 838.915 124.28 838.915C124.258 838.915 124.236 838.915 124.214 838.915C124.192 838.915 124.17 838.915 124.148 838.915C124.126 838.915 124.104 838.915 124.082 838.915C124.06 838.915 124.038 838.915 124.016 838.915C123.994 838.915 123.972 838.915 123.949 838.915C123.927 838.915 123.905 838.915 123.883 838.915C123.861 838.915 123.839 838.915 123.817 838.915C123.795 838.915 123.772 838.915 123.75 838.915C123.728 838.915 123.706 838.915 123.684 838.915C123.662 838.915 123.639 838.915 123.617 838.915C123.595 838.915 123.573 838.915 123.551 838.915C123.528 838.915 123.506 838.915 123.484 838.915C123.462 838.915 123.44 838.915 123.417 838.915C123.395 838.915 123.373 838.915 123.351 838.915C123.328 838.915 123.306 838.915 123.284 838.915C123.262 838.915 123.239 838.915 123.217 838.915C123.195 838.915 123.172 838.915 123.15 838.915C123.128 838.915 123.106 838.915 123.083 838.915C123.061 838.915 123.039 838.915 123.016 838.915C122.994 838.915 122.972 838.915 122.949 838.915C122.927 838.915 122.905 838.915 122.882 838.915C122.86 838.915 122.837 838.915 122.815 838.915C122.793 838.915 122.77 838.915 122.748 838.915C122.725 838.915 122.703 838.915 122.681 838.915C122.658 838.915 122.636 838.915 122.613 838.915C122.591 838.915 122.569 838.915 122.546 838.915C122.524 838.915 122.501 838.915 122.479 838.915C122.456 838.915 122.434 838.915 122.411 838.915C122.389 838.915 122.366 838.915 122.344 838.915C122.321 838.915 122.299 838.915 122.276 838.915C122.254 838.915 122.231 838.915 122.209 838.915C122.186 838.915 122.164 838.915 122.141 838.915C122.119 838.915 122.096 838.915 122.074 838.915C122.051 838.915 122.028 838.915 122.006 838.915C121.983 838.915 121.961 838.915 121.938 838.915C121.915 838.915 121.893 838.915 121.87 838.915C121.848 838.915 121.825 838.915 121.802 838.915C121.78 838.915 121.757 838.915 121.735 838.915C121.712 838.915 121.689 838.915 121.667 838.915C121.644 838.915 121.621 838.915 121.599 838.915C121.576 838.915 121.553 838.915 121.531 838.915C121.508 838.915 121.485 838.915 121.462 838.915C121.44 838.915 121.417 838.915 121.394 838.915C121.372 838.915 121.349 838.915 121.326 838.915C121.303 838.915 121.281 838.915 121.258 838.915C121.235 838.915 121.212 838.915 121.19 838.915C121.167 838.915 121.144 838.915 121.121 838.915C121.099 838.915 121.076 838.915 121.053 838.915C121.03 838.915 121.007 838.915 120.984 838.915C120.962 838.915 120.939 838.915 120.916 838.915C120.893 838.915 120.87 838.915 120.847 838.915C120.825 838.915 120.802 838.915 120.779 838.915C120.756 838.915 120.733 838.915 120.71 838.915C120.687 838.915 120.665 838.915 120.642 838.915C120.619 838.915 120.596 838.915 120.573 838.915C120.55 838.915 120.527 838.915 120.504 838.915C120.481 838.915 120.458 838.915 120.435 838.915C120.412 838.915 120.389 838.915 120.366 838.915C120.343 838.915 120.321 838.915 120.298 838.915C120.275 838.915 120.252 838.915 120.229 838.915C120.206 838.915 120.183 838.915 120.16 838.915C120.137 838.915 120.114 838.915 120.091 838.915C120.067 838.915 120.044 838.915 120.021 838.915C119.998 838.915 119.975 838.915 119.952 838.915C119.929 838.915 119.906 838.915 119.883 838.915C119.86 838.915 119.837 838.915 119.814 838.915C119.791 838.915 119.768 838.915 119.744 838.915C119.721 838.915 119.698 838.915 119.675 838.915C119.652 838.915 119.629 838.915 119.606 838.915C119.583 838.915 119.559 838.915 119.536 838.915C119.513 838.915 119.49 838.915 119.467 838.915C119.444 838.915 119.42 838.915 119.397 838.915C119.374 838.915 119.351 838.915 119.328 838.915C119.304 838.915 119.281 838.915 119.258 838.915C119.235 838.915 119.212 838.915 119.188 838.915C119.165 838.915 119.142 838.915 119.119 838.915C119.095 838.915 119.072 838.915 119.049 838.915C119.026 838.915 119.002 838.915 118.979 838.915C118.956 838.915 118.932 838.915 118.909 838.915C118.886 838.915 118.862 838.915 118.839 838.915C118.816 838.915 118.793 838.915 118.769 838.915C118.746 838.915 118.723 838.915 118.699 838.915C118.676 838.915 118.652 838.915 118.629 838.915C118.606 838.915 118.582 838.915 118.559 838.915C118.536 838.915 118.512 838.915 118.489 838.915C118.465 838.915 118.442 838.915 118.419 838.915C118.395 838.915 118.372 838.915 118.348 838.915C118.325 838.915 118.301 838.915 118.278 838.915C118.255 838.915 118.231 838.915 118.208 838.915C118.184 838.915 118.161 838.915 118.137 838.915C118.114 838.915 118.09 838.915 118.067 838.915C118.043 838.915 118.02 838.915 117.996 838.915C117.973 838.915 117.949 838.915 117.926 838.915C117.902 838.915 117.879 838.915 117.855 838.915C117.831 838.915 117.808 838.915 117.784 838.915C117.761 838.915 117.737 838.915 117.714 838.915C117.69 838.915 117.667 838.915 117.643 838.915C117.619 838.915 117.596 838.915 117.572 838.915C117.549 838.915 117.525 838.915 117.501 838.915C117.478 838.915 117.454 838.915 117.43 838.915C117.407 838.915 117.383 838.915 117.359 838.915C117.336 838.915 117.312 838.915 117.288 838.915C117.265 838.915 117.241 838.915 117.217 838.915C117.194 838.915 117.17 838.915 117.146 838.915C117.123 838.915 117.099 838.915 117.075 838.915C117.051 838.915 117.028 838.915 117.004 838.915C116.98 838.915 116.956 838.915 116.933 838.915C116.909 838.915 116.885 838.915 116.861 838.915C116.838 838.915 116.814 838.915 116.79 838.915C116.766 838.915 116.742 838.915 116.719 838.915C116.695 838.915 116.671 838.915 116.647 838.915C116.623 838.915 116.6 838.915 116.576 838.915C116.552 838.915 116.528 838.915 116.504 838.915C116.48 838.915 116.457 838.915 116.433 838.915C116.409 838.915 116.385 838.915 116.361 838.915C116.337 838.915 116.313 838.915 116.289 838.915C116.265 838.915 116.242 838.915 116.218 838.915C116.194 838.915 116.17 838.915 116.146 838.915C116.122 838.915 116.098 838.915 116.074 838.915C116.05 838.915 116.026 838.915 116.002 838.915C115.978 838.915 115.954 838.915 115.93 838.915C115.906 838.915 115.882 838.915 115.858 838.915C115.834 838.915 115.81 838.915 115.786 838.915C115.762 838.915 115.738 838.915 115.714 838.915C115.69 838.915 115.666 838.915 115.642 838.915C115.618 838.915 115.594 838.915 115.57 838.915C115.546 838.915 115.522 838.915 115.498 838.915C115.474 838.915 115.45 838.915 115.425 838.915C115.401 838.915 115.377 838.915 115.353 838.915C115.329 838.915 115.305 838.915 115.281 838.915C115.257 838.915 115.233 838.915 115.208 838.915C115.184 838.915 115.16 838.915 115.136 838.915C115.112 838.915 115.088 838.915 115.063 838.915C115.039 838.915 115.015 838.915 114.991 838.915C114.967 838.915 114.943 838.915 114.918 838.915C114.894 838.915 114.87 838.915 114.846 838.915C114.821 838.915 114.797 838.915 114.773 838.915C114.749 838.915 114.724 838.915 114.7 838.915C114.676 838.915 114.652 838.915 114.627 838.915C114.603 838.915 114.579 838.915 114.555 838.915C114.53 838.915 114.506 838.915 114.482 838.915C114.457 838.915 114.433 838.915 114.409 838.915C114.384 838.915 114.36 838.915 114.336 838.915C114.311 838.915 114.287 838.915 114.263 838.915C114.238 838.915 114.214 838.915 114.19 838.915C114.165 838.915 114.141 838.915 114.117 838.915C114.092 838.915 114.068 838.915 114.043 838.915C114.019 838.915 113.995 838.915 113.97 838.915C113.946 838.915 113.921 838.915 113.897 838.915C113.872 838.915 113.848 838.915 113.824 838.915C113.799 838.915 113.775 838.915 113.75 838.915C113.726 838.915 113.701 838.915 113.677 838.915C113.652 838.915 113.628 838.915 113.603 838.915C113.579 838.915 113.554 838.915 113.53 838.915C113.505 838.915 113.481 838.915 113.456 838.915C113.432 838.915 113.407 838.915 113.383 838.915C113.358 838.915 113.333 838.915 113.309 838.915C113.284 838.915 113.26 838.915 113.235 838.915C113.211 838.915 113.186 838.915 113.161 838.915C113.137 838.915 113.112 838.915 113.088 838.915C113.063 838.915 113.038 838.915 113.014 838.915C112.989 838.915 112.965 838.915 112.94 838.915C112.915 838.915 112.891 838.915 112.866 838.915C112.841 838.915 112.817 838.915 112.792 838.915C112.767 838.915 112.743 838.915 112.718 838.915C112.693 838.915 112.668 838.915 112.644 838.915C112.619 838.915 112.594 838.915 112.57 838.915C112.545 838.915 112.52 838.915 112.495 838.915C112.471 838.915 112.446 838.915 112.421 838.915C112.396 838.915 112.372 838.915 112.347 838.915C112.322 838.915 112.297 838.915 112.273 838.915C112.248 838.915 112.223 838.915 112.198 838.915C112.173 838.915 112.148 838.915 112.124 838.915C112.099 838.915 112.074 838.915 112.049 838.915C112.024 838.915 112 838.915 111.975 838.915C111.95 838.915 111.925 838.915 111.9 838.915C111.875 838.915 111.85 838.915 111.825 838.915C111.801 838.915 111.776 838.915 111.751 838.915C111.726 838.915 111.701 838.915 111.676 838.915C111.651 838.915 111.626 838.915 111.601 838.915C111.576 838.915 111.551 838.915 111.526 838.915C111.501 838.915 111.477 838.915 111.452 838.915C111.427 838.915 111.402 838.915 111.377 838.915C111.352 838.915 111.327 838.915 111.302 838.915C111.277 838.915 111.252 838.915 111.227 838.915C111.202 838.915 111.177 838.915 111.152 838.915C111.127 838.915 111.102 838.915 111.076 838.915C111.051 838.915 111.026 838.915 111.001 838.915C110.976 838.915 110.951 838.915 110.926 838.915C110.901 838.915 110.876 838.915 110.851 838.915C110.826 838.915 110.801 838.915 110.775 838.915C110.75 838.915 110.725 838.915 110.7 838.915C110.675 838.915 110.65 838.915 110.625 838.915C110.6 838.915 110.574 838.915 110.549 838.915C110.524 838.915 110.499 838.915 110.474 838.915C110.449 838.915 110.423 838.915 110.398 838.915C110.373 838.915 110.348 838.915 110.323 838.915C110.297 838.915 110.272 838.915 110.247 838.915C110.222 838.915 110.196 838.915 110.171 838.915C110.146 838.915 110.121 838.915 110.095 838.915C110.07 838.915 110.045 838.915 110.02 838.915C109.994 838.915 109.969 838.915 109.944 838.915C109.919 838.915 109.893 838.915 109.868 838.915C109.843 838.915 109.817 838.915 109.792 838.915C109.767 838.915 109.741 838.915 109.716 838.915C109.691 838.915 109.665 838.915 109.64 838.915C109.615 838.915 109.589 838.915 109.564 838.915C109.539 838.915 109.513 838.915 109.488 838.915C109.462 838.915 109.437 838.915 109.412 838.915C109.386 838.915 109.361 838.915 109.335 838.915C109.31 838.915 109.284 838.915 109.259 838.915C109.234 838.915 109.208 838.915 109.183 838.915C109.157 838.915 109.132 838.915 109.106 838.915C109.081 838.915 109.055 838.915 109.03 838.915C109.004 838.915 108.979 838.915 108.953 838.915C108.928 838.915 108.902 838.915 108.877 838.915C108.851 838.915 108.826 838.915 108.8 838.915C108.775 838.915 108.749 838.915 108.724 838.915C108.698 838.915 108.673 838.915 108.647 838.915C108.621 838.915 108.596 838.915 108.57 838.915C108.545 838.915 108.519 838.915 108.494 838.915C108.468 838.915 108.442 838.915 108.417 838.915C108.391 838.915 108.366 838.915 108.34 838.915C108.314 838.915 108.289 838.915 108.263 838.915C108.237 838.915 108.212 838.915 108.186 838.915C108.16 838.915 108.135 838.915 108.109 838.915C108.083 838.915 108.058 838.915 108.032 838.915C108.006 838.915 107.981 838.915 107.955 838.915C107.929 838.915 107.903 838.915 107.878 838.915C107.852 838.915 107.826 838.915 107.801 838.915C107.775 838.915 107.749 838.915 107.723 838.915C107.697 838.915 107.672 838.915 107.646 838.915C107.62 838.915 107.594 838.915 107.569 838.915C107.543 838.915 107.517 838.915 107.491 838.915C107.465 838.915 107.44 838.915 107.414 838.915C107.388 838.915 107.362 838.915 107.336 838.915C107.31 838.915 107.285 838.915 107.259 838.915C107.233 838.915 107.207 838.915 107.181 838.915C107.155 838.915 107.129 838.915 107.103 838.915C107.078 838.915 107.052 838.915 107.026 838.915C107 838.915 106.974 838.915 106.948 838.915C106.922 838.915 106.896 838.915 106.87 838.915C106.844 838.915 106.818 838.915 106.792 838.915C106.767 838.915 106.741 838.915 106.715 838.915C106.689 838.915 106.663 838.915 106.637 838.915C106.611 838.915 106.585 838.915 106.559 838.915C106.533 838.915 106.507 838.915 106.481 838.915C106.455 838.915 106.429 838.915 106.403 838.915C106.377 838.915 106.35 838.915 106.324 838.915C106.298 838.915 106.272 838.915 106.246 838.915C106.22 838.915 106.194 838.915 106.168 838.915C106.142 838.915 106.116 838.915 106.09 838.915C106.064 838.915 106.038 838.915 106.011 838.915C105.985 838.915 105.959 838.915 105.933 838.915C105.907 838.915 105.881 838.915 105.855 838.915C105.829 838.915 105.802 838.915 105.776 838.915C105.75 838.915 105.724 838.915 105.698 838.915C105.672 838.915 105.645 838.915 105.619 838.915C105.593 838.915 105.567 838.915 105.541 838.915C105.514 838.915 105.488 838.915 105.462 838.915C105.436 838.915 105.409 838.915 105.383 838.915C105.357 838.915 105.331 838.915 105.304 838.915C105.278 838.915 105.252 838.915 105.226 838.915C105.199 838.915 105.173 838.915 105.147 838.915C105.12 838.915 105.094 838.915 105.068 838.915C105.042 838.915 105.015 838.915 104.989 838.915C104.963 838.915 104.936 838.915 104.91 838.915C104.884 838.915 104.857 838.915 104.831 838.915C104.805 838.915 104.778 838.915 104.752 838.915C104.725 838.915 104.699 838.915 104.673 838.915C104.646 838.915 104.62 838.915 104.593 838.915C104.567 838.915 104.541 838.915 104.514 838.915C104.488 838.915 104.461 838.915 104.435 838.915C104.408 838.915 104.382 838.915 104.356 838.915C104.329 838.915 104.303 838.915 104.276 838.915C104.25 838.915 104.223 838.915 104.197 838.915C104.17 838.915 104.144 838.915 104.117 838.915C104.091 838.915 104.064 838.915 104.038 838.915C104.011 838.915 103.985 838.915 103.958 838.915C103.932 838.915 103.905 838.915 103.879 838.915C103.852 838.915 103.825 838.915 103.799 838.915C103.772 838.915 103.746 838.915 103.719 838.915C103.693 838.915 103.666 838.915 103.639 838.915C103.613 838.915 103.586 838.915 103.56 838.915C103.533 838.915 103.506 838.915 103.48 838.915C103.453 838.915 103.426 838.915 103.4 838.915C103.373 838.915 103.346 838.915 103.32 838.915C103.293 838.915 103.266 838.915 103.24 838.915C103.213 838.915 103.186 838.915 103.16 838.915C103.133 838.915 103.106 838.915 103.08 838.915C103.053 838.915 103.026 838.915 102.999 838.915C102.973 838.915 102.946 838.915 102.919 838.915C102.893 838.915 102.866 838.915 102.839 838.915C102.812 838.915 102.785 838.915 102.759 838.915C102.732 838.915 102.705 838.915 102.678 838.915C102.652 838.915 102.625 838.915 102.598 838.915C102.571 838.915 102.544 838.915 102.517 838.915C102.491 838.915 102.464 838.915 102.437 838.915C102.41 838.915 102.383 838.915 102.356 838.915C102.33 838.915 102.303 838.915 102.276 838.915C102.249 838.915 102.222 838.915 102.195 838.915C102.168 838.915 102.141 838.915 102.115 838.915C102.088 838.915 102.061 838.915 102.034 838.915C102.007 838.915 101.98 838.915 101.953 838.915C101.926 838.915 101.899 838.915 101.872 838.915C101.845 838.915 101.818 838.915 101.791 838.915C101.764 838.915 101.737 838.915 101.71 838.915C101.683 838.915 101.656 838.915 101.629 838.915C101.602 838.915 101.575 838.915 101.548 838.915C101.521 838.915 101.494 838.915 101.467 838.915C101.44 838.915 101.413 838.915 101.386 838.915C101.359 838.915 101.332 838.915 101.305 838.915C101.278 838.915 101.251 838.915 101.224 838.915C101.197 838.915 101.169 838.915 101.142 838.915C101.115 838.915 101.088 838.915 101.061 838.915C101.034 838.915 101.007 838.915 100.98 838.915C100.953 838.915 100.925 838.915 100.898 838.915C100.871 838.915 100.844 838.915 100.817 838.915C100.79 838.915 100.762 838.915 100.735 838.915C100.708 838.915 100.681 838.915 100.654 838.915C100.627 838.915 100.599 838.915 100.572 838.915C100.545 838.915 100.518 838.915 100.49 838.915C100.463 838.915 100.436 838.915 100.409 838.915C100.382 838.915 100.354 838.915 100.327 838.915C100.3 838.915 100.272 838.915 100.245 838.915C100.218 838.915 100.191 838.915 100.163 838.915C100.136 838.915 100.109 838.915 100.081 838.915C100.054 838.915 100.027 838.915 99.9995 838.915C99.9721 838.915 99.9448 838.915 99.9174 838.915C99.8901 838.915 99.8628 838.915 99.8354 838.915C99.808 838.915 99.7807 838.915 99.7533 838.915C99.7259 838.915 99.6985 838.915 99.6711 838.915C99.6438 838.915 99.6164 838.915 99.589 838.915C99.5616 838.915 99.5341 838.915 99.5067 838.915C99.4793 838.915 99.4519 838.915 99.4244 838.915C99.397 838.915 99.3695 838.915 99.3421 838.915C99.3146 838.915 99.2872 838.915 99.2597 838.915C99.2322 838.915 99.2047 838.915 99.1773 838.915C99.1498 838.915 99.1223 838.915 99.0948 838.915C99.0673 838.915 99.0397 838.915 99.0122 838.915C98.9847 838.915 98.9572 838.915 98.9296 838.915C98.9021 838.915 98.8746 838.915 98.847 838.915C98.8195 838.915 98.7919 838.915 98.7643 838.915C98.7368 838.915 98.7092 838.915 98.6816 838.915C98.654 838.915 98.6264 838.915 98.5988 838.915C98.5712 838.915 98.5436 838.915 98.516 838.915C98.4884 838.915 98.4608 838.915 98.4331 838.915C98.4055 838.915 98.3779 838.915 98.3502 838.915C98.3226 838.915 98.2949 838.915 98.2672 838.915C98.2396 838.915 98.2119 838.915 98.1842 838.915C98.1565 838.915 98.1288 838.915 98.1011 838.915C98.0734 838.915 98.0457 838.915 98.018 838.915C97.9903 838.915 97.9626 838.915 97.9349 838.915C97.9071 838.915 97.8794 838.915 97.8516 838.915C97.8239 838.915 97.7961 838.915 97.7684 838.915C97.7406 838.915 97.7128 838.915 97.6851 838.915C97.6573 838.915 97.6295 838.915 97.6017 838.915C97.5739 838.915 97.5461 838.915 97.5183 838.915C97.4905 838.915 97.4627 838.915 97.4348 838.915C97.407 838.915 97.3792 838.915 97.3513 838.915C97.3235 838.915 97.2957 838.915 97.2678 838.915C97.2399 838.915 97.2121 838.915 97.1842 838.915C97.1563 838.915 97.1284 838.915 97.1005 838.915C97.0726 838.915 97.0447 838.915 97.0168 838.915C96.9889 838.915 96.961 838.915 96.9331 838.915C96.9052 838.915 96.8772 838.915 96.8493 838.915C96.8214 838.915 96.7934 838.915 96.7654 838.915C96.7375 838.915 96.7095 838.915 96.6815 838.915C96.6536 838.915 96.6256 838.915 96.5976 838.915C96.5696 838.915 96.5416 838.915 96.5136 838.915C96.4856 838.915 96.4576 838.915 96.4296 838.915C96.4016 838.915 96.3735 838.915 96.3455 838.915C96.3175 838.915 96.2894 838.915 96.2614 838.915C96.2333 838.915 96.2052 838.915 96.1772 838.915C96.1491 838.915 96.121 838.915 96.0929 838.915C96.0649 838.915 96.0368 838.915 96.0087 838.915C95.9806 838.915 95.9525 838.915 95.9243 838.915C95.8962 838.915 95.8681 838.915 95.84 838.915C95.8118 838.915 95.7837 838.915 95.7555 838.915C95.7274 838.915 95.6992 838.915 95.6711 838.915C95.6429 838.915 95.6147 838.915 95.5865 838.915C95.5583 838.915 95.5302 838.915 95.502 838.915C95.4738 838.915 95.4456 838.915 95.4173 838.915C95.3891 838.915 95.3609 838.915 95.3327 838.915C95.3044 838.915 95.2762 838.915 95.248 838.915C95.2197 838.915 95.1915 838.915 95.1632 838.915C95.1349 838.915 95.1067 838.915 95.0784 838.915C95.0501 838.915 95.0218 838.915 94.9935 838.915C94.9652 838.915 94.9369 838.915 94.9086 838.915C94.8803 838.915 94.852 838.915 94.8237 838.915C94.7953 838.915 94.767 838.915 94.7386 838.915C94.7103 838.915 94.6819 838.915 94.6536 838.915C94.6252 838.915 94.5969 838.915 94.5685 838.915C94.5401 838.915 94.5117 838.915 94.4833 838.915C94.4549 838.915 94.4265 838.915 94.3981 838.915C94.3697 838.915 94.3413 838.915 94.3129 838.915C94.2845 838.915 94.256 838.915 94.2276 838.915C94.1991 838.915 94.1707 838.915 94.1422 838.915C94.1138 838.915 94.0853 838.915 94.0568 838.915C94.0284 838.915 93.9999 838.915 93.9714 838.915C93.9429 838.915 93.9144 838.915 93.8859 838.915C93.8574 838.915 93.8289 838.915 93.8004 838.915C93.7718 838.915 93.7433 838.915 93.7148 838.915C93.6862 838.915 93.6577 838.915 93.6291 838.915C93.6006 838.915 93.572 838.915 93.5434 838.915C93.5149 838.915 93.4863 838.915 93.4577 838.915C93.4291 838.915 93.4005 838.915 93.3719 838.915C93.3433 838.915 93.3147 838.915 93.2861 838.915C93.2575 838.915 93.2288 838.915 93.2002 838.915C93.1716 838.915 93.1429 838.915 93.1143 838.915C93.0856 838.915 93.057 838.915 93.0283 838.915C92.9996 838.915 92.971 838.915 92.9423 838.915C92.9136 838.915 92.8849 838.915 92.8562 838.915C92.8275 838.915 92.7988 838.915 92.7701 838.915C92.7414 838.915 92.7126 838.915 92.6839 838.915C92.6552 838.915 92.6264 838.915 92.5977 838.915C92.5689 838.915 92.5402 838.915 92.5114 838.915C92.4827 838.915 92.4539 838.915 92.4251 838.915C92.3963 838.915 92.3675 838.915 92.3387 838.915C92.3099 838.915 92.2811 838.915 92.2523 838.915C92.2235 838.915 92.1947 838.915 92.1659 838.915C92.137 838.915 92.1082 838.915 92.0793 838.915C92.0505 838.915 92.0217 838.915 91.9928 838.915C91.9639 838.915 91.9351 838.915 91.9062 838.915C91.8773 838.915 91.8484 838.915 91.8195 838.915C91.7906 838.915 91.7617 838.915 91.7328 838.915C91.7039 838.915 91.675 838.915 91.6461 838.915C91.6171 838.915 91.5882 838.915 91.5593 838.915C91.5303 838.915 91.5014 838.915 91.4724 838.915V841.755ZM129.598 841.755C140.15 841.755 149.149 842.224 156.604 843.156L156.956 840.338C149.349 839.387 140.226 838.915 129.598 838.915V841.755ZM156.647 843.16C163.978 843.848 170.968 846.023 177.628 849.697L179 847.211C172.009 843.354 164.644 841.058 156.912 840.333L156.647 843.16ZM177.645 849.707C184.413 853.316 190.359 859.449 195.441 868.228L197.899 866.805C192.627 857.699 186.335 851.123 178.982 847.201L177.645 849.707ZM198 867.018L140.459 713.458L137.8 714.454L195.341 868.015L198 867.018ZM137.801 713.455L90.1438 839.834L92.801 840.836L140.458 714.457L137.801 713.455Z" fill="url(#paint0_linear_13630_110)"/>
</g>
</g>
<defs>
<linearGradient id="paint0_linear_13630_110" x1="123.595" y1="177.803" x2="123.595" y2="977.343" gradientUnits="userSpaceOnUse">
<stop stop-color="white"/>
<stop offset="1" stop-color="#00E7F9"/>
</linearGradient>
<clipPath id="clip0_13630_110">
<rect width="440" height="970" fill="white"/>
</clipPath>
</defs>
</svg>
