<svg width="440" height="1152" viewBox="0 0 440 1152" fill="none" xmlns="http://www.w3.org/2000/svg">
<g clip-path="url(#clip0_13623_89)">
<g opacity="0.2" filter="url(#filter0_f_13623_89)">
<circle cx="553.5" cy="464.5" r="425.5" fill="#2D69FE"/>
</g>
<g filter="url(#filter1_f_13623_89)">
<path d="M190.356 434.144L756.677 585.89L342.101 1000.47L190.356 434.144Z" fill="#020202"/>
<path d="M342.574 998.702L191.647 435.436L754.913 586.362L342.574 998.702Z" stroke="url(#paint0_linear_13623_89)" stroke-width="1.82646"/>
</g>
<rect width="169" height="661" transform="matrix(-1 0 0 1 169 -14)" fill="url(#paint1_linear_13623_89)"/>
<g opacity="0.1" filter="url(#filter2_f_13623_89)">
<circle cx="142.5" cy="1394.5" r="425.5" fill="#2D69FE"/>
</g>
<g filter="url(#filter3_f_13623_89)">
<path d="M161.967 865.21L174.192 1098.47L399.816 1158.93L181.747 1242.64L193.972 1475.9L46.9732 1294.37L-171.096 1378.08L-43.8771 1182.18L-190.876 1000.65L34.7484 1061.11L161.967 865.21Z" fill="#020202"/>
<path d="M161.202 868.065L173.28 1098.52L173.315 1099.18L173.955 1099.36L396.865 1159.08L181.42 1241.79L180.8 1242.02L180.835 1242.69L192.913 1473.14L47.6829 1293.8L47.2653 1293.28L46.6459 1293.52L-168.799 1376.22L-43.1112 1182.68L-42.7498 1182.12L-43.1674 1181.61L-188.397 1002.26L34.512 1061.99L35.1529 1062.16L35.5143 1061.61L161.202 868.065Z" stroke="url(#paint2_linear_13623_89)" stroke-width="1.82646"/>
</g>
</g>
<defs>
<filter id="filter0_f_13623_89" x="-95.6" y="-184.6" width="1298.2" height="1298.2" filterUnits="userSpaceOnUse" color-interpolation-filters="sRGB">
<feFlood flood-opacity="0" result="BackgroundImageFix"/>
<feBlend mode="normal" in="SourceGraphic" in2="BackgroundImageFix" result="shape"/>
<feGaussianBlur stdDeviation="111.8" result="effect1_foregroundBlur_13623_89"/>
</filter>
<filter id="filter1_f_13623_89" x="186.703" y="430.492" width="573.626" height="573.627" filterUnits="userSpaceOnUse" color-interpolation-filters="sRGB">
<feFlood flood-opacity="0" result="BackgroundImageFix"/>
<feBlend mode="normal" in="SourceGraphic" in2="BackgroundImageFix" result="shape"/>
<feGaussianBlur stdDeviation="1.82646" result="effect1_foregroundBlur_13623_89"/>
</filter>
<filter id="filter2_f_13623_89" x="-506.6" y="745.4" width="1298.2" height="1298.2" filterUnits="userSpaceOnUse" color-interpolation-filters="sRGB">
<feFlood flood-opacity="0" result="BackgroundImageFix"/>
<feBlend mode="normal" in="SourceGraphic" in2="BackgroundImageFix" result="shape"/>
<feGaussianBlur stdDeviation="111.8" result="effect1_foregroundBlur_13623_89"/>
</filter>
<filter id="filter3_f_13623_89" x="-194.528" y="861.557" width="597.997" height="617.997" filterUnits="userSpaceOnUse" color-interpolation-filters="sRGB">
<feFlood flood-opacity="0" result="BackgroundImageFix"/>
<feBlend mode="normal" in="SourceGraphic" in2="BackgroundImageFix" result="shape"/>
<feGaussianBlur stdDeviation="1.82646" result="effect1_foregroundBlur_13623_89"/>
</filter>
<linearGradient id="paint0_linear_13623_89" x1="214.239" y1="410.261" x2="653.582" y2="929.635" gradientUnits="userSpaceOnUse">
<stop stop-color="#034CFF"/>
<stop offset="1" stop-color="#034CFF" stop-opacity="0.1"/>
</linearGradient>
<linearGradient id="paint1_linear_13623_89" x1="169" y1="331" x2="11.0088" y2="331" gradientUnits="userSpaceOnUse">
<stop offset="0.177898" stop-color="#020202"/>
<stop offset="1" stop-color="#020202" stop-opacity="0"/>
</linearGradient>
<linearGradient id="paint2_linear_13623_89" x1="192.954" y1="873.513" x2="-25.6087" y2="1481.53" gradientUnits="userSpaceOnUse">
<stop stop-color="#034CFF"/>
<stop offset="1" stop-color="#034CFF" stop-opacity="0.1"/>
</linearGradient>
<clipPath id="clip0_13623_89">
<rect width="440" height="1152" fill="white"/>
</clipPath>
</defs>
</svg>
