<svg width="440" height="760" viewBox="0 0 440 760" fill="none" xmlns="http://www.w3.org/2000/svg">
<path d="M-156.613 1.36078L-156.613 759M308.309 1.36078L308.309 759M-40.3822 1.36078L-40.3822 759M424.539 1.36078L424.539 759M75.8482 1.36078L75.8481 759M540.77 1.36078L540.77 759M192.079 1.36078L192.078 759M657 1.36078V759M-157 758.639H656.613M-157 325.703H656.613M-157 650.405H656.613M-157 217.468H656.613M-157 542.171H656.613M-157 109.234H656.613M-157 433.937H656.613M-157 1L656.613 1" stroke="url(#paint0_radial_11634_26)" stroke-opacity="0.2" stroke-width="1.39257"/>
<defs>
<radialGradient id="paint0_radial_11634_26" cx="0" cy="0" r="1" gradientUnits="userSpaceOnUse" gradientTransform="translate(129.133 280.513) rotate(65.9384) scale(335.166 355.272)">
<stop stop-color="white"/>
<stop offset="1" stop-color="white" stop-opacity="0"/>
</radialGradient>
</defs>
</svg>
