<svg width="89" height="89" viewBox="0 0 89 89" fill="none" xmlns="http://www.w3.org/2000/svg">
<g id="Envelope">
<path id="Vector" d="M77.875 16.6875H11.125C10.3874 16.6875 9.67994 16.9805 9.15836 17.5021C8.63677 18.0237 8.34375 18.7311 8.34375 19.4688V66.75C8.34375 68.2253 8.9298 69.6401 9.97297 70.6833C11.0161 71.7265 12.431 72.3125 13.9062 72.3125H75.0938C76.569 72.3125 77.9839 71.7265 79.027 70.6833C80.0702 69.6401 80.6562 68.2253 80.6562 66.75V19.4688C80.6562 18.7311 80.3632 18.0237 79.8416 17.5021C79.3201 16.9805 78.6126 16.6875 77.875 16.6875ZM44.5 46.2904L18.2763 22.25H70.7237L44.5 46.2904ZM34.3171 44.5L13.9062 63.2074V25.7926L34.3171 44.5ZM38.4334 48.2721L42.6053 52.1137C43.1184 52.5847 43.7896 52.8461 44.4861 52.8461C45.1826 52.8461 45.8538 52.5847 46.3669 52.1137L50.5388 48.2721L70.7029 66.75H18.2763L38.4334 48.2721ZM54.6828 44.5L75.0938 25.7891V63.2109L54.6828 44.5Z" fill="url(#paint0_linear_203_516)"/>
</g>
<defs>
<linearGradient id="paint0_linear_203_516" x1="44.5" y1="16.6875" x2="44.5" y2="72.3125" gradientUnits="userSpaceOnUse">
<stop stop-color="#4B3CFF"/>
<stop offset="1" stop-color="#FA00FF"/>
</linearGradient>
</defs>
</svg>
