<svg width="32" height="32" viewBox="0 0 32 32" fill="none" xmlns="http://www.w3.org/2000/svg">
<g id="MoneyWavy">
<path id="Vector" d="M30.53 7.50015C30.386 7.41031 30.2216 7.35857 30.0521 7.34982C29.8826 7.34108 29.7137 7.3756 29.5613 7.45015C24.195 10.0752 20.3625 8.84515 16.3113 7.54765C12.0613 6.1864 7.655 4.78015 1.5675 7.75265C1.39741 7.83424 1.25387 7.96228 1.15345 8.12197C1.05304 8.28167 0.999837 8.46651 1 8.65515V23.6464C0.999976 23.8161 1.04312 23.983 1.12538 24.1314C1.20764 24.2798 1.3263 24.4048 1.4702 24.4947C1.6141 24.5846 1.77851 24.6364 1.94794 24.6452C2.11738 24.654 2.28628 24.6196 2.43875 24.5452C7.805 21.9202 11.6375 23.1502 15.695 24.4477C18.1 25.2164 20.55 26.0002 23.32 26.0002C25.4562 26.0002 27.7863 25.5352 30.4338 24.2427C30.6019 24.1606 30.7437 24.0329 30.8429 23.8743C30.9421 23.7156 30.9948 23.5323 30.995 23.3452V8.3539C30.9965 8.1838 30.9546 8.01611 30.8732 7.86672C30.7919 7.71733 30.6737 7.59116 30.53 7.50015ZM29 22.7089C23.925 24.9802 20.2188 23.7952 16.305 22.5439C13.9 21.7752 11.45 20.9914 8.68 20.9914C6.73388 21.0009 4.80755 21.3827 3.005 22.1164V9.2914C8.08 7.02015 11.7863 8.20515 15.7 9.4564C19.6138 10.7077 23.6425 12.0002 29 9.8864V22.7089ZM16 12.0002C15.2089 12.0002 14.4355 12.2348 13.7777 12.6743C13.1199 13.1138 12.6072 13.7385 12.3045 14.4694C12.0017 15.2003 11.9225 16.0046 12.0769 16.7805C12.2312 17.5564 12.6122 18.2692 13.1716 18.8286C13.731 19.388 14.4437 19.769 15.2196 19.9233C15.9956 20.0776 16.7998 19.9984 17.5307 19.6957C18.2616 19.3929 18.8864 18.8802 19.3259 18.2224C19.7654 17.5646 20 16.7913 20 16.0002C20 14.9393 19.5786 13.9219 18.8284 13.1717C18.0783 12.4216 17.0609 12.0002 16 12.0002ZM16 18.0002C15.6044 18.0002 15.2178 17.8829 14.8889 17.6631C14.56 17.4433 14.3036 17.131 14.1522 16.7655C14.0009 16.4001 13.9613 15.9979 14.0384 15.61C14.1156 15.222 14.3061 14.8656 14.5858 14.5859C14.8655 14.3062 15.2219 14.1158 15.6098 14.0386C15.9978 13.9614 16.3999 14.001 16.7654 14.1524C17.1308 14.3038 17.4432 14.5601 17.6629 14.889C17.8827 15.2179 18 15.6046 18 16.0002C18 16.5306 17.7893 17.0393 17.4142 17.4144C17.0391 17.7894 16.5304 18.0002 16 18.0002ZM7 12.0002V18.0002C7 18.2654 6.89464 18.5197 6.70711 18.7073C6.51957 18.8948 6.26522 19.0002 6 19.0002C5.73478 19.0002 5.48043 18.8948 5.29289 18.7073C5.10536 18.5197 5 18.2654 5 18.0002V12.0002C5 11.7349 5.10536 11.4806 5.29289 11.293C5.48043 11.1055 5.73478 11.0002 6 11.0002C6.26522 11.0002 6.51957 11.1055 6.70711 11.293C6.89464 11.4806 7 11.7349 7 12.0002ZM25 20.0002V14.0002C25 13.7349 25.1054 13.4806 25.2929 13.293C25.4804 13.1055 25.7348 13.0002 26 13.0002C26.2652 13.0002 26.5196 13.1055 26.7071 13.293C26.8946 13.4806 27 13.7349 27 14.0002V20.0002C27 20.2654 26.8946 20.5197 26.7071 20.7073C26.5196 20.8948 26.2652 21.0002 26 21.0002C25.7348 21.0002 25.4804 20.8948 25.2929 20.7073C25.1054 20.5197 25 20.2654 25 20.0002Z" fill="white"/>
</g>
</svg>
