<svg width="422" height="35" viewBox="0 0 422 35" fill="none" xmlns="http://www.w3.org/2000/svg">
<g clip-path="url(#clip0_213_206)">
<g opacity="0.4">
<path fill-rule="evenodd" clip-rule="evenodd" d="M25.1091 26.851C25.0163 26.7039 24.9946 14.3287 25.0868 14.0872C25.1394 13.9491 25.3278 13.9307 26.4479 13.9546L27.7478 13.9823L27.7744 16.2499L27.801 18.5177L28.2514 18.1719C29.5185 17.199 31.6322 17.2412 32.4011 18.2547C32.97 19.0048 32.9852 19.1327 32.99 23.1898L32.9942 26.9225H31.6579H30.3215L30.272 23.6159C30.2308 20.8599 30.2329 20.2091 29.923 19.9718C29.8151 19.8892 29.6694 19.8567 29.4708 19.8029C29.1295 19.7105 28.9792 19.7191 28.636 19.8509C28.4158 19.9355 28.2575 19.9863 28.1425 20.0872C27.8313 20.3603 27.838 21.0008 27.7973 23.6729L27.7478 26.9225L26.4686 26.9505C25.5118 26.9714 25.1693 26.9464 25.1091 26.851ZM45.071 16.4638C45.2888 15.8081 45.5042 15.2148 45.5496 15.1453C45.6068 15.0579 45.8507 15.0281 46.3415 15.0482L47.0508 15.0773L47.0785 16.3429L47.1061 17.6087L48.1179 17.6369L49.1295 17.6653L49.1576 18.7851L49.1856 19.905H48.1429H47.1003V22.0758C47.1003 23.7775 47.1302 24.2878 47.2385 24.4369C47.3506 24.591 47.5431 24.6371 48.2532 24.6799L49.1295 24.7327V25.7186V26.7045L48.5851 26.898C47.7804 27.1838 46.5155 27.1771 45.8498 26.8834C45.2301 26.61 44.9052 26.2819 44.6069 25.6285C44.3917 25.1571 44.3779 24.9931 44.3457 22.5179L44.3115 19.905H43.7261H43.1407V19.0121V18.1192L43.9078 17.8877L44.675 17.6561L45.071 16.4638ZM82.932 16.421C83.1079 15.8462 83.2944 15.2955 83.3464 15.1974C83.4263 15.0466 83.5512 15.0235 84.1529 15.0481L84.8648 15.0773L84.8925 16.3429L84.9201 17.6087L85.9319 17.6369L86.9436 17.6653L86.9715 18.7816L86.9995 19.8979L85.9816 19.9264L84.9638 19.9547L84.9372 22.111L84.9104 24.2673L85.1732 24.4751C85.3892 24.646 85.5748 24.6829 86.218 24.6829H87L86.9718 25.6968L86.9436 26.7107L86.3991 26.9067C85.6938 27.1605 84.3456 27.1744 83.7813 26.9337C83.1678 26.672 82.7762 26.3206 82.5239 25.8054C82.3014 25.351 82.2889 25.2107 82.2416 22.6423L82.1921 19.9547L81.5981 19.905L81.0042 19.8552L80.9751 19.0743C80.9587 18.6329 80.9909 18.2391 81.0492 18.1684C81.1061 18.0996 81.4404 17.9649 81.7922 17.8692C82.144 17.7734 82.4724 17.6436 82.522 17.5807C82.5717 17.5177 82.7561 16.9959 82.932 16.421ZM34.9222 18.9287C35.462 18.1793 36.3995 17.677 37.5478 17.522C37.9602 17.4662 38.165 17.4374 38.37 17.4355C38.5892 17.4334 38.8087 17.4621 39.2827 17.5213C41.7294 17.8269 42.8407 19.3178 42.8407 22.2939C42.8407 25.2983 41.7346 26.775 39.2558 27.0799C37.1721 27.3362 35.4333 26.6598 34.7017 25.3081C33.7598 23.5678 33.8696 20.3897 34.9222 18.9287ZM53.6214 18.375C53.9581 18.0147 54.735 17.6281 55.3278 17.5259C56.6434 17.2992 57.8346 17.7553 58.1919 18.6226C58.2569 18.7805 58.3271 18.9096 58.3479 18.9096C58.3686 18.9096 58.5497 18.7269 58.7502 18.5036C59.2157 17.9856 59.8767 17.6501 60.6883 17.5197C62.2509 17.2686 63.3321 17.8998 63.6786 19.2654C63.8057 19.7665 63.8276 20.4746 63.806 23.3963L63.78 26.9225H62.4436H61.1073L61.0578 23.5879C61.0306 21.7539 60.9756 20.2028 60.9356 20.1411C60.8294 19.9767 60.2223 19.7059 59.9605 19.7059C59.6318 19.7059 58.9533 20.0622 58.781 20.3252C58.6597 20.5106 58.6235 21.1341 58.5831 23.7373L58.5336 26.9225L57.2219 26.9503L55.9103 26.9781V23.7849C55.9103 21.1843 55.8836 20.5398 55.7662 20.3116C55.6141 20.0157 55.0835 19.7059 54.7291 19.7059C54.3827 19.7059 53.8792 19.962 53.6502 20.2547C53.4405 20.5227 53.4356 20.6009 53.4341 23.6263C53.4332 25.3297 53.3964 26.7809 53.352 26.851C53.2919 26.9464 52.9494 26.9714 51.9925 26.9505L50.7134 26.9225V22.2939V17.6653H51.9013H53.0891L53.2451 18.138L53.4012 18.6108L53.6214 18.375ZM65.4876 17.9309C65.7268 17.8068 66.7827 17.6202 67.7891 17.524C69.0012 17.4082 69.0372 17.4081 70.0163 17.5192C71.5237 17.6902 72.3226 18.2532 72.6281 19.3594C72.6987 19.615 72.7377 21.0366 72.738 23.364L72.7386 26.9723H71.4991C70.6744 26.9723 70.385 26.986 70.2378 26.8469C70.1436 26.7579 70.1077 26.6064 70.027 26.3489C69.9788 26.195 69.9163 26.2162 69.52 26.5203C68.9572 26.9523 68.4443 27.0999 67.4895 27.1048C66.8487 27.108 66.6698 27.0677 66.2103 26.8164C65.2287 26.2798 64.7756 25.3367 64.8343 23.9524C64.8791 22.893 65.1693 22.2822 65.8454 21.8238C66.5241 21.3637 66.865 21.2887 68.5563 21.2272L70.0658 21.1723V20.8097C70.0658 19.965 69.5534 19.7908 67.1271 19.8104C66.2446 19.8176 65.4755 19.7943 65.4183 19.7587C65.359 19.7219 65.3143 19.3346 65.3143 18.8574C65.3143 18.1611 65.3434 18.0056 65.4876 17.9309ZM77.3775 18.522C77.9204 17.9474 78.4768 17.6449 79.1944 17.534C79.482 17.4896 79.7743 17.4727 79.8437 17.4963C79.94 17.529 79.9636 17.8643 79.9427 18.8964L79.9153 20.2533L79.0244 20.3093C78.0087 20.3731 77.486 20.5627 77.2256 20.9621C77.0642 21.2093 77.0393 21.5479 76.9951 24.081L76.9456 26.9225H75.6093H74.2729V22.2939V17.6653L75.4373 17.6372C76.1619 17.6198 76.4727 17.6014 76.6296 17.749C76.7589 17.8706 76.7838 18.1047 76.8494 18.5447L76.9184 19.0078L77.3775 18.522ZM39.9154 22.2944C39.9118 20.8441 39.7243 20.2372 39.1947 19.9618C38.8724 19.7943 38.1755 19.7641 37.8336 19.903C37.2722 20.1311 37.0033 20.9332 37.0033 22.3803C37.0033 24.0578 37.4322 24.7838 38.4215 24.7809C39.1192 24.7789 39.3858 24.6205 39.6735 24.0364C39.8953 23.5861 39.9181 23.4218 39.9154 22.2944ZM68.7833 25.0582C69.5873 24.9804 70.0658 24.3774 70.0658 23.4418V22.9907L69.1007 22.997C68.5699 23.0005 68.0377 23.043 67.918 23.0914C67.6589 23.1964 67.3931 23.6746 67.3931 24.0359C67.3931 24.7402 67.9368 25.14 68.7833 25.0582Z" fill="#FEFEFE" fill-opacity="0.7"/>
<path fill-rule="evenodd" clip-rule="evenodd" d="M10.5236 3.86971C8.90601 4.631 7.64607 6.03979 6.66954 8.17931C6.4871 8.57896 6.08768 9.59746 5.7819 10.4427C5.11639 12.2826 5.01344 12.4627 4.65223 12.4207C4.40664 12.3923 4.38397 12.3506 4.35675 11.8784C4.33784 11.5517 4.40218 11.1431 4.53493 10.747C4.87456 9.73313 4.7531 9.79286 3.68619 11.1643C2.60364 12.556 1.44002 14.7849 0.819648 16.6551C-0.330215 20.1216 -0.268643 23.3867 0.994266 25.9273C2.29539 28.5447 4.68618 30.5412 7.36841 31.2506C9.20803 31.7371 10.8469 31.7361 12.6984 31.2477C15.3105 30.5584 17.6806 28.6292 18.9276 26.1771C19.8515 24.3602 20.1236 23.0182 20.0478 20.6517C19.9885 18.8012 19.7098 17.3066 19.0837 15.4806C18.476 13.7084 17.3639 11.4442 17.1012 11.4442C17.0516 11.4442 17.0385 11.6441 17.0719 11.8896C17.1549 12.4985 16.937 12.8378 16.463 12.8378C15.9981 12.8378 15.8684 12.6083 15.6171 11.3402C15.3335 9.90982 14.9164 9.06701 14.1029 8.28154C13.4094 7.61193 13.0797 7.47128 13.2483 7.91702C13.3013 8.05747 13.3448 8.46409 13.3448 8.82055C13.3448 9.40923 13.3173 9.49643 13.0454 9.76986C12.8054 10.0111 12.6935 10.0577 12.4822 10.0045C12.068 9.89996 11.7107 9.59686 11.3677 9.05954C10.4399 7.60546 10.3326 5.94533 11.0573 4.25115C11.3823 3.49126 11.3607 3.47583 10.5236 3.86971ZM13.2533 18.2066C12.5733 17.5241 12.0147 17.1944 11.1417 16.9608C9.67575 16.5683 8.0838 16.9873 6.9183 18.0723C4.51127 20.3133 5.1159 24.2441 8.08588 25.6624C8.75753 25.9831 8.94264 26.026 9.80731 26.0609C10.6044 26.0931 10.894 26.0617 11.4417 25.884C13.235 25.3022 14.4865 23.6801 14.6075 21.7812C14.6979 20.3618 14.2667 19.2238 13.2533 18.2066Z" fill="white"/>
<path fill-rule="evenodd" clip-rule="evenodd" d="M141.87 16.8381C141.78 16.9435 141.7 17.0609 141.631 17.1904C141.464 17.501 141.38 17.8657 141.38 18.2847C141.38 18.7087 141.464 19.0784 141.631 19.3939C141.671 19.4692 141.715 19.5403 141.762 19.6075C140.75 27.9977 133.606 34.4997 124.942 34.4997C115.585 34.4997 108 26.9143 108 17.5572C108 8.20015 115.585 0.614746 124.942 0.614746C134.059 0.614746 141.493 7.81459 141.87 16.8381ZM132.415 19.209V16.8207H133.472V16.2661H132.415V15.2457H131.742V16.2661H131.217V16.8207H131.742V19.209C131.742 19.6034 131.836 19.8868 132.023 20.0594C132.21 20.2319 132.491 20.3182 132.866 20.3182H133.472V19.7488H132.977C132.77 19.7488 132.624 19.7094 132.541 19.6305C132.457 19.5467 132.415 19.4062 132.415 19.209ZM120.832 16.3918C120.585 16.2587 120.304 16.1922 119.989 16.1922C119.668 16.1922 119.377 16.271 119.116 16.4288C118.855 16.5865 118.668 16.8084 118.554 17.0943C118.426 16.7985 118.231 16.5742 117.97 16.4214C117.709 16.2686 117.408 16.1922 117.068 16.1922C116.797 16.1922 116.548 16.2489 116.321 16.3622C116.099 16.4756 115.922 16.6383 115.789 16.8503V16.2661H115.116V20.3182H115.789V18.0851C115.789 17.6612 115.892 17.3383 116.099 17.1165C116.306 16.8897 116.585 16.7763 116.935 16.7763C117.275 16.7763 117.544 16.8848 117.741 17.1017C117.943 17.3136 118.044 17.6217 118.044 18.0259V20.3182H118.71V18.0851C118.71 17.6612 118.813 17.3383 119.02 17.1165C119.227 16.8897 119.506 16.7763 119.856 16.7763C120.196 16.7763 120.464 16.8848 120.662 17.1017C120.864 17.3136 120.965 17.6217 120.965 18.0259V20.3182H121.63V17.9298C121.63 17.5552 121.559 17.2372 121.416 16.976C121.273 16.7147 121.078 16.52 120.832 16.3918ZM122.734 17.1904C122.566 17.501 122.483 17.8633 122.483 18.2774C122.483 18.6865 122.566 19.0513 122.734 19.3717C122.902 19.6921 123.131 19.9411 123.422 20.1185C123.713 20.296 124.038 20.3847 124.398 20.3847C124.748 20.3847 125.053 20.3083 125.315 20.1555C125.581 19.9978 125.78 19.8006 125.914 19.564V20.3182H126.594V16.2661H125.914V17.0055C125.785 16.7739 125.591 16.5816 125.329 16.4288C125.068 16.276 124.76 16.1996 124.405 16.1996C124.045 16.1996 123.717 16.2858 123.422 16.4584C123.131 16.6309 122.902 16.8749 122.734 17.1904ZM125.729 17.4862C125.852 17.7129 125.914 17.9791 125.914 18.2847C125.914 18.5904 125.852 18.859 125.729 19.0907C125.605 19.3175 125.438 19.4925 125.226 19.6157C125.019 19.734 124.79 19.7932 124.538 19.7932C124.287 19.7932 124.058 19.734 123.851 19.6157C123.644 19.4925 123.478 19.3175 123.355 19.0907C123.232 18.859 123.17 18.5879 123.17 18.2774C123.17 17.9717 123.232 17.7055 123.355 17.4788C123.478 17.252 123.644 17.0795 123.851 16.9612C124.058 16.8429 124.287 16.7837 124.538 16.7837C124.79 16.7837 125.019 16.8453 125.226 16.9686C125.438 17.0869 125.605 17.2594 125.729 17.4862ZM129.165 20.3847C128.855 20.3847 128.576 20.333 128.33 20.2294C128.083 20.121 127.889 19.9731 127.746 19.7858C127.603 19.5935 127.524 19.3742 127.509 19.1277H128.204C128.224 19.3298 128.318 19.4949 128.485 19.6231C128.658 19.7513 128.882 19.8154 129.158 19.8154C129.414 19.8154 129.616 19.7587 129.764 19.6453C129.912 19.5319 129.986 19.389 129.986 19.2164C129.986 19.039 129.907 18.9083 129.75 18.8245C129.592 18.7358 129.348 18.6495 129.018 18.5657C128.717 18.4869 128.47 18.408 128.278 18.3291C128.091 18.2453 127.928 18.1245 127.79 17.9668C127.657 17.8041 127.59 17.5922 127.59 17.3309C127.59 17.1238 127.652 16.9341 127.775 16.7615C127.899 16.589 128.074 16.4534 128.3 16.3548C128.527 16.2513 128.786 16.1996 129.077 16.1996C129.525 16.1996 129.888 16.3129 130.164 16.5397C130.44 16.7665 130.588 17.077 130.607 17.4714H129.934C129.92 17.2594 129.833 17.0893 129.676 16.9612C129.523 16.833 129.316 16.7689 129.054 16.7689C128.813 16.7689 128.621 16.8207 128.478 16.9242C128.335 17.0277 128.263 17.1633 128.263 17.3309C128.263 17.464 128.305 17.5749 128.389 17.6636C128.478 17.7474 128.586 17.8164 128.714 17.8707C128.847 17.92 129.03 17.9767 129.262 18.0407C129.552 18.1196 129.789 18.1985 129.971 18.2774C130.154 18.3513 130.309 18.4647 130.437 18.6175C130.57 18.7703 130.639 18.9699 130.644 19.2164C130.644 19.4383 130.583 19.6379 130.459 19.8154C130.336 19.9928 130.161 20.1333 129.934 20.2368C129.713 20.3354 129.456 20.3847 129.165 20.3847ZM137.985 18.1369C137.985 18.265 137.977 18.4006 137.962 18.5435H134.724C134.748 18.9428 134.884 19.2559 135.13 19.4826C135.382 19.7044 135.685 19.8154 136.04 19.8154C136.331 19.8154 136.572 19.7488 136.765 19.6157C136.962 19.4777 137.1 19.2953 137.179 19.0685H137.903C137.795 19.458 137.578 19.7759 137.253 20.0224C136.927 20.2639 136.523 20.3847 136.04 20.3847C135.655 20.3847 135.31 20.2985 135.005 20.1259C134.704 19.9534 134.467 19.7094 134.295 19.3939C134.122 19.0735 134.036 18.7038 134.036 18.2847C134.036 17.8657 134.12 17.4985 134.288 17.183C134.455 16.8675 134.689 16.626 134.99 16.4584C135.296 16.2858 135.646 16.1996 136.04 16.1996C136.424 16.1996 136.765 16.2834 137.06 16.451C137.356 16.6186 137.583 16.8503 137.741 17.146C137.903 17.4369 137.985 17.7672 137.985 18.1369ZM137.29 17.9964C137.29 17.74 137.233 17.5207 137.12 17.3383C137.006 17.151 136.851 17.0105 136.654 16.9168C136.461 16.8182 136.247 16.7689 136.01 16.7689C135.67 16.7689 135.379 16.8774 135.138 17.0943C134.901 17.3112 134.766 17.6119 134.731 17.9964H137.29ZM140.049 16.3844C139.832 16.5126 139.664 16.6925 139.546 16.9242V16.2661H138.873V20.3182H139.546V18.1147C139.546 17.2964 139.923 16.8872 140.677 16.8872H140.855V16.1922C140.539 16.1922 140.27 16.2563 140.049 16.3844Z" fill="#FEFEFE" fill-opacity="0.7"/>
<path fill-rule="evenodd" clip-rule="evenodd" d="M131.398 16.8207C131.387 17.0649 131.382 17.3105 131.382 17.5572C131.382 26.9143 138.967 34.4997 148.324 34.4997C157.681 34.4997 165.267 26.9143 165.267 17.5572C165.267 8.20015 157.681 0.614745 148.324 0.614746C139.402 0.614747 132.09 7.51226 131.43 16.2662H131.742V15.2458H132.415V16.2662H133.472V16.8207H132.415V19.2091C132.415 19.4063 132.457 19.5468 132.541 19.6306C132.624 19.7094 132.77 19.7489 132.977 19.7489H133.472V20.3182H132.866C132.491 20.3182 132.21 20.232 132.023 20.0594C131.836 19.8869 131.742 19.6034 131.742 19.2091V16.8207H131.398ZM153.878 17.1905C153.71 17.501 153.627 17.8633 153.627 18.2774C153.627 18.6866 153.71 19.0513 153.878 19.3718C154.046 19.6922 154.275 19.9411 154.566 20.1186C154.862 20.296 155.189 20.3848 155.549 20.3848C155.899 20.3848 156.205 20.3084 156.466 20.1555C156.727 19.9978 156.925 19.7982 157.058 19.5566V20.3182H157.738V14.8465H157.058V16.9908C156.915 16.7542 156.708 16.5644 156.437 16.4214C156.165 16.2736 155.872 16.1996 155.557 16.1996C155.192 16.1996 154.862 16.2859 154.566 16.4584C154.275 16.631 154.046 16.875 153.878 17.1905ZM156.873 17.4862C156.996 17.713 157.058 17.9792 157.058 18.2848C157.058 18.5904 156.996 18.8591 156.873 19.0908C156.75 19.3175 156.582 19.4925 156.37 19.6158C156.163 19.7341 155.934 19.7932 155.682 19.7932C155.431 19.7932 155.202 19.7341 154.995 19.6158C154.788 19.4925 154.622 19.3175 154.499 19.0908C154.376 18.8591 154.314 18.588 154.314 18.2774C154.314 17.9718 154.376 17.7056 154.499 17.4788C154.622 17.2521 154.788 17.0795 154.995 16.9612C155.202 16.8429 155.431 16.7838 155.682 16.7838C155.934 16.7838 156.163 16.8454 156.37 16.9686C156.582 17.0869 156.75 17.2595 156.873 17.4862ZM137.985 18.1369C137.985 18.2651 137.977 18.4006 137.963 18.5436H134.724C134.749 18.9429 134.884 19.2559 135.131 19.4827C135.382 19.7045 135.685 19.8154 136.04 19.8154C136.331 19.8154 136.572 19.7489 136.765 19.6158C136.962 19.4777 137.1 19.2953 137.179 19.0686H137.903C137.795 19.458 137.578 19.776 137.253 20.0225C136.927 20.264 136.523 20.3848 136.04 20.3848C135.656 20.3848 135.311 20.2985 135.005 20.126C134.704 19.9534 134.468 19.7094 134.295 19.3939C134.122 19.0735 134.036 18.7038 134.036 18.2848C134.036 17.8658 134.12 17.4985 134.288 17.1831C134.455 16.8676 134.689 16.626 134.99 16.4584C135.296 16.2859 135.646 16.1996 136.04 16.1996C136.425 16.1996 136.765 16.2834 137.06 16.451C137.356 16.6186 137.583 16.8503 137.741 17.1461C137.903 17.4369 137.985 17.7672 137.985 18.1369ZM137.29 17.9964C137.29 17.7401 137.233 17.5207 137.12 17.3383C137.006 17.151 136.851 17.0105 136.654 16.9169C136.462 16.8183 136.247 16.769 136.01 16.769C135.67 16.769 135.38 16.8774 135.138 17.0943C134.901 17.3112 134.766 17.6119 134.731 17.9964H137.29ZM140.049 16.3845C139.832 16.5126 139.664 16.6926 139.546 16.9243V16.2662H138.873V20.3182H139.546V18.1147C139.546 17.2964 139.923 16.8873 140.677 16.8873H140.855V16.1922C140.539 16.1922 140.27 16.2563 140.049 16.3845ZM141.38 18.2848C141.38 17.8658 141.464 17.501 141.631 17.1905C141.799 16.875 142.031 16.631 142.326 16.4584C142.627 16.2859 142.97 16.1996 143.354 16.1996C143.852 16.1996 144.261 16.3204 144.582 16.5619C144.907 16.8035 145.121 17.1387 145.225 17.5676H144.5C144.431 17.3211 144.296 17.1264 144.094 16.9834C143.896 16.8405 143.65 16.769 143.354 16.769C142.97 16.769 142.659 16.9021 142.423 17.1683C142.186 17.4295 142.068 17.8017 142.068 18.2848C142.068 18.7728 142.186 19.1499 142.423 19.4161C142.659 19.6823 142.97 19.8154 143.354 19.8154C143.65 19.8154 143.896 19.7464 144.094 19.6084C144.291 19.4703 144.426 19.2732 144.5 19.0168H145.225C145.117 19.4309 144.9 19.7637 144.574 20.0151C144.249 20.2615 143.842 20.3848 143.354 20.3848C142.97 20.3848 142.627 20.2985 142.326 20.126C142.031 19.9534 141.799 19.7094 141.631 19.3939C141.464 19.0785 141.38 18.7087 141.38 18.2848ZM146.123 17.1905C145.955 17.501 145.871 17.8633 145.871 18.2774C145.871 18.6866 145.955 19.0513 146.123 19.3718C146.29 19.6922 146.52 19.9411 146.81 20.1186C147.101 20.296 147.427 20.3848 147.786 20.3848C148.136 20.3848 148.442 20.3084 148.703 20.1555C148.97 19.9978 149.169 19.8006 149.302 19.564V20.3182H149.983V16.2662H149.302V17.0056C149.174 16.7739 148.979 16.5817 148.718 16.4288C148.457 16.276 148.149 16.1996 147.794 16.1996C147.434 16.1996 147.106 16.2859 146.81 16.4584C146.52 16.631 146.29 16.875 146.123 17.1905ZM149.117 17.4862C149.241 17.713 149.302 17.9792 149.302 18.2848C149.302 18.5904 149.241 18.8591 149.117 19.0908C148.994 19.3175 148.827 19.4925 148.615 19.6158C148.408 19.7341 148.178 19.7932 147.927 19.7932C147.676 19.7932 147.446 19.7341 147.239 19.6158C147.032 19.4925 146.867 19.3175 146.744 19.0908C146.621 18.8591 146.559 18.588 146.559 18.2774C146.559 17.9718 146.621 17.7056 146.744 17.4788C146.867 17.2521 147.032 17.0795 147.239 16.9612C147.446 16.8429 147.676 16.7838 147.927 16.7838C148.178 16.7838 148.408 16.8454 148.615 16.9686C148.827 17.0869 148.994 17.2595 149.117 17.4862ZM151.793 16.9243C151.911 16.6926 152.078 16.5126 152.295 16.3845C152.517 16.2563 152.786 16.1922 153.101 16.1922V16.8873H152.924C152.17 16.8873 151.793 17.2964 151.793 18.1147V20.3182H151.12V16.2662H151.793V16.9243Z" fill="white" fill-opacity="0.5"/>
<path fill-rule="evenodd" clip-rule="evenodd" d="M227.578 7.61696C225.266 7.71264 223.274 8.36271 221.821 9.49545C221.549 9.70771 221.031 10.2109 220.83 10.4578C220.14 11.307 219.743 12.2577 219.598 13.407C219.569 13.64 219.569 14.4598 219.599 14.6651C219.797 16.0455 220.553 17.1141 222.036 18.1107C222.53 18.4426 222.92 18.6672 224.041 19.2648C224.458 19.4875 224.901 19.7286 225.025 19.8006C226 20.3668 226.462 20.8152 226.613 21.3395C226.663 21.5166 226.663 21.7886 226.612 21.9767C226.45 22.5713 225.89 23.0658 225.067 23.3391C224.617 23.4884 224.139 23.5625 223.54 23.5757C222.099 23.6075 220.422 23.2507 218.988 22.6073C218.775 22.5119 218.464 22.356 218.421 22.3232C218.409 22.3143 218.395 22.3111 218.39 22.3162C218.371 22.335 217.465 26.5326 217.477 26.544C217.502 26.5662 217.881 26.7061 218.204 26.8121C219.281 27.1657 220.522 27.4244 221.688 27.5387C222.692 27.6371 223.747 27.6401 224.675 27.547C227.531 27.2606 229.813 26.0926 231.008 24.305C231.687 23.2897 232.011 22.129 231.979 20.833C231.966 20.3151 231.905 19.9353 231.765 19.5077C231.365 18.2829 230.474 17.2966 228.913 16.3525C228.557 16.1371 228.134 15.9043 227.403 15.5225C226.577 15.0908 226.266 14.9168 225.943 14.706C225.628 14.5001 225.457 14.3668 225.291 14.1961C225 13.898 224.874 13.6296 224.874 13.309C224.875 12.5987 225.585 11.9904 226.694 11.751C227.297 11.6208 228.117 11.6024 228.947 11.7005C229.897 11.8129 230.99 12.1045 231.818 12.4666C231.931 12.5161 232.025 12.5547 232.028 12.5523C232.03 12.5499 232.232 11.6439 232.476 10.5389C232.72 9.43393 232.923 8.51695 232.928 8.50117C232.939 8.46645 232.89 8.44404 232.543 8.3267C231.539 7.98718 230.298 7.74033 229.172 7.65633C229.043 7.64676 228.893 7.63529 228.838 7.63086C228.712 7.6207 227.745 7.61003 227.578 7.61696ZM187.103 7.93757C187.092 7.9702 186.995 8.52781 187 8.53262C187.003 8.53502 187.117 8.55976 187.254 8.58761C188.323 8.80464 189.427 9.11786 190.397 9.47901C191.249 9.79648 191.556 9.92335 191.851 10.0786C192.38 10.3576 192.73 10.6877 192.924 11.0908C193.083 11.4212 193.074 11.3867 193.979 14.8121C194.351 16.2185 194.685 17.4795 194.721 17.6143C194.785 17.8571 196.251 23.3971 196.405 23.9782C196.449 24.1445 196.664 24.9587 196.884 25.7877L197.282 27.2949L199.969 27.295H202.656L206.786 17.6204C209.057 12.2994 210.918 7.93937 210.921 7.93148C210.925 7.92329 209.778 7.91715 208.249 7.91715H205.571L205.543 7.98659C205.527 8.02477 204.335 10.9786 202.894 14.5507C201.453 18.1228 200.268 21.0564 200.26 21.0699C200.25 21.0872 200.245 21.0882 200.245 21.0733C200.244 21.0314 198.074 9.86526 198.033 9.69199C197.879 9.0362 197.465 8.50546 196.873 8.20404C196.58 8.05523 196.279 7.96965 195.925 7.93435C195.654 7.90744 187.113 7.91057 187.103 7.93757ZM213.072 7.96208C213.067 7.98679 212.127 12.3229 210.983 17.5979C209.838 22.8729 208.898 27.2127 208.893 27.2419L208.884 27.295H211.436H213.988L216.072 17.651C217.219 12.3468 218.16 7.98679 218.163 7.96208L218.17 7.91715H215.626H213.081L213.072 7.96208ZM241.245 7.93591C240.402 8.02167 239.782 8.50218 239.342 9.41215C239.288 9.52424 231.868 26.9553 231.738 27.2746C231.732 27.2909 232.272 27.295 234.408 27.295H237.086L237.289 26.7191C237.401 26.4023 237.633 25.7444 237.805 25.257L238.116 24.3709L241.383 24.3706C243.18 24.3705 244.65 24.3722 244.65 24.3744C244.65 24.3767 244.791 25.0329 244.963 25.8327L245.276 27.2868L247.642 27.291C249.891 27.2949 250.008 27.2937 250 27.2665C249.99 27.2356 245.884 7.93881 245.884 7.9253C245.884 7.91076 241.392 7.92104 241.245 7.93591ZM243.064 16.7795C243.495 18.7556 243.848 20.386 243.848 20.4026C243.848 20.4317 243.777 20.4327 241.727 20.4327C240.038 20.4327 239.608 20.4286 239.613 20.4123C239.715 20.1177 242.272 13.1628 242.275 13.1725C242.278 13.1801 242.633 14.8033 243.064 16.7795Z" fill="white"/>
<path d="M271 3.61475H273.844V20.4184H271V3.61475Z" fill="white"/>
<path d="M275.653 3.61475H276.946V20.4184H275.653V3.61475Z" fill="white"/>
<path d="M279.273 3.61475H281.599V20.4184H279.273V3.61475Z" fill="white"/>
<path d="M283.667 3.61475H285.219V20.4184H283.667V3.61475Z" fill="white"/>
<path d="M287.287 3.61475H290.906V20.4184H287.287V3.61475Z" fill="white"/>
<path d="M307.451 3.61475H310.553V20.4184H307.451V3.61475Z" fill="white"/>
<path d="M293.491 3.61475H295.818V20.4184H293.491V3.61475Z" fill="white"/>
<path d="M312.621 3.61475H314.69V20.4184H312.621V3.61475Z" fill="white"/>
<path d="M298.144 3.61475H299.954V20.4184H298.144V3.61475Z" fill="white"/>
<path d="M316.758 3.61475H318.309V20.4184H316.758V3.61475Z" fill="white"/>
<path d="M302.798 3.61475H304.607V20.4184H302.798V3.61475Z" fill="white"/>
<path d="M320.636 3.61475H323.479V20.4184H320.636V3.61475Z" fill="white"/>
<path d="M276.578 27.1134C277.012 27.2543 277.357 27.4918 277.612 27.8257C277.867 28.1522 277.994 28.5603 277.994 29.0501C277.994 29.7253 277.732 30.2485 277.207 30.6195C276.682 30.9831 275.918 31.1649 274.913 31.1649H271V23.3735H274.688C275.618 23.3735 276.334 23.5553 276.836 23.9189C277.338 24.275 277.59 24.7685 277.59 25.3992C277.59 25.7851 277.5 26.1264 277.32 26.4233C277.14 26.7201 276.892 26.9501 276.578 27.1134ZM272.462 24.5088V26.657H274.531C275.041 26.657 275.431 26.5679 275.7 26.3899C275.978 26.2043 276.116 25.9372 276.116 25.5885C276.116 25.2323 275.978 24.9651 275.7 24.787C275.431 24.6015 275.041 24.5088 274.531 24.5088H272.462ZM274.823 30.0296C275.955 30.0296 276.521 29.6548 276.521 28.9054C276.521 28.1559 275.955 27.7812 274.823 27.7812H272.462V30.0296H274.823Z" fill="white"/>
<path d="M284.356 31.2763C283.554 31.2763 282.831 31.1056 282.186 30.7643C281.541 30.4155 281.035 29.9369 280.668 29.3285C280.3 28.7126 280.117 28.0262 280.117 27.2693C280.117 26.5124 280.3 25.8297 280.668 25.2212C281.035 24.6053 281.541 24.1267 282.186 23.7854C282.831 23.4366 283.554 23.2622 284.356 23.2622C285.158 23.2622 285.882 23.4366 286.526 23.7854C287.171 24.1267 287.677 24.6016 288.045 25.2101C288.412 25.8186 288.596 26.505 288.596 27.2693C288.596 28.0336 288.412 28.72 288.045 29.3285C287.677 29.9369 287.171 30.4155 286.526 30.7643C285.882 31.1056 285.158 31.2763 284.356 31.2763ZM284.356 30.0074C284.881 30.0074 285.353 29.8924 285.773 29.6624C286.193 29.4249 286.523 29.0984 286.763 28.6829C287.002 28.2599 287.122 27.7887 287.122 27.2693C287.122 26.7499 287.002 26.2824 286.763 25.8668C286.523 25.4439 286.193 25.1174 285.773 24.8873C285.353 24.6499 284.881 24.5311 284.356 24.5311C283.831 24.5311 283.359 24.6499 282.939 24.8873C282.519 25.1174 282.19 25.4439 281.95 25.8668C281.71 26.2824 281.59 26.7499 281.59 27.2693C281.59 27.7887 281.71 28.2599 281.95 28.6829C282.19 29.0984 282.519 29.4249 282.939 29.6624C283.359 29.8924 283.831 30.0074 284.356 30.0074Z" fill="white"/>
<path d="M291.27 23.3735H292.731V29.9405H296.847V31.1649H291.27V23.3735Z" fill="white"/>
<path d="M305.029 29.9517V31.1649H299.126V23.3735H304.872V24.5867H300.588V26.6125H304.388V27.8035H300.588V29.9517H305.029Z" fill="white"/>
<path d="M309.38 24.5978H306.771V23.3735H313.451V24.5978H310.842V31.1649H309.38V24.5978Z" fill="white"/>
<path d="M319.24 31.2763C318.438 31.2763 317.714 31.1056 317.07 30.7643C316.425 30.4155 315.919 29.9369 315.551 29.3285C315.184 28.7126 315 28.0262 315 27.2693C315 26.5124 315.184 25.8297 315.551 25.2212C315.919 24.6053 316.425 24.1267 317.07 23.7854C317.714 23.4366 318.438 23.2622 319.24 23.2622C320.042 23.2622 320.765 23.4366 321.41 23.7854C322.055 24.1267 322.561 24.6016 322.928 25.2101C323.296 25.8186 323.479 26.505 323.479 27.2693C323.479 28.0336 323.296 28.72 322.928 29.3285C322.561 29.9369 322.055 30.4155 321.41 30.7643C320.765 31.1056 320.042 31.2763 319.24 31.2763ZM319.24 30.0074C319.765 30.0074 320.237 29.8924 320.657 29.6624C321.077 29.4249 321.406 29.0984 321.646 28.6829C321.886 28.2599 322.006 27.7887 322.006 27.2693C322.006 26.7499 321.886 26.2824 321.646 25.8668C321.406 25.4439 321.077 25.1174 320.657 24.8873C320.237 24.6499 319.765 24.5311 319.24 24.5311C318.715 24.5311 318.243 24.6499 317.823 24.8873C317.403 25.1174 317.073 25.4439 316.833 25.8668C316.594 26.2824 316.474 26.7499 316.474 27.2693C316.474 27.7887 316.594 28.2599 316.833 28.6829C317.073 29.0984 317.403 29.4249 317.823 29.6624C318.243 29.8924 318.715 30.0074 319.24 30.0074Z" fill="white"/>
<path fill-rule="evenodd" clip-rule="evenodd" d="M347.487 7.13869C347.564 6.95311 347.723 6.77912 347.899 6.68919L348.041 6.61621L351.665 6.6268C354.871 6.63619 355.319 6.64321 355.559 6.68769C356.334 6.83145 356.838 6.9863 357.319 7.2279C358.451 7.7965 359.119 8.70049 359.381 10.0185C359.46 10.4113 359.49 11.3351 359.441 11.8362C359.305 13.2234 358.925 14.5431 358.388 15.4945C357.504 17.0614 356.136 18.0084 354.246 18.3606C353.649 18.472 353.332 18.492 351.864 18.5112L350.409 18.5303L350.257 18.6202C350.095 18.7164 349.964 18.8703 349.896 19.0436C349.873 19.1023 349.7 20.1983 349.511 21.4791L349.51 21.486C349.185 23.6953 349.143 23.9763 348.993 24.148C348.972 24.173 348.947 24.1957 348.92 24.2217L348.919 24.2223C348.862 24.2762 348.756 24.3492 348.685 24.3846C348.559 24.447 348.511 24.4491 347.014 24.4582C345.967 24.4645 345.44 24.457 345.368 24.4345C345.145 24.3647 345 24.1621 345 23.9207C345 23.842 345.547 20.0654 346.215 15.5284C347.101 9.50535 347.445 7.24123 347.487 7.13869ZM354.917 11.475C354.766 10.7924 354.326 10.4141 353.503 10.2601C353.305 10.2231 352.998 10.2062 352.349 10.1966C351.466 10.1835 351.465 10.1836 351.351 10.254L351.349 10.2548C351.322 10.2719 351.298 10.2868 351.276 10.3049C351.132 10.4256 351.093 10.6914 350.796 12.7263L350.794 12.7401C350.621 13.9182 350.481 14.8911 350.481 14.902C350.481 14.9426 352.653 14.8909 352.892 14.8446C353.541 14.7186 353.926 14.5286 354.261 14.169C354.509 13.9037 354.651 13.652 354.777 13.2592C354.942 12.7447 355.009 11.8925 354.917 11.475ZM361.759 13.2777C362.518 12.7752 363.396 12.4342 364.246 12.3121C364.62 12.2586 365.421 12.2485 365.833 12.2923C367.157 12.4331 367.988 12.8384 368.474 13.5802C368.56 13.7119 368.636 13.8148 368.641 13.8087C368.647 13.8026 368.679 13.6132 368.712 13.3877C368.787 12.882 368.837 12.7504 368.998 12.6368L369.119 12.5507L370.641 12.542C371.661 12.5363 372.2 12.5442 372.277 12.5661C372.339 12.5842 372.435 12.6463 372.489 12.7042C372.503 12.7196 372.517 12.7316 372.53 12.7426C372.541 12.7526 372.551 12.7618 372.561 12.7722C372.679 12.9011 372.635 13.2019 372.037 17.2566C371.984 17.617 371.926 18.0072 371.864 18.4295C371.257 22.5504 371.058 23.8378 371.012 23.943C370.934 24.1204 370.764 24.3006 370.597 24.3832C370.468 24.4471 370.428 24.449 369.06 24.4578C368.125 24.4638 367.618 24.4558 367.542 24.4341C367.39 24.3903 367.241 24.2347 367.196 24.0715C367.163 23.9561 367.167 23.8859 367.221 23.5228C367.256 23.2938 367.284 23.0863 367.284 23.0617C367.284 23.0361 367.22 23.0825 367.134 23.1707C366.514 23.8067 365.639 24.3102 364.72 24.5593C363.698 24.8363 362.469 24.7935 361.497 24.447C360.132 23.9607 359.131 22.7413 358.743 21.0929C358.346 19.4022 358.665 17.3146 359.568 15.7008C360.12 14.7142 360.911 13.8397 361.759 13.2777ZM374.045 13.0781C374.045 12.8662 374.213 12.6301 374.41 12.565C374.452 12.5509 375.186 12.542 376.042 12.545L377.596 12.5507L377.725 12.6226C377.886 12.7127 378.056 12.8842 378.124 13.024C378.152 13.083 378.551 14.4764 379.009 16.1205C379.468 17.7647 379.852 19.1274 379.862 19.1488C379.874 19.1724 380.657 17.9606 381.863 16.0545C382.952 14.3313 383.893 12.8675 383.954 12.8016C384.014 12.7357 384.123 12.6523 384.196 12.6162C384.326 12.5521 384.363 12.5505 385.884 12.5412C386.945 12.5347 387.472 12.5422 387.544 12.5649C387.671 12.6047 387.81 12.7243 387.867 12.8426C387.917 12.9458 387.922 13.2144 387.876 13.3078C387.815 13.4322 378.23 28.2618 378.156 28.3479C378.115 28.395 378.004 28.4742 377.91 28.5241L377.738 28.6146L376.11 28.6063L374.482 28.5979L374.378 28.5124C374.197 28.3654 374.126 28.1356 374.194 27.9257C374.216 27.8592 374.902 26.7944 375.718 25.5596C376.534 24.3248 377.211 23.2985 377.223 23.2788C377.234 23.2591 376.524 20.9776 375.644 18.2088C374.764 15.4399 374.045 13.1311 374.045 13.0781ZM368.027 17.0884C367.779 16.3141 367.187 15.7779 366.387 15.6025C366.157 15.5522 365.624 15.5203 365.415 15.5444C364.645 15.6334 363.882 16.0295 363.394 16.5927C362.787 17.2937 362.444 18.3108 362.5 19.2441C362.537 19.8635 362.731 20.3591 363.085 20.7406C363.41 21.0903 363.766 21.2908 364.26 21.4004C364.609 21.4781 365.241 21.4734 365.6 21.3905C366.785 21.1172 367.636 20.2997 368.006 19.0794C368.216 18.3842 368.224 17.7012 368.027 17.0884Z" fill="white"/>
<path d="M418.472 6.6938C418.394 6.74371 418.334 6.81458 418.296 6.89945C418.254 6.9958 417.924 9.18136 417.01 15.4339C416.333 20.0566 415.78 23.8839 415.78 23.939C415.782 24.1666 415.937 24.3718 416.154 24.4344C416.229 24.4561 416.715 24.464 417.6 24.458L418.933 24.449L419.084 24.3762C419.281 24.2811 419.474 24.0526 419.533 23.8441C419.582 23.6727 422 7.28096 422 7.12085C422 6.97081 421.884 6.76443 421.755 6.68623L421.643 6.61811L420.117 6.6179L418.591 6.61768L418.472 6.6938Z" fill="#FEFEFE" fill-opacity="0.7"/>
<path fill-rule="evenodd" clip-rule="evenodd" d="M407.251 12.2801C407.212 12.2861 407.064 12.3065 406.923 12.3253C406.782 12.3441 406.519 12.3982 406.338 12.4455C403.825 13.1035 401.915 15.3479 401.418 18.2247C401.162 19.7068 401.312 21.0403 401.867 22.2231C402.673 23.9397 404.187 24.8048 406.253 24.7295C406.751 24.7113 407.058 24.6643 407.522 24.5348C408.319 24.3124 409.145 23.8439 409.762 23.264C409.895 23.1386 410.008 23.0395 410.012 23.0439C410.016 23.0482 409.994 23.2219 409.962 23.4299C409.93 23.6379 409.904 23.86 409.904 23.9234C409.904 24.1652 410.053 24.3696 410.277 24.434C410.352 24.4557 410.856 24.4637 411.781 24.4577L413.171 24.4487L413.334 24.3631C413.539 24.2552 413.712 24.0486 413.77 23.8422C413.828 23.6374 415.353 13.2586 415.353 13.0721C415.353 12.8313 415.21 12.6329 414.988 12.5672C414.838 12.5225 412.01 12.5245 411.859 12.5693C411.797 12.5879 411.699 12.6531 411.641 12.7143C411.526 12.8372 411.506 12.9105 411.422 13.5073L411.373 13.8539L411.236 13.6392C410.735 12.8548 409.898 12.4367 408.539 12.2922C408.265 12.263 407.413 12.255 407.251 12.2801ZM410.716 19.1199C411.237 17.4546 410.594 15.9822 409.188 15.6166C408.952 15.5553 408.331 15.5136 408.107 15.5441C406.512 15.7614 405.389 17.0091 405.228 18.744C405.143 19.6532 405.434 20.4813 405.999 20.9394C406.577 21.4074 407.421 21.5757 408.299 21.3976C409.443 21.1656 410.341 20.3186 410.716 19.1199Z" fill="#FEFEFE" fill-opacity="0.7"/>
<path fill-rule="evenodd" clip-rule="evenodd" d="M390.599 6.70917C390.412 6.80902 390.31 6.91571 390.218 7.1098C390.175 7.19995 389.866 9.23197 388.931 15.5891C387.824 23.1209 387.705 23.9618 387.735 24.07C387.778 24.2233 387.934 24.3909 388.073 24.4319C388.229 24.4783 391.265 24.4756 391.438 24.4289C391.607 24.3835 391.8 24.19 391.844 24.0218C391.861 23.9547 392.03 22.8427 392.218 21.5506C392.407 20.2586 392.581 19.1411 392.607 19.0672C392.664 18.9004 392.814 18.7201 392.983 18.6141C393.136 18.5181 393.083 18.5213 394.827 18.503C396.139 18.4891 396.495 18.4605 397.181 18.3138C397.987 18.1413 398.661 17.8726 399.263 17.4835C400.765 16.5137 401.709 14.8405 402.071 12.505C402.382 10.4947 402.078 9.0423 401.133 8.0356C400.483 7.34377 399.6 6.92532 398.312 6.70026C397.945 6.63604 397.862 6.63446 394.356 6.62472L390.775 6.61475L390.599 6.70917ZM397.072 10.5764C396.913 10.4599 396.558 10.3213 396.26 10.2601C395.968 10.2004 394.243 10.1669 394.128 10.2188C394.034 10.2617 393.933 10.3646 393.881 10.472C393.857 10.5201 393.694 11.536 393.518 12.7296L393.197 14.8999L394.069 14.909C394.953 14.9181 395.423 14.89 395.808 14.805C396.898 14.5642 397.468 13.8688 397.65 12.5564C397.783 11.6014 397.596 10.9622 397.072 10.5764Z" fill="#FEFEFE" fill-opacity="0.7"/>
</g>
</g>
<defs>
<clipPath id="clip0_213_206">
<rect width="422" height="35" fill="white"/>
</clipPath>
</defs>
</svg>
