<svg width="30" height="31" viewBox="0 0 30 31" fill="none" xmlns="http://www.w3.org/2000/svg">
<g id="Icon">
<path id="Vector" d="M12.2555 2.75005L8.89554 9.86005L1.39554 11.0001C0.995536 11.0401 0.660536 11.2401 0.390536 11.6001C0.120536 11.9601 -0.00946429 12.3701 0.000535714 12.8301C0.0105357 13.2901 0.175536 13.6801 0.495536 14.0001L5.89554 19.4901L4.63554 27.3801C4.55554 27.8201 4.63554 28.2151 4.87554 28.5651C5.11554 28.9151 5.44054 29.1451 5.85054 29.2551C6.26054 29.3651 6.64554 29.3201 7.00554 29.1201L13.7555 25.6101L20.5055 29.1201C20.9055 29.3201 21.3105 29.3651 21.7205 29.2551C22.1305 29.1451 22.4455 28.9151 22.6655 28.5651C22.8855 28.2151 22.9555 27.8201 22.8755 27.3801L21.6455 19.4901L27.0155 14.0001C27.3355 13.6801 27.5005 13.3001 27.5105 12.8601C27.5205 12.4201 27.3955 12.0201 27.1355 11.6601C26.8755 11.3001 26.5455 11.0801 26.1455 11.0001L18.6455 9.86005L15.2555 2.75005C15.0555 2.35005 14.7555 2.07505 14.3555 1.92505C13.9555 1.77505 13.5555 1.77505 13.1555 1.92505C12.7555 2.07505 12.4555 2.35005 12.2555 2.75005Z" fill="#FFE200"/>
</g>
</svg>
