   <svg
                  xmlns="http://www.w3.org/2000/svg"
                  width="32"
                  height="32"
                  viewBox="0 0 15 15"
                  fill="none"
                >
                  <path
                    d="M8.90625 7.03125H7.96875V3.28125H8.4375C8.93478 3.28125 9.41169 3.47879 9.76332 3.83042C10.115 4.18206 10.3125 4.65897 10.3125 5.15625C10.3125 5.28057 10.3619 5.3998 10.4498 5.48771C10.5377 5.57561 10.6569 5.625 10.7812 5.625C10.9056 5.625 11.0248 5.57561 11.1127 5.48771C11.2006 5.3998 11.25 5.28057 11.25 5.15625C11.2492 4.41057 10.9527 3.69565 10.4254 3.16837C9.8981 2.64109 9.18318 2.34453 8.4375 2.34375H7.96875V1.40625C7.96875 1.28193 7.91936 1.1627 7.83146 1.07479C7.74355 0.986886 7.62432 0.9375 7.5 0.9375C7.37568 0.9375 7.25645 0.986886 7.16854 1.07479C7.08064 1.1627 7.03125 1.28193 7.03125 1.40625V2.34375H6.5625C5.81658 2.34375 5.10121 2.64007 4.57376 3.16751C4.04632 3.69496 3.75 4.41033 3.75 5.15625C3.75 5.90217 4.04632 6.61754 4.57376 7.14499C5.10121 7.67243 5.81658 7.96875 6.5625 7.96875H7.03125V11.7188H6.09375C5.59647 11.7188 5.11956 11.5212 4.76792 11.1696C4.41629 10.8179 4.21875 10.341 4.21875 9.84375C4.21875 9.71943 4.16936 9.6002 4.08146 9.51229C3.99355 9.42439 3.87432 9.375 3.75 9.375C3.62568 9.375 3.50645 9.42439 3.41854 9.51229C3.33064 9.6002 3.28125 9.71943 3.28125 9.84375C3.28203 10.5894 3.57859 11.3044 4.10587 11.8316C4.63315 12.3589 5.34807 12.6555 6.09375 12.6562H7.03125V13.5938C7.03125 13.7181 7.08064 13.8373 7.16854 13.9252C7.25645 14.0131 7.37568 14.0625 7.5 14.0625C7.62432 14.0625 7.74355 14.0131 7.83146 13.9252C7.91936 13.8373 7.96875 13.7181 7.96875 13.5938V12.6562H8.90625C9.65217 12.6562 10.3675 12.3599 10.895 11.8325C11.4224 11.305 11.7188 10.5897 11.7188 9.84375C11.7188 9.09783 11.4224 8.38246 10.895 7.85501C10.3675 7.32757 9.65217 7.03125 8.90625 7.03125ZM6.5625 7.03125C6.06522 7.03125 5.58831 6.83371 5.23667 6.48208C4.88504 6.13044 4.6875 5.65353 4.6875 5.15625C4.6875 4.65897 4.88504 4.18206 5.23667 3.83042C5.58831 3.47879 6.06522 3.28125 6.5625 3.28125H7.03125V7.03125H6.5625ZM8.90625 11.7188H7.96875V7.96875H8.90625C9.40353 7.96875 9.88044 8.16629 10.2321 8.51793C10.5837 8.86956 10.7812 9.34647 10.7812 9.84375C10.7812 10.341 10.5837 10.8179 10.2321 11.1696C9.88044 11.5212 9.40353 11.7188 8.90625 11.7188Z"
                    fill="#01B7D0"
                  />
                </svg>