<svg width="369" height="801" viewBox="0 0 369 801" fill="none" xmlns="http://www.w3.org/2000/svg">
<g opacity="0.3">
<mask id="mask0_11634_77" style="mask-type:alpha" maskUnits="userSpaceOnUse" x="0" y="0" width="859" height="801">
<path d="M0.15625 0H858.665V800.25H0.15625V0Z" fill="url(#paint0_linear_11634_77)"/>
</mask>
<g mask="url(#mask0_11634_77)">
<path opacity="0.3" d="M32.3195 164.291L33.5291 164.191L33.4239 162.929L32.1674 163.087L32.3195 164.291ZM48.9158 192.354L48.2472 193.367L48.2565 193.373L48.9158 192.354ZM89.954 202.614L89.9397 203.827L89.9469 203.828H89.954V202.614ZM134.311 192.656L133.67 191.626L133.661 191.631L134.311 192.656ZM143.967 148.6L143.156 149.503L143.166 149.512L143.178 149.522L143.967 148.6ZM127.673 139.85L127.258 140.99L127.279 140.998L127.299 141.004L127.673 139.85ZM104.74 134.418L104.54 135.615L104.556 135.618L104.572 135.62L104.74 134.418ZM78.4875 130.194L78.2703 131.388L78.2856 131.39L78.3009 131.393L78.4875 130.194ZM52.2351 124.762L51.9276 125.936L51.9438 125.94L51.9602 125.944L52.2351 124.762ZM29.302 115.709L28.6964 116.761L28.7031 116.765L28.7099 116.769L29.302 115.709ZM13.0074 100.924L11.9876 101.582L12 101.601L12.0131 101.62L13.0074 100.924ZM13.3092 49.9277L12.2457 49.3428L12.2405 49.3523L13.3092 49.9277ZM31.4143 30.0121L32.0996 31.0138L31.4143 30.0121ZM58.2701 18.2439L58.5699 19.42H58.5699L58.2701 18.2439ZM91.161 14.6228L91.1835 13.4093L91.1819 13.4093L91.161 14.6228ZM121.336 18.5456L121.03 19.72L121.036 19.7216L121.336 18.5456ZM146.08 29.4086L145.393 30.4096L145.41 30.4208L145.426 30.4315L146.08 29.4086ZM163.581 46.9102L162.554 47.5561L163.581 46.9102ZM171.427 71.6538L171.593 72.8561L172.734 72.6983L172.636 71.5509L171.427 71.6538ZM143.062 75.5766L141.854 75.6928L141.975 76.9522L143.229 76.7789L143.062 75.5766ZM129.483 51.1347L130.196 50.1521V50.1521L129.483 51.1347ZM50.7263 51.7382L51.3794 52.7613L51.3848 52.7578L50.7263 51.7382ZM42.5791 90.9659L41.8209 91.9137L41.8467 91.9343L41.8736 91.9535L42.5791 90.9659ZM58.8736 98.5097L58.5216 99.6712L58.5422 99.6775L58.563 99.683L58.8736 98.5097ZM81.8067 103.036L81.6351 104.237L81.639 104.238L81.8067 103.036ZM108.059 106.959L107.868 108.157L107.873 108.158L108.059 106.959ZM134.311 112.39L134.004 113.564L134.011 113.566L134.311 112.39ZM157.245 122.046L156.593 123.07L156.611 123.082L156.629 123.092L157.245 122.046ZM173.539 137.737L172.51 138.381L172.517 138.392L172.524 138.403L173.539 137.737ZM175.953 185.414L174.799 185.039L174.796 185.048L174.793 185.057L175.953 185.414ZM162.073 207.442L161.214 206.584L162.073 207.442ZM134.613 224.038L135.033 225.177L135.044 225.173L134.613 224.038ZM48.9158 224.943L48.532 226.095L48.9158 224.943ZM22.6635 210.761L21.8334 211.647L21.8476 211.66L21.8623 211.673L22.6635 210.761ZM8.78293 190.544L9.91811 190.114L8.78293 190.544ZM3.65316 167.912L3.50105 166.708L2.35205 166.853L2.44319 168.008L3.65316 167.912ZM31.11 164.392C32.1466 176.831 37.8764 186.523 48.2473 193.367L49.5844 191.341C39.8385 184.909 34.5042 175.892 33.5291 164.191L31.11 164.392ZM48.2565 193.373C58.7707 200.177 72.6991 203.625 89.9397 203.827L89.9683 201.4C73.0105 201.201 59.5801 197.809 49.5752 191.335L48.2565 193.373ZM89.954 203.828C109.18 203.828 124.228 200.493 134.962 193.681L133.661 191.631C123.474 198.096 108.95 201.4 89.954 201.4V203.828ZM134.953 193.686C145.981 186.82 151.518 176.667 151.518 163.386H149.091C149.091 175.855 143.965 185.215 133.67 191.626L134.953 193.686ZM151.518 163.386C151.518 156.844 149.285 151.56 144.757 147.679L143.178 149.522C147.099 152.883 149.091 157.456 149.091 163.386H151.518ZM144.779 147.698C140.595 143.932 134.998 140.944 128.047 138.695L127.299 141.004C134.027 143.181 139.293 146.026 143.156 149.503L144.779 147.698ZM128.088 138.709C121.353 136.26 113.623 134.432 104.908 133.216L104.572 135.62C113.157 136.818 120.716 138.611 127.258 140.99L128.088 138.709ZM104.939 133.221C96.4857 131.812 87.7306 130.403 78.674 128.994L78.3009 131.393C87.3494 132.8 96.0959 134.208 104.54 135.615L104.939 133.221ZM78.7046 128.999C69.8723 127.394 61.1408 125.587 52.51 123.58L51.9602 125.944C60.6298 127.96 69.3999 129.775 78.2703 131.388L78.7046 128.999ZM52.5426 123.588C44.1817 121.398 36.6346 118.417 29.8941 114.65L28.7099 116.769C35.6488 120.647 43.3904 123.7 51.9276 125.936L52.5426 123.588ZM29.9076 114.658C23.4169 110.921 18.1202 106.111 14.0018 100.228L12.0131 101.62C16.3437 107.806 21.9101 112.854 28.6964 116.761L29.9076 114.658ZM14.0273 100.266C10.1585 94.269 8.18615 86.7667 8.18615 77.6888H5.75869C5.75869 87.1184 7.8097 95.106 11.9876 101.582L14.0273 100.266ZM8.18615 77.6888C8.18615 67.1885 10.2656 58.1402 14.3778 50.5031L12.2405 49.3523C7.90375 57.4063 5.75869 66.8654 5.75869 77.6888H8.18615ZM14.3727 50.5126C18.7059 42.6341 24.6108 36.1378 32.0996 31.0138L30.7289 29.0104C22.929 34.3472 16.7639 41.128 12.2457 49.3428L14.3727 50.5126ZM32.0996 31.0138C39.6112 25.8744 48.4287 22.005 58.5699 19.42L57.9703 17.0677C47.5925 19.7131 38.5061 23.6892 30.7289 29.0104L32.0996 31.0138ZM58.5699 19.42C68.7146 16.8341 79.5696 15.6369 91.1401 15.8364L91.1819 13.4093C79.417 13.2064 68.3447 14.4233 57.9703 17.0677L58.5699 19.42ZM91.1385 15.8364C101.918 16.036 111.88 17.3332 121.03 19.72L121.643 17.3712C112.284 14.93 102.13 13.612 91.1835 13.4093L91.1385 15.8364ZM121.036 19.7216C130.372 22.1053 138.485 25.6728 145.393 30.4096L146.766 28.4077C139.592 23.4885 131.21 19.8139 121.636 17.3696L121.036 19.7216ZM145.426 30.4315C152.523 34.9651 158.227 40.6721 162.554 47.5561L164.609 46.2643C160.085 39.0666 154.121 33.1059 146.733 28.3858L145.426 30.4315ZM162.554 47.5561C166.863 54.4113 169.427 62.4674 170.217 71.7567L172.636 71.5509C171.817 61.9305 169.151 53.4909 164.609 46.2643L162.554 47.5561ZM171.261 70.4515L142.896 74.3743L143.229 76.7789L171.593 72.8561L171.261 70.4515ZM144.27 75.4604C143.233 64.6757 138.542 56.2032 130.196 50.1521L128.771 52.1174C136.518 57.734 140.879 65.5561 141.854 75.6928L144.27 75.4604ZM130.196 50.1521C121.836 44.0913 108.746 41.1702 91.161 41.1702V43.5977C108.579 43.5977 121.037 46.5104 128.771 52.1174L130.196 50.1521ZM91.161 41.1702C73.7372 41.1702 59.9958 44.3069 50.0679 50.7187L51.3848 52.7578C60.769 46.6972 73.984 43.5977 91.161 43.5977V41.1702ZM50.0733 50.7152C40.2673 56.9743 35.3303 66.0113 35.3303 77.6888H37.7578C37.7578 66.8356 42.2756 58.5722 51.3794 52.7613L50.0733 50.7152ZM35.3303 77.6888C35.3303 83.651 37.4803 88.4412 41.8209 91.9137L43.3373 90.0181C39.6312 87.0533 37.7578 82.9921 37.7578 77.6888H35.3303ZM41.8736 91.9535C46.235 95.0688 51.7964 97.6333 58.5216 99.6712L59.2256 97.3481C52.6738 95.3627 47.3722 92.898 43.2845 89.9782L41.8736 91.9535ZM58.563 99.683C65.4566 101.508 73.1484 103.025 81.6351 104.237L81.9784 101.834C73.567 100.633 65.97 99.1326 59.1842 97.3364L58.563 99.683ZM81.639 104.238C90.2813 105.444 99.0245 106.75 107.868 108.157L108.25 105.76C99.391 104.351 90.6325 103.042 81.9745 101.834L81.639 104.238ZM107.873 108.158C116.886 109.56 125.597 111.362 134.004 113.564L134.619 111.216C126.128 108.992 117.337 107.174 108.246 105.759L107.873 108.158ZM134.011 113.566C142.553 115.751 150.076 118.923 156.593 123.07L157.896 121.022C151.136 116.72 143.37 113.455 134.612 111.214L134.011 113.566ZM156.629 123.092C163.308 127.021 168.595 132.116 172.51 138.381L174.568 137.094C170.437 130.483 164.86 125.118 157.86 121L156.629 123.092ZM172.524 138.403C176.585 144.59 178.662 152.588 178.662 162.481H181.09C181.09 152.257 178.942 143.759 174.554 137.071L172.524 138.403ZM178.662 162.481C178.662 169.576 177.381 177.093 174.799 185.039L177.107 185.789C179.755 177.641 181.09 169.87 181.09 162.481H178.662ZM174.793 185.057C172.447 192.682 167.939 199.859 161.214 206.584L162.931 208.3C169.886 201.345 174.631 193.837 177.113 185.771L174.793 185.057ZM161.214 206.584C154.73 213.068 145.74 218.52 134.183 222.903L135.044 225.173C146.822 220.705 156.138 215.093 162.931 208.3L161.214 206.584ZM134.194 222.899C122.91 227.057 108.28 229.161 90.2558 229.161V231.589C108.442 231.589 123.384 229.469 135.033 225.177L134.194 222.899ZM90.2558 229.161C73.6351 229.161 59.9963 227.358 49.2997 223.792L48.532 226.095C59.5615 229.771 73.4826 231.589 90.2558 231.589V229.161ZM49.2997 223.792C38.5469 220.208 29.9513 215.55 23.4647 209.849L21.8623 211.673C28.6528 217.64 37.5587 222.437 48.532 226.095L49.2997 223.792ZM23.4936 209.876C17.1765 203.953 12.662 197.366 9.91811 190.114L7.64775 190.973C10.5365 198.608 15.2757 205.499 21.8334 211.647L23.4936 209.876ZM9.91811 190.114C7.1408 182.774 5.45726 175.343 4.86312 167.817L2.44319 168.008C3.05606 175.771 4.79237 183.427 7.64775 190.973L9.91811 190.114ZM3.80526 169.117L32.4716 165.496L32.1674 163.087L3.50105 166.708L3.80526 169.117ZM245.292 226.15L244.922 227.306L244.936 227.311L244.95 227.315L245.292 226.15ZM218.738 211.666L217.944 212.584L217.95 212.59L217.956 212.595L218.738 211.666ZM200.633 187.526L199.53 188.032L199.534 188.041L199.538 188.051L200.633 187.526ZM200.633 119.331L199.538 118.806L199.534 118.815L199.53 118.825L200.633 119.331ZM218.738 95.1904L217.956 94.262L217.95 94.2672L217.944 94.2724L218.738 95.1904ZM245.292 81.0081L245.641 82.1706L245.648 82.1685L245.656 82.1662L245.292 81.0081ZM309.263 81.0081L308.894 82.1641L309.263 81.0081ZM335.818 95.4922L335.036 96.4206L335.043 96.4267L335.05 96.4326L335.818 95.4922ZM353.923 119.331L352.819 119.836L352.824 119.846L352.828 119.855L353.923 119.331ZM353.923 187.526L352.828 187.002L352.824 187.011L352.819 187.021L353.923 187.526ZM335.818 211.666L335.036 210.738L335.818 211.666ZM309.263 226.15L309.612 227.313L309.623 227.31L309.633 227.306L309.263 226.15ZM257.061 104.545L256.677 103.393L256.666 103.397L257.061 104.545ZM239.861 114.502L239.059 113.591L239.05 113.599L239.041 113.608L239.861 114.502ZM228.092 131.099L229.191 131.614L229.194 131.608L229.197 131.601L228.092 131.099ZM227.791 176.663L226.673 177.137L226.679 177.15L227.791 176.663ZM256.155 202.312L255.761 203.46L255.782 203.467L255.803 203.474L256.155 202.312ZM297.797 202.312L298.159 203.471L298.17 203.467L298.181 203.464L297.797 202.312ZM314.997 192.656L315.796 193.569L315.799 193.567L314.997 192.656ZM326.765 176.361L325.66 175.859L325.657 175.867L325.653 175.875L326.765 176.361ZM326.765 131.099L325.648 131.573L325.657 131.594L325.666 131.614L326.765 131.099ZM314.997 114.804L314.195 115.715L314.205 115.725L314.216 115.734L314.997 114.804ZM297.797 104.846L297.371 105.983L297.387 105.989L297.402 105.994L297.797 104.846ZM277.278 229.463C266.326 229.463 255.779 227.97 245.635 224.986L244.95 227.315C255.324 230.366 266.102 231.89 277.278 231.89V229.463ZM245.662 224.994C235.746 221.821 227.036 217.068 219.52 210.738L217.956 212.595C225.729 219.14 234.722 224.042 244.922 227.306L245.662 224.994ZM219.532 210.748C212.226 204.429 206.289 196.521 201.728 187.002L199.538 188.051C204.231 197.844 210.364 206.029 217.944 212.584L219.532 210.748ZM201.736 187.021C197.398 177.555 195.208 166.369 195.208 153.428H192.781C192.781 166.639 195.017 178.185 199.53 188.032L201.736 187.021ZM195.208 153.428C195.208 140.488 197.398 129.301 201.736 119.836L199.53 118.825C195.017 128.672 192.781 140.217 192.781 153.428H195.208ZM201.728 119.855C206.289 110.336 212.226 102.427 219.532 96.1084L217.944 94.2724C210.364 100.828 204.231 109.013 199.538 118.806L201.728 119.855ZM219.52 96.1188C227.031 89.7936 235.733 85.143 245.641 82.1706L244.943 79.8456C234.734 82.9083 225.734 87.7125 217.956 94.262L219.52 96.1188ZM245.656 82.1662C255.794 78.9855 266.333 77.3938 277.278 77.3938V74.9664C266.094 74.9664 255.309 76.5934 244.929 79.85L245.656 82.1662ZM277.278 77.3938C288.426 77.3938 298.963 78.9861 308.894 82.1641L309.633 79.8521C299.448 76.5927 288.66 74.9664 277.278 74.9664V77.3938ZM308.894 82.1641C318.81 85.3373 327.519 90.0909 335.036 96.4206L336.599 94.5638C328.827 88.0187 319.834 83.1163 309.633 79.8521L308.894 82.1641ZM335.05 96.4326C342.54 102.543 348.465 110.336 352.819 119.836L355.026 118.825C350.529 109.013 344.384 100.914 336.585 94.5517L335.05 96.4326ZM352.828 119.855C357.361 129.315 359.649 140.495 359.649 153.428H362.077C362.077 140.21 359.738 128.658 355.017 118.806L352.828 119.855ZM359.649 153.428C359.649 166.362 357.361 177.542 352.828 187.002L355.017 188.051C359.738 178.199 362.077 166.646 362.077 153.428H359.649ZM352.819 187.021C348.464 196.524 342.535 204.423 335.036 210.738L336.599 212.595C344.389 206.035 350.53 197.84 355.026 188.032L352.819 187.021ZM335.036 210.738C327.519 217.068 318.81 221.821 308.894 224.994L309.633 227.306C319.834 224.042 328.827 219.14 336.599 212.595L335.036 210.738ZM308.915 224.988C298.977 227.969 288.434 229.463 277.278 229.463V231.89C288.653 231.89 299.433 230.367 309.612 227.313L308.915 224.988ZM277.278 100.012C270.305 100.012 263.436 101.14 256.677 103.393L257.444 105.696C263.962 103.524 270.572 102.439 277.278 102.439V100.012ZM256.666 103.397C250.081 105.66 244.209 109.059 239.059 113.591L240.663 115.414C245.571 111.094 251.165 107.855 257.455 105.693L256.666 103.397ZM239.041 113.608C234.079 118.156 230.065 123.826 226.987 130.597L229.197 131.601C232.155 125.094 235.986 119.701 240.681 115.397L239.041 113.608ZM226.993 130.584C223.887 137.21 222.352 144.834 222.352 153.428H224.78C224.78 145.124 226.262 137.863 229.191 131.614L226.993 130.584ZM222.352 153.428C222.352 162.407 223.781 170.319 226.673 177.137L228.908 176.189C226.168 169.731 224.78 162.153 224.78 153.428H222.352ZM226.679 177.15C229.56 183.735 233.483 189.217 238.458 193.569L240.056 191.743C235.375 187.647 231.654 182.466 228.903 176.177L226.679 177.15ZM238.458 193.569C243.412 197.904 249.184 201.199 255.761 203.46L256.55 201.164C250.252 198.999 244.759 195.857 240.056 191.743L238.458 193.569ZM255.803 203.474C262.564 205.522 269.724 206.543 277.278 206.543V204.116C269.945 204.116 263.024 203.125 256.507 201.151L255.803 203.474ZM277.278 206.543C284.634 206.543 291.596 205.521 298.159 203.471L297.435 201.154C291.123 203.126 284.406 204.116 277.278 204.116V206.543ZM298.181 203.464C304.958 201.204 310.836 197.909 315.796 193.569L314.198 191.743C309.501 195.852 303.913 198.994 297.413 201.161L298.181 203.464ZM315.799 193.567C320.967 189.019 324.993 183.44 327.877 176.848L325.653 175.875C322.904 182.158 319.084 187.442 314.195 191.745L315.799 193.567ZM327.87 176.864C330.971 170.041 332.505 162.22 332.505 153.428H330.078C330.078 161.937 328.594 169.405 325.66 175.859L327.87 176.864ZM332.505 153.428C332.505 144.834 330.97 137.21 327.864 130.584L325.666 131.614C328.595 137.863 330.078 145.124 330.078 153.428H332.505ZM327.882 130.625C324.999 123.828 320.967 118.234 315.777 113.875L314.216 115.734C319.085 119.823 322.899 125.093 325.648 131.573L327.882 130.625ZM315.799 113.893C310.648 109.361 304.776 105.962 298.192 103.699L297.402 105.994C303.692 108.156 309.287 111.396 314.195 115.715L315.799 113.893ZM298.223 103.71C291.642 101.242 284.658 100.012 277.278 100.012V102.439C284.382 102.439 291.077 103.623 297.371 105.983L298.223 103.71ZM5.16191 509.866H3.94819V511.08H5.16191V509.866ZM5.16191 298.64V297.427H3.94819V298.64H5.16191ZM34.7335 298.64H35.9473V297.427H34.7335V298.64ZM33.5265 389.769L32.3364 389.531L33.5265 389.769ZM30.8108 400.934L29.6464 400.592L29.1887 402.148H30.8108V400.934ZM31.4143 400.934V402.148H32.3066L32.5727 401.296L31.4143 400.934ZM35.337 390.373L34.2401 389.853L34.2288 389.877L34.2184 389.902L35.337 390.373ZM41.6738 381.018L42.532 381.877L42.5443 381.864L42.5562 381.852L41.6738 381.018ZM53.7439 371.362L54.3749 372.399L54.3811 372.395L54.3871 372.392L53.7439 371.362ZM68.5297 363.819L68.9804 364.946L68.9916 364.941L69.0026 364.936L68.5297 363.819ZM84.5225 358.991L84.7435 360.184L84.7647 360.18L84.7858 360.175L84.5225 358.991ZM100.214 357.18L100.224 355.966H100.214V357.18ZM152.718 376.492L151.86 377.35L151.867 377.357L151.874 377.364L152.718 376.492ZM152.718 492.666L151.867 491.801L151.86 491.808L152.718 492.666ZM84.5225 510.168L84.3015 511.361L84.5225 510.168ZM68.5297 505.642L68.0789 506.769L68.0864 506.772L68.094 506.775L68.5297 505.642ZM53.7439 498.701L53.1128 499.738L53.1389 499.754L53.1658 499.769L53.7439 498.701ZM41.6738 489.045L42.5562 488.212L42.5443 488.199L42.532 488.187L41.6738 489.045ZM35.337 479.691L34.2184 480.162L34.2288 480.187L34.2401 480.211L35.337 479.691ZM31.4143 469.13L32.5727 468.768L32.1473 467.406L30.8715 468.044L31.4143 469.13ZM30.8108 469.432L30.268 468.346L29.3442 468.808L29.6523 469.794L30.8108 469.432ZM34.7335 509.866V511.08H35.9473V509.866H34.7335ZM39.5616 456.154L38.476 456.697L38.4827 456.711L38.4897 456.724L39.5616 456.154ZM52.5369 472.449L51.7529 473.376L52.5369 472.449ZM70.3402 482.709L69.9254 483.849L69.9459 483.857L69.9666 483.863L70.3402 482.709ZM130.389 473.656L131.257 474.504L130.389 473.656ZM130.087 394.899L129.198 395.726L129.203 395.731L129.209 395.737L130.087 394.899ZM90.5575 381.622L90.5709 380.408H90.5575V381.622ZM70.3402 385.243L69.9362 384.098L69.9254 384.102L70.3402 385.243ZM52.5369 395.804L53.3209 396.731L53.331 396.722L53.341 396.713L52.5369 395.804ZM39.5616 412.401L38.4826 411.845L38.4792 411.851L38.476 411.858L39.5616 412.401ZM6.37564 509.866V298.64H3.94819V509.866H6.37564ZM5.16191 299.854H34.7335V297.427H5.16191V299.854ZM33.5198 298.64V378.604H35.9473V298.64H33.5198ZM33.5198 378.604C33.5198 381.93 33.1284 385.571 32.3364 389.531L34.7167 390.007C35.534 385.921 35.9473 382.118 35.9473 378.604H33.5198ZM32.3364 389.531C31.5377 393.524 30.6407 397.211 29.6464 400.592L31.9752 401.276C32.9925 397.818 33.906 394.061 34.7167 390.007L32.3364 389.531ZM30.8108 402.148H31.4143V399.72H30.8108V402.148ZM32.5727 401.296C33.5648 398.122 34.8581 394.638 36.4557 390.844L34.2184 389.902C32.5973 393.752 31.2754 397.309 30.2558 400.572L32.5727 401.296ZM36.4339 390.892C38.1986 387.167 40.2367 384.172 42.532 381.877L40.8156 380.16C38.2829 382.693 36.0965 385.934 34.2401 389.853L36.4339 390.892ZM42.5562 381.852C45.8955 378.316 49.8325 375.164 54.3749 372.399L53.1128 370.326C48.4015 373.193 44.2918 376.479 40.7914 380.185L42.5562 381.852ZM54.3871 372.392C59.1571 369.41 64.0215 366.929 68.9804 364.946L68.0789 362.692C62.9795 364.731 57.9866 367.279 53.1006 370.333L54.3871 372.392ZM69.0026 364.936C74.1542 362.757 79.4008 361.173 84.7435 360.184L84.3015 357.797C78.7811 358.819 73.3658 360.455 68.0568 362.701L69.0026 364.936ZM84.7858 360.175C90.1399 358.986 95.2817 358.394 100.214 358.394V355.966C95.087 355.966 89.7681 356.582 84.2592 357.806L84.7858 360.175ZM100.203 358.394C122.297 358.593 139.464 364.954 151.86 377.35L153.577 375.634C140.626 362.683 122.79 356.17 100.224 355.966L100.203 358.394ZM151.874 377.364C164.422 389.52 170.817 408.454 170.817 434.428H173.244C173.244 408.099 166.764 388.409 153.563 375.62L151.874 377.364ZM170.817 434.428C170.817 460.401 164.423 479.441 151.867 491.801L153.57 493.531C166.763 480.544 173.244 460.759 173.244 434.428H170.817ZM151.86 491.808C139.467 504.201 122.305 510.463 100.214 510.463V512.89C122.781 512.89 140.622 506.479 153.577 493.525L151.86 491.808ZM100.214 510.463C95.2653 510.463 90.1092 509.968 84.7435 508.975L84.3015 511.361C89.7989 512.379 95.1034 512.89 100.214 512.89V510.463ZM84.7435 508.975C79.3863 507.982 74.1272 506.494 68.9654 504.509L68.094 506.775C73.3929 508.813 78.7956 510.342 84.3015 511.361L84.7435 508.975ZM68.9804 504.515C63.9954 502.521 59.1093 500.227 54.3219 497.634L53.1658 499.769C58.0345 502.406 63.0056 504.739 68.0789 506.769L68.9804 504.515ZM54.3749 497.665C49.8325 494.9 45.8955 491.748 42.5562 488.212L40.7914 489.879C44.2918 493.585 48.4015 496.87 53.1128 499.738L54.3749 497.665ZM42.532 488.187C40.2367 485.892 38.1986 482.897 36.4339 479.172L34.2401 480.211C36.0965 484.13 38.2829 487.371 40.8156 489.904L42.532 488.187ZM36.4557 479.22C34.8581 475.426 33.5648 471.942 32.5727 468.768L30.2558 469.492C31.2754 472.755 32.5973 476.312 34.2184 480.162L36.4557 479.22ZM30.8715 468.044L30.268 468.346L31.3536 470.517L31.9571 470.215L30.8715 468.044ZM29.6523 469.794C30.643 472.964 31.5384 476.543 32.3364 480.533L34.7167 480.057C33.9054 476 32.9902 472.337 31.9692 469.07L29.6523 469.794ZM32.3364 480.533C33.1284 484.493 33.5198 488.133 33.5198 491.459H35.9473C35.9473 487.946 35.534 484.143 34.7167 480.057L32.3364 480.533ZM33.5198 491.459V509.866H35.9473V491.459H33.5198ZM34.7335 508.652H5.16191V511.08H34.7335V508.652ZM33.5198 434.428C33.5198 442.641 35.1635 450.072 38.476 456.697L40.6471 455.612C37.5222 449.362 35.9473 442.309 35.9473 434.428H33.5198ZM38.4897 456.724C41.9772 463.289 46.3973 468.844 51.7529 473.376L53.3209 471.523C48.2157 467.203 43.9856 461.895 40.6334 455.585L38.4897 456.724ZM51.7529 473.376C57.0961 477.897 63.1564 481.388 69.9254 483.849L70.755 481.568C64.2469 479.201 58.4384 475.853 53.3209 471.523L51.7529 473.376ZM69.9666 483.863C76.917 486.112 83.7821 487.242 90.5575 487.242V484.814C84.0559 484.814 77.4428 483.731 70.7138 481.554L69.9666 483.863ZM90.5575 487.242C109.201 487.242 122.877 483.094 131.257 474.504L129.52 472.809C121.807 480.714 108.929 484.814 90.5575 484.814V487.242ZM131.257 474.504C139.621 465.931 143.672 452.479 143.672 434.428H141.245C141.245 452.186 137.25 464.885 129.52 472.809L131.257 474.504ZM143.672 434.428C143.672 416.562 139.513 403.026 130.965 394.061L129.209 395.737C137.157 404.073 141.245 416.89 141.245 434.428H143.672ZM130.976 394.072C122.604 385.073 109.03 380.611 90.5709 380.408L90.5442 382.836C108.698 383.035 121.477 387.425 129.198 395.726L130.976 394.072ZM90.5575 380.408C83.7692 380.408 76.8937 381.643 69.9362 384.098L70.7441 386.387C77.4661 384.015 84.0687 382.836 90.5575 382.836V380.408ZM69.9254 384.102C63.1454 386.568 57.0785 390.166 51.7327 394.895L53.341 396.713C58.4559 392.189 64.2579 388.746 70.755 386.384L69.9254 384.102ZM51.7529 394.878C46.3902 399.415 41.9688 405.077 38.4826 411.845L40.6405 412.956C43.994 406.447 48.2228 401.045 53.3209 396.731L51.7529 394.878ZM38.476 411.858C35.1615 418.487 33.5198 426.02 33.5198 434.428H35.9473C35.9473 426.341 37.5243 419.189 40.6471 412.943L38.476 411.858ZM289.237 358.991H290.451V357.777H289.237V358.991ZM289.237 386.752L289.244 387.965L290.451 387.958V386.752H289.237ZM238.241 387.053V388.267L238.248 388.267L238.241 387.053ZM227.982 387.657L227.797 386.457L227.982 387.657ZM221.645 390.674L222.503 391.533L221.645 390.674ZM218.627 397.313L217.437 397.075L217.429 397.114L217.424 397.153L218.627 397.313ZM218.024 509.866V511.08H219.238V509.866H218.024ZM188.452 509.866H187.238V511.08H188.452V509.866ZM189.666 399.425C189.666 385.912 192.848 376.117 198.98 369.793L197.237 368.103C190.494 375.057 187.238 385.58 187.238 399.425H189.666ZM198.98 369.793C205.095 363.486 214.87 360.204 228.585 360.204V357.777C214.54 357.777 203.996 361.133 197.237 368.103L198.98 369.793ZM228.585 360.204H289.237V357.777H228.585V360.204ZM288.023 358.991V386.752H290.451V358.991H288.023ZM289.23 385.538L238.234 385.84L238.248 388.267L289.244 387.965L289.23 385.538ZM238.241 385.84C233.987 385.84 230.498 386.042 227.797 386.457L228.166 388.857C230.695 388.467 234.047 388.267 238.241 388.267V385.84ZM227.797 386.457C224.97 386.892 222.607 387.996 220.787 389.816L222.503 391.533C223.901 390.134 225.763 389.226 228.166 388.857L227.797 386.457ZM220.787 389.816C219.14 391.463 218.064 393.941 217.437 397.075L219.817 397.551C220.398 394.65 221.333 392.702 222.503 391.533L220.787 389.816ZM217.424 397.153C217.012 400.248 216.81 404.433 216.81 409.685H219.238C219.238 404.476 219.438 400.413 219.83 397.473L217.424 397.153ZM216.81 409.685V509.866H219.238V409.685H216.81ZM218.024 508.652H188.452V511.08H218.024V508.652ZM189.666 509.866V399.425H187.238V509.866H189.666ZM340.172 507.15L339.802 508.306L339.812 508.31L339.823 508.313L340.172 507.15ZM313.618 492.666L312.824 493.584L312.83 493.59L312.836 493.595L313.618 492.666ZM295.814 468.526L296.918 468.021L295.814 468.526ZM295.814 400.331L296.918 400.836L295.814 400.331ZM313.618 376.19L312.836 375.262L312.83 375.267L312.824 375.272L313.618 376.19ZM340.172 362.008L340.521 363.171L340.531 363.167L340.542 363.164L340.172 362.008ZM402.936 362.008L402.552 363.16L402.559 363.162L402.936 362.008ZM428.585 376.492L427.779 377.399L427.786 377.406L427.793 377.412L428.585 376.492ZM445.785 400.331L444.673 400.817L445.785 400.331ZM451.518 442.877V444.091H452.513L452.708 443.115L451.518 442.877ZM319.954 442.877V441.664H318.55L318.754 443.054L319.954 442.877ZM337.456 476.674L338.207 475.72L337.456 476.674ZM372.459 487.537L372.477 488.75L372.48 488.75L372.459 487.537ZM402.936 480.898L402.413 479.803L402.403 479.807L402.936 480.898ZM422.55 457.663L422.71 456.46L421.753 456.332L421.413 457.237L422.55 457.663ZM449.707 461.284L450.866 461.645L451.294 460.271L449.868 460.081L449.707 461.284ZM437.637 484.519L436.695 483.754L436.688 483.763L436.681 483.772L437.637 484.519ZM419.834 500.21L420.426 501.27L420.438 501.263L420.449 501.256L419.834 500.21ZM397.203 508.961L397.469 510.145L397.48 510.143L397.49 510.14L397.203 508.961ZM372.459 380.415L372.477 379.201L372.468 379.201H372.459V380.415ZM352.544 384.338L352.958 385.478L352.973 385.473L352.988 385.467L352.544 384.338ZM335.042 395.804L335.9 396.662L335.909 396.654L335.917 396.645L335.042 395.804ZM322.972 415.116L321.839 414.681L321.834 414.693L321.83 414.706L322.972 415.116ZM319.954 442.877L318.744 442.969L321.117 443.226L319.954 442.877ZM323.877 433.221L322.867 432.548L322.847 432.578L322.829 432.61L323.877 433.221ZM329.309 427.79L328.728 426.724L328.706 426.736L328.684 426.749L329.309 427.79ZM336.551 425.376L336.379 424.174L336.366 424.176L336.551 425.376ZM424.059 424.772V425.986H425.458L425.26 424.601L424.059 424.772ZM406.859 391.278L406.114 392.236L406.125 392.245L406.137 392.254L406.859 391.278ZM371.856 510.463C360.903 510.463 350.46 508.97 340.521 505.988L339.823 508.313C350 511.366 360.68 512.89 371.856 512.89V510.463ZM340.542 505.994C330.625 502.821 321.916 498.068 314.399 491.738L312.836 493.595C320.608 500.14 329.601 505.042 339.802 508.306L340.542 505.994ZM314.412 491.748C307.11 485.434 301.277 477.531 296.918 468.021L294.711 469.032C299.203 478.833 305.239 487.025 312.824 493.584L314.412 491.748ZM296.918 468.021C292.58 458.555 290.39 447.369 290.39 434.428H287.962C287.962 447.639 290.198 459.185 294.711 469.032L296.918 468.021ZM290.39 434.428C290.39 421.488 292.58 410.301 296.918 400.836L294.711 399.825C290.198 409.672 287.962 421.217 287.962 434.428H290.39ZM296.918 400.836C301.277 391.325 307.11 383.423 314.412 377.108L312.824 375.272C305.239 381.832 299.203 390.023 294.711 399.825L296.918 400.836ZM314.399 377.119C321.911 370.794 330.613 366.143 340.521 363.171L339.823 360.846C329.614 363.908 320.613 368.712 312.836 375.262L314.399 377.119ZM340.542 363.164C350.475 359.985 360.911 358.394 371.856 358.394V355.966C360.672 355.966 349.985 357.593 339.802 360.852L340.542 363.164ZM371.856 358.394C382.801 358.394 393.03 359.986 402.552 363.16L403.32 360.857C393.53 357.593 383.039 355.966 371.856 355.966V358.394ZM402.559 363.162C412.269 366.332 420.67 371.08 427.779 377.399L429.391 375.585C422.016 369.029 413.317 364.121 403.313 360.854L402.559 363.162ZM427.793 377.412C434.884 383.518 440.514 391.31 444.673 400.817L446.897 399.844C442.607 390.039 436.77 381.939 429.377 375.572L427.793 377.412ZM444.673 400.817C448.816 410.287 450.908 421.481 450.908 434.428H453.335C453.335 421.224 451.202 409.686 446.897 399.844L444.673 400.817ZM450.908 434.428C450.908 434.433 450.908 434.437 450.908 434.441C450.908 434.446 450.908 434.45 450.908 434.454C450.908 434.459 450.908 434.463 450.908 434.467C450.908 434.472 450.908 434.476 450.908 434.48C450.908 434.484 450.908 434.489 450.908 434.493C450.908 434.497 450.908 434.502 450.908 434.506C450.908 434.51 450.908 434.514 450.908 434.519C450.908 434.523 450.908 434.527 450.908 434.532C450.908 434.536 450.908 434.54 450.908 434.544C450.908 434.549 450.908 434.553 450.908 434.557C450.908 434.562 450.908 434.566 450.908 434.57C450.908 434.574 450.908 434.579 450.908 434.583C450.908 434.587 450.908 434.591 450.908 434.596C450.908 434.6 450.908 434.604 450.908 434.608C450.908 434.613 450.908 434.617 450.908 434.621C450.908 434.625 450.908 434.63 450.908 434.634C450.908 434.638 450.908 434.642 450.908 434.646C450.908 434.651 450.908 434.655 450.908 434.659C450.908 434.663 450.908 434.668 450.908 434.672C450.908 434.676 450.908 434.68 450.908 434.685C450.908 434.689 450.908 434.693 450.908 434.697C450.908 434.701 450.908 434.706 450.908 434.71C450.908 434.714 450.908 434.718 450.908 434.722C450.908 434.727 450.908 434.731 450.908 434.735C450.908 434.739 450.908 434.743 450.908 434.748C450.908 434.752 450.908 434.756 450.908 434.76C450.908 434.764 450.908 434.768 450.908 434.773C450.908 434.777 450.908 434.781 450.908 434.785C450.908 434.789 450.908 434.793 450.908 434.798C450.908 434.802 450.908 434.806 450.908 434.81C450.908 434.814 450.908 434.818 450.908 434.823C450.908 434.827 450.908 434.831 450.908 434.835C450.908 434.839 450.908 434.843 450.908 434.848C450.908 434.852 450.908 434.856 450.908 434.86C450.908 434.864 450.908 434.868 450.908 434.872C450.908 434.876 450.908 434.881 450.908 434.885C450.908 434.889 450.908 434.893 450.908 434.897C450.908 434.901 450.908 434.905 450.908 434.909C450.908 434.914 450.908 434.918 450.908 434.922C450.908 434.926 450.908 434.93 450.908 434.934C450.908 434.938 450.908 434.942 450.908 434.946C450.908 434.951 450.908 434.955 450.908 434.959C450.908 434.963 450.908 434.967 450.908 434.971C450.908 434.975 450.908 434.979 450.908 434.983C450.908 434.987 450.908 434.991 450.908 434.996C450.908 435 450.908 435.004 450.908 435.008C450.908 435.012 450.908 435.016 450.908 435.02C450.908 435.024 450.908 435.028 450.908 435.032C450.908 435.036 450.908 435.04 450.908 435.044C450.908 435.048 450.908 435.052 450.908 435.057C450.908 435.061 450.908 435.065 450.908 435.069C450.908 435.073 450.908 435.077 450.908 435.081C450.908 435.085 450.908 435.089 450.908 435.093C450.908 435.097 450.908 435.101 450.908 435.105C450.908 435.109 450.908 435.113 450.908 435.117C450.908 435.121 450.908 435.125 450.908 435.129C450.908 435.133 450.908 435.137 450.908 435.141C450.908 435.145 450.908 435.149 450.908 435.153C450.908 435.157 450.908 435.161 450.908 435.165C450.908 435.169 450.908 435.173 450.908 435.177C450.908 435.181 450.908 435.185 450.908 435.189C450.908 435.193 450.908 435.197 450.908 435.201C450.908 435.205 450.908 435.209 450.908 435.213C450.908 435.217 450.908 435.221 450.908 435.225C450.908 435.229 450.908 435.233 450.908 435.237C450.908 435.241 450.908 435.245 450.908 435.249C450.908 435.253 450.908 435.257 450.908 435.261C450.908 435.265 450.908 435.269 450.908 435.273C450.908 435.277 450.908 435.281 450.908 435.285C450.908 435.289 450.908 435.293 450.908 435.297C450.908 435.3 450.908 435.304 450.908 435.308C450.908 435.312 450.908 435.316 450.908 435.32C450.908 435.324 450.908 435.328 450.908 435.332C450.908 435.336 450.908 435.34 450.908 435.344C450.908 435.348 450.908 435.352 450.908 435.356C450.908 435.359 450.908 435.363 450.908 435.367C450.908 435.371 450.908 435.375 450.908 435.379C450.908 435.383 450.908 435.387 450.908 435.391C450.908 435.395 450.908 435.399 450.908 435.402C450.908 435.406 450.908 435.41 450.908 435.414C450.908 435.418 450.908 435.422 450.908 435.426C450.908 435.43 450.908 435.434 450.908 435.437C450.908 435.441 450.908 435.445 450.908 435.449C450.908 435.453 450.908 435.457 450.908 435.461C450.908 435.465 450.908 435.468 450.908 435.472C450.908 435.476 450.908 435.48 450.908 435.484C450.908 435.488 450.908 435.492 450.908 435.495C450.908 435.499 450.908 435.503 450.908 435.507C450.908 435.511 450.908 435.515 450.908 435.519C450.908 435.522 450.908 435.526 450.908 435.53C450.908 435.534 450.908 435.538 450.908 435.542C450.908 435.545 450.908 435.549 450.908 435.553C450.908 435.557 450.908 435.561 450.908 435.565C450.908 435.568 450.908 435.572 450.908 435.576C450.908 435.58 450.908 435.584 450.908 435.587C450.908 435.591 450.908 435.595 450.908 435.599C450.908 435.603 450.908 435.606 450.908 435.61C450.908 435.614 450.908 435.618 450.908 435.622C450.908 435.625 450.908 435.629 450.908 435.633C450.908 435.637 450.908 435.641 450.908 435.644C450.908 435.648 450.908 435.652 450.908 435.656C450.908 435.66 450.908 435.663 450.908 435.667C450.908 435.671 450.908 435.675 450.908 435.678C450.908 435.682 450.908 435.686 450.908 435.69C450.908 435.693 450.908 435.697 450.908 435.701C450.908 435.705 450.908 435.708 450.908 435.712C450.908 435.716 450.908 435.72 450.908 435.724C450.908 435.727 450.908 435.731 450.908 435.735C450.908 435.738 450.908 435.742 450.908 435.746C450.908 435.75 450.908 435.753 450.908 435.757C450.908 435.761 450.908 435.765 450.908 435.768C450.908 435.772 450.908 435.776 450.908 435.78C450.908 435.783 450.908 435.787 450.908 435.791C450.908 435.794 450.908 435.798 450.908 435.802C450.908 435.806 450.908 435.809 450.908 435.813C450.908 435.817 450.908 435.82 450.908 435.824C450.908 435.828 450.908 435.831 450.908 435.835C450.908 435.839 450.908 435.842 450.908 435.846C450.908 435.85 450.908 435.854 450.908 435.857C450.908 435.861 450.908 435.865 450.908 435.868C450.908 435.872 450.908 435.876 450.908 435.879C450.908 435.883 450.908 435.887 450.908 435.89C450.908 435.894 450.908 435.898 450.908 435.901C450.908 435.905 450.908 435.909 450.908 435.912C450.908 435.916 450.908 435.92 450.908 435.923C450.908 435.927 450.908 435.931 450.908 435.934C450.908 435.938 450.908 435.941 450.908 435.945C450.908 435.949 450.908 435.952 450.908 435.956C450.908 435.96 450.908 435.963 450.908 435.967C450.908 435.971 450.908 435.974 450.908 435.978C450.908 435.981 450.908 435.985 450.908 435.989C450.908 435.992 450.908 435.996 450.908 436C450.908 436.003 450.908 436.007 450.908 436.01C450.908 436.014 450.908 436.018 450.908 436.021C450.908 436.025 450.908 436.028 450.908 436.032C450.908 436.036 450.908 436.039 450.908 436.043C450.908 436.046 450.908 436.05 450.908 436.053C450.908 436.057 450.908 436.061 450.908 436.064C450.908 436.068 450.908 436.071 450.908 436.075C450.908 436.079 450.908 436.082 450.908 436.086C450.908 436.089 450.908 436.093 450.908 436.096C450.908 436.1 450.908 436.104 450.908 436.107C450.908 436.111 450.908 436.114 450.908 436.118C450.908 436.121 450.908 436.125 450.908 436.128C450.908 436.132 450.908 436.135 450.908 436.139C450.908 436.143 450.908 436.146 450.908 436.15C450.908 436.153 450.908 436.157 450.908 436.16C450.908 436.164 450.908 436.167 450.908 436.171C450.908 436.174 450.908 436.178 450.908 436.181C450.908 436.185 450.908 436.188 450.908 436.192C450.908 436.195 450.908 436.199 450.908 436.203C450.908 436.206 450.908 436.21 450.908 436.213C450.908 436.217 450.908 436.22 450.908 436.224C450.908 436.227 450.908 436.231 450.908 436.234C450.908 436.238 450.908 436.241 450.908 436.245C450.908 436.248 450.908 436.251 450.908 436.255C450.908 436.258 450.908 436.262 450.908 436.265C450.908 436.269 450.908 436.272 450.908 436.276C450.908 436.279 450.908 436.283 450.908 436.286C450.908 436.29 450.908 436.293 450.908 436.297C450.908 436.3 450.908 436.304 450.908 436.307C450.908 436.311 450.908 436.314 450.908 436.317C450.908 436.321 450.908 436.324 450.908 436.328C450.908 436.331 450.908 436.335 450.908 436.338C450.908 436.342 450.908 436.345 450.908 436.348C450.908 436.352 450.908 436.355 450.908 436.359C450.908 436.362 450.908 436.366 450.908 436.369C450.908 436.372 450.908 436.376 450.908 436.379C450.908 436.383 450.908 436.386 450.908 436.389C450.908 436.393 450.908 436.396 450.908 436.4C450.908 436.403 450.908 436.407 450.908 436.41C450.908 436.413 450.908 436.417 450.908 436.42C450.908 436.424 450.908 436.427 450.908 436.43C450.908 436.434 450.908 436.437 450.908 436.441C450.908 436.444 450.908 436.447 450.908 436.451C450.908 436.454 450.908 436.457 450.908 436.461C450.908 436.464 450.908 436.468 450.908 436.471C450.908 436.474 450.908 436.478 450.908 436.481C450.908 436.484 450.908 436.488 450.908 436.491C450.908 436.494 450.908 436.498 450.908 436.501C450.908 436.505 450.908 436.508 450.908 436.511C450.908 436.515 450.908 436.518 450.908 436.521C450.908 436.525 450.908 436.528 450.908 436.531C450.908 436.535 450.908 436.538 450.908 436.541C450.908 436.545 450.908 436.548 450.908 436.551C450.908 436.555 450.908 436.558 450.908 436.561C450.908 436.565 450.908 436.568 450.908 436.571C450.908 436.575 450.908 436.578 450.908 436.581C450.908 436.585 450.908 436.588 450.908 436.591C450.908 436.594 450.908 436.598 450.908 436.601C450.908 436.604 450.908 436.608 450.908 436.611C450.908 436.614 450.908 436.618 450.908 436.621C450.908 436.624 450.908 436.627 450.908 436.631C450.908 436.634 450.908 436.637 450.908 436.641C450.908 436.644 450.908 436.647 450.908 436.65C450.908 436.654 450.908 436.657 450.908 436.66C450.908 436.663 450.908 436.667 450.908 436.67C450.908 436.673 450.908 436.676 450.908 436.68C450.908 436.683 450.908 436.686 450.908 436.69C450.908 436.693 450.908 436.696 450.908 436.699C450.908 436.703 450.908 436.706 450.908 436.709C450.908 436.712 450.908 436.715 450.908 436.719C450.908 436.722 450.908 436.725 450.908 436.728C450.908 436.732 450.908 436.735 450.908 436.738C450.908 436.741 450.908 436.745 450.908 436.748C450.908 436.751 450.908 436.754 450.908 436.757C450.908 436.761 450.908 436.764 450.908 436.767C450.908 436.77 450.908 436.773 450.908 436.777C450.908 436.78 450.908 436.783 450.908 436.786C450.908 436.79 450.908 436.793 450.908 436.796C450.908 436.799 450.908 436.802 450.908 436.805C450.908 436.809 450.908 436.812 450.908 436.815C450.908 436.818 450.908 436.821 450.908 436.825C450.908 436.828 450.908 436.831 450.908 436.834C450.908 436.837 450.908 436.84 450.908 436.844C450.908 436.847 450.908 436.85 450.908 436.853C450.908 436.856 450.908 436.859 450.908 436.863C450.908 436.866 450.908 436.869 450.908 436.872C450.908 436.875 450.908 436.878 450.908 436.881C450.908 436.885 450.908 436.888 450.908 436.891C450.908 436.894 450.908 436.897 450.908 436.9C450.908 436.903 450.908 436.907 450.908 436.91C450.908 436.913 450.908 436.916 450.908 436.919C450.908 436.922 450.908 436.925 450.908 436.928C450.908 436.932 450.908 436.935 450.908 436.938C450.908 436.941 450.908 436.944 450.908 436.947C450.908 436.95 450.908 436.953 450.908 436.956C450.908 436.96 450.908 436.963 450.908 436.966C450.908 436.969 450.908 436.972 450.908 436.975C450.908 436.978 450.908 436.981 450.908 436.984C450.908 436.987 450.908 436.99 450.908 436.994C450.908 436.997 450.908 437 450.908 437.003C450.908 437.006 450.908 437.009 450.908 437.012C450.908 437.015 450.908 437.018 450.908 437.021C450.908 437.024 450.908 437.027 450.908 437.03C450.908 437.033 450.908 437.037 450.908 437.04C450.908 437.043 450.908 437.046 450.908 437.049C450.908 437.052 450.908 437.055 450.908 437.058C450.908 437.061 450.908 437.064 450.908 437.067C450.908 437.07 450.908 437.073 450.908 437.076C450.908 437.079 450.908 437.082 450.908 437.085C450.908 437.088 450.908 437.091 450.908 437.094C450.908 437.097 450.908 437.1 450.908 437.103C450.908 437.106 450.908 437.109 450.908 437.112C450.908 437.115 450.908 437.118 450.908 437.121C450.908 437.124 450.908 437.127 450.908 437.13C450.908 437.133 450.908 437.136 450.908 437.139C450.908 437.142 450.908 437.145 450.908 437.148C450.908 437.151 450.908 437.154 450.908 437.157C450.908 437.16 450.908 437.163 450.908 437.166C450.908 437.169 450.908 437.172 450.908 437.175C450.908 437.178 450.908 437.181 450.908 437.184C450.908 437.187 450.908 437.19 450.908 437.193C450.908 437.196 450.908 437.199 450.908 437.202C450.908 437.205 450.908 437.208 450.908 437.211C450.908 437.214 450.908 437.217 450.908 437.22C450.908 437.223 450.908 437.225 450.908 437.228C450.908 437.231 450.908 437.234 450.908 437.237C450.908 437.24 450.908 437.243 450.908 437.246C450.908 437.249 450.908 437.252 450.908 437.255C450.908 437.258 450.908 437.261 450.908 437.264C450.908 437.267 450.908 437.269 450.908 437.272C450.908 437.275 450.908 437.278 450.908 437.281C450.908 437.284 450.908 437.287 450.908 437.29C450.908 437.293 450.908 437.296 450.908 437.299C450.908 437.301 450.908 437.304 450.908 437.307C450.908 437.31 450.908 437.313 450.908 437.316C450.908 437.319 450.908 437.322 450.908 437.325C450.908 437.327 450.908 437.33 450.908 437.333C450.908 437.336 450.908 437.339 450.908 437.342C450.908 437.345 450.908 437.348 450.908 437.35C450.908 437.353 450.908 437.356 450.908 437.359C450.908 437.362 450.908 437.365 450.908 437.368C450.908 437.37 450.908 437.373 450.908 437.376C450.908 437.379 450.908 437.382 450.908 437.385C450.908 437.388 450.908 437.39 450.908 437.393C450.908 437.396 450.908 437.399 450.908 437.402C450.908 437.405 450.908 437.407 450.908 437.41C450.908 437.413 450.908 437.416 450.908 437.419C450.908 437.421 450.908 437.424 450.908 437.427C450.908 437.43 450.908 437.433 450.908 437.436C450.908 437.438 450.908 437.441 450.908 437.444C450.908 437.447 450.908 437.45 450.908 437.452C450.908 437.455 450.908 437.458 450.908 437.461C450.908 437.464 450.908 437.466 450.908 437.469C450.908 437.472 450.908 437.475 450.908 437.478C450.908 437.48 450.908 437.483 450.908 437.486C450.908 437.489 450.908 437.491 450.908 437.494C450.908 437.497 450.908 437.5 450.908 437.503C450.908 437.505 450.908 437.508 450.908 437.511C450.908 437.514 450.908 437.516 450.908 437.519C450.908 437.522 450.908 437.525 450.908 437.527C450.908 437.53 450.908 437.533 450.908 437.536C450.908 437.538 450.908 437.541 450.908 437.544C450.908 437.547 450.908 437.549 450.908 437.552C450.908 437.555 450.908 437.558 450.908 437.56C450.908 437.563 450.908 437.566 450.908 437.569C450.908 437.571 450.908 437.574 450.908 437.577C450.908 437.579 450.908 437.582 450.908 437.585C450.908 437.588 450.908 437.59 450.908 437.593C450.908 437.596 450.908 437.598 450.908 437.601C450.908 437.604 450.908 437.607 450.908 437.609C450.908 437.612 450.908 437.615 450.908 437.617C450.908 437.62 450.908 437.623 450.908 437.625C450.908 437.628 450.908 437.631 450.908 437.633C450.908 437.636 450.908 437.639 450.908 437.641C450.908 437.644 450.908 437.647 450.908 437.65C450.908 437.652 450.908 437.655 450.908 437.658C450.908 437.66 450.908 437.663 450.908 437.665C450.908 437.668 450.908 437.671 450.908 437.673C450.908 437.676 450.908 437.679 450.908 437.681C450.908 437.684 450.908 437.687 450.908 437.689C450.908 437.692 450.908 437.695 450.908 437.697C450.908 437.7 450.908 437.703 450.908 437.705C450.908 437.708 450.908 437.711 450.908 437.713C450.908 437.716 450.908 437.718 450.908 437.721C450.908 437.724 450.908 437.726 450.908 437.729C450.908 437.732 450.908 437.734 450.908 437.737C450.908 437.739 450.908 437.742 450.908 437.745C450.908 437.747 450.908 437.75 450.908 437.752C450.908 437.755 450.908 437.758 450.908 437.76C450.908 437.763 450.908 437.765 450.908 437.768C450.908 437.771 450.908 437.773 450.908 437.776C450.908 437.778 450.908 437.781 450.908 437.783C450.908 437.786 450.908 437.789 450.908 437.791C450.908 437.794 450.908 437.796 450.908 437.799C450.908 437.802 450.908 437.804 450.908 437.807C450.908 437.809 450.908 437.812 450.908 437.814C450.908 437.817 450.908 437.819 450.908 437.822C450.908 437.825 450.908 437.827 450.908 437.83C450.908 437.832 450.908 437.835 450.908 437.837C450.908 437.84 450.908 437.842 450.908 437.845C450.908 437.847 450.908 437.85 450.908 437.853C450.908 437.855 450.908 437.858 450.908 437.86C450.908 437.863 450.908 437.865 450.908 437.868C450.908 437.87 450.908 437.873 450.908 437.875C450.908 437.878 450.908 437.88 450.908 437.883C450.908 437.885 450.908 437.888 450.908 437.89C450.908 437.893 450.908 437.895 450.908 437.898C450.908 437.9 450.908 437.903 450.908 437.905C450.908 437.908 450.908 437.91 450.908 437.913C450.908 437.915 450.908 437.918 450.908 437.92C450.908 437.923 450.908 437.925 450.908 437.928C450.908 437.93 450.908 437.933 450.908 437.935C450.908 437.938 450.908 437.94 450.908 437.943C450.908 437.945 450.908 437.948 450.908 437.95C450.908 437.952 450.908 437.955 450.908 437.957C450.908 437.96 450.908 437.962 450.908 437.965C450.908 437.967 450.908 437.97 450.908 437.972C450.908 437.975 450.908 437.977 450.908 437.979C450.908 437.982 450.908 437.984 450.908 437.987C450.908 437.989 450.908 437.992 450.908 437.994C450.908 437.996 450.908 437.999 450.908 438.001C450.908 438.004 450.908 438.006 450.908 438.009C450.908 438.011 450.908 438.013 450.908 438.016C450.908 438.018 450.908 438.021 450.908 438.023C450.908 438.025 450.908 438.028 450.908 438.03C450.908 438.033 450.908 438.035 450.908 438.037C450.908 438.04 450.908 438.042 450.908 438.045C450.908 438.047 450.908 438.049 450.908 438.052C450.908 438.054 450.908 438.057 450.908 438.059C450.908 438.061 450.908 438.064 450.908 438.066C450.908 438.069 450.908 438.071 450.908 438.073C450.908 438.076 450.908 438.078 450.908 438.08C450.908 438.083 450.908 438.085 450.908 438.087C450.908 438.09 450.908 438.092 450.908 438.095C450.908 438.097 450.908 438.099 450.908 438.102C450.908 438.104 450.908 438.106 450.908 438.109C450.908 438.111 450.908 438.113 450.908 438.116C450.908 438.118 450.908 438.12 450.908 438.123C450.908 438.125 450.908 438.127 450.908 438.13C450.908 438.132 450.908 438.134 450.908 438.137C450.908 438.139 450.908 438.141 450.908 438.144C450.908 438.146 450.908 438.148 450.908 438.151C450.908 438.153 450.908 438.155 450.908 438.158C450.908 438.16 450.908 438.162 450.908 438.164C450.908 438.167 450.908 438.169 450.908 438.171C450.908 438.174 450.908 438.176 450.908 438.178C450.908 438.18 450.908 438.183 450.908 438.185C450.908 438.187 450.908 438.19 450.908 438.192C450.908 438.194 450.908 438.196 450.908 438.199C450.908 438.201 450.908 438.203 450.908 438.206C450.908 438.208 450.908 438.21 450.908 438.212C450.908 438.215 450.908 438.217 450.908 438.219C450.908 438.221 450.908 438.224 450.908 438.226C450.908 438.228 450.908 438.23 450.908 438.233C450.908 438.235 450.908 438.237 450.908 438.239C450.908 438.242 450.908 438.244 450.908 438.246C450.908 438.248 450.908 438.251 450.908 438.253C450.908 438.255 450.908 438.257 450.908 438.26C450.908 438.262 450.908 438.264 450.908 438.266C450.908 438.268 450.908 438.271 450.908 438.273C450.908 438.275 450.908 438.277 450.908 438.28C450.908 438.282 450.908 438.284 450.908 438.286C450.908 438.288 450.908 438.291 450.908 438.293C450.908 438.295 450.908 438.297 450.908 438.299C450.908 438.302 450.908 438.304 450.908 438.306C450.908 438.308 450.908 438.31 450.908 438.312C450.908 438.315 450.908 438.317 450.908 438.319C450.908 438.321 450.908 438.323 450.908 438.326C450.908 438.328 450.908 438.33 450.908 438.332C450.908 438.334 450.908 438.336 450.908 438.339C450.908 438.341 450.908 438.343 450.908 438.345C450.908 438.347 450.908 438.349 450.908 438.351C450.908 438.354 450.908 438.356 450.908 438.358C450.908 438.36 450.908 438.362 450.908 438.364C450.908 438.366 450.908 438.369 450.908 438.371C450.908 438.373 450.908 438.375 450.908 438.377C450.908 438.379 450.908 438.381 450.908 438.384C450.908 438.386 450.908 438.388 450.908 438.39C450.908 438.392 450.908 438.394 450.908 438.396C450.908 438.398 450.908 438.401 450.908 438.403C450.908 438.405 450.908 438.407 450.908 438.409C450.908 438.411 450.908 438.413 450.908 438.415C450.908 438.417 450.908 438.419 450.908 438.422C450.908 438.424 450.908 438.426 450.908 438.428C450.908 438.43 450.908 438.432 450.908 438.434C450.908 438.436 450.908 438.438 450.908 438.44C450.908 438.442 450.908 438.444 450.908 438.447C450.908 438.449 450.908 438.451 450.908 438.453C450.908 438.455 450.908 438.457 450.908 438.459C450.908 438.461 450.908 438.463 450.908 438.465C450.908 438.467 450.908 438.469 450.908 438.471C450.908 438.473 450.908 438.475 450.908 438.477C450.908 438.479 450.908 438.481 450.908 438.483C450.908 438.486 450.908 438.488 450.908 438.49C450.908 438.492 450.908 438.494 450.908 438.496C450.908 438.498 450.908 438.5 450.908 438.502C450.908 438.504 450.908 438.506 450.908 438.508C450.908 438.51 450.908 438.512 450.908 438.514C450.908 438.516 450.908 438.518 450.908 438.52C450.908 438.522 450.908 438.524 450.908 438.526C450.908 438.528 450.908 438.53 450.908 438.532C450.908 438.534 450.908 438.536 450.908 438.538C450.908 438.54 450.908 438.542 450.908 438.544C450.908 438.546 450.908 438.548 450.908 438.55C450.908 438.552 450.908 438.554 450.908 438.556C450.908 438.558 450.908 438.56 450.908 438.562C450.908 438.564 450.908 438.566 450.908 438.568C450.908 438.57 450.908 438.571 450.908 438.573C450.908 438.575 450.908 438.577 450.908 438.579C450.908 438.581 450.908 438.583 450.908 438.585C450.908 438.587 450.908 438.589 450.908 438.591C450.908 438.593 450.908 438.595 450.908 438.597C450.908 438.599 450.908 438.601 450.908 438.603C450.908 438.605 450.908 438.606 450.908 438.608C450.908 438.61 450.908 438.612 450.908 438.614C450.908 438.616 450.908 438.618 450.908 438.62C450.908 438.622 450.908 438.624 450.908 438.626C450.908 438.628 450.908 438.629 450.908 438.631C450.908 438.633 450.908 438.635 450.908 438.637C450.908 438.639 450.908 438.641 450.908 438.643C450.908 438.645 450.908 438.647 450.908 438.648C450.908 438.65 450.908 438.652 450.908 438.654C450.908 438.656 450.908 438.658 450.908 438.66C450.908 438.662 450.908 438.663 450.908 438.665C450.908 438.667 450.908 438.669 450.908 438.671C450.908 438.673 450.908 438.675 450.908 438.677C450.908 438.678 450.908 438.68 450.908 438.682C450.908 438.684 450.908 438.686 450.908 438.688C450.908 438.69 450.908 438.691 450.908 438.693C450.908 438.695 450.908 438.697 450.908 438.699C450.908 438.701 450.908 438.702 450.908 438.704C450.908 438.706 450.908 438.708 450.908 438.71C450.908 438.712 450.908 438.713 450.908 438.715C450.908 438.717 450.908 438.719 450.908 438.721C450.908 438.723 450.908 438.724 450.908 438.726C450.908 438.728 450.908 438.73 450.908 438.732C450.908 438.733 450.908 438.735 450.908 438.737C450.908 438.739 450.908 438.741 450.908 438.742C450.908 438.744 450.908 438.746 450.908 438.748C450.908 438.75 450.908 438.751 450.908 438.753C450.908 438.755 450.908 438.757 450.908 438.759C450.908 438.76 450.908 438.762 450.908 438.764C450.908 438.766 450.908 438.767 450.908 438.769C450.908 438.771 450.908 438.773 450.908 438.775C450.908 438.776 450.908 438.778 450.908 438.78C450.908 438.782 450.908 438.783 450.908 438.785C450.908 438.787 450.908 438.789 450.908 438.79C450.908 438.792 450.908 438.794 450.908 438.796C450.908 438.797 450.908 438.799 450.908 438.801C450.908 438.802 450.908 438.804 450.908 438.806C450.908 438.808 450.908 438.809 450.908 438.811C450.908 438.813 450.908 438.815 450.908 438.816C450.908 438.818 450.908 438.82 450.908 438.822C450.908 438.823 450.908 438.825 450.908 438.827C450.908 438.828 450.908 438.83 450.908 438.832C450.908 438.833 450.908 438.835 450.908 438.837C450.908 438.839 450.908 438.84 450.908 438.842C450.908 438.844 450.908 438.845 450.908 438.847C450.908 438.849 450.908 438.85 450.908 438.852C450.908 438.854 450.908 438.855 450.908 438.857C450.908 438.859 450.908 438.861 450.908 438.862C450.908 438.864 450.908 438.866 450.908 438.867C450.908 438.869 450.908 438.871 450.908 438.872C450.908 438.874 450.908 438.876 450.908 438.877C450.908 438.879 450.908 438.88 450.908 438.882C450.908 438.884 450.908 438.885 450.908 438.887C450.908 438.889 450.908 438.89 450.908 438.892C450.908 438.894 450.908 438.895 450.908 438.897C450.908 438.899 450.908 438.9 450.908 438.902C450.908 438.903 450.908 438.905 450.908 438.907C450.908 438.908 450.908 438.91 450.908 438.912C450.908 438.913 450.908 438.915 450.908 438.916C450.908 438.918 450.908 438.92 450.908 438.921C450.908 438.923 450.908 438.924 450.908 438.926C450.908 438.928 450.908 438.929 450.908 438.931C450.908 438.932 450.908 438.934 450.908 438.936C450.908 438.937 450.908 438.939 450.908 438.94C450.908 438.942 450.908 438.944 450.908 438.945C450.908 438.947 450.908 438.948 450.908 438.95C450.908 438.952 450.908 438.953 450.908 438.955H453.335C453.335 438.953 453.335 438.952 453.335 438.95C453.335 438.948 453.335 438.947 453.335 438.945C453.335 438.944 453.335 438.942 453.335 438.94C453.335 438.939 453.335 438.937 453.335 438.936C453.335 438.934 453.335 438.932 453.335 438.931C453.335 438.929 453.335 438.928 453.335 438.926C453.335 438.924 453.335 438.923 453.335 438.921C453.335 438.92 453.335 438.918 453.335 438.916C453.335 438.915 453.335 438.913 453.335 438.912C453.335 438.91 453.335 438.908 453.335 438.907C453.335 438.905 453.335 438.903 453.335 438.902C453.335 438.9 453.335 438.899 453.335 438.897C453.335 438.895 453.335 438.894 453.335 438.892C453.335 438.89 453.335 438.889 453.335 438.887C453.335 438.885 453.335 438.884 453.335 438.882C453.335 438.88 453.335 438.879 453.335 438.877C453.335 438.876 453.335 438.874 453.335 438.872C453.335 438.871 453.335 438.869 453.335 438.867C453.335 438.866 453.335 438.864 453.335 438.862C453.335 438.861 453.335 438.859 453.335 438.857C453.335 438.855 453.335 438.854 453.335 438.852C453.335 438.85 453.335 438.849 453.335 438.847C453.335 438.845 453.335 438.844 453.335 438.842C453.335 438.84 453.335 438.839 453.335 438.837C453.335 438.835 453.335 438.833 453.335 438.832C453.335 438.83 453.335 438.828 453.335 438.827C453.335 438.825 453.335 438.823 453.335 438.822C453.335 438.82 453.335 438.818 453.335 438.816C453.335 438.815 453.335 438.813 453.335 438.811C453.335 438.809 453.335 438.808 453.335 438.806C453.335 438.804 453.335 438.802 453.335 438.801C453.335 438.799 453.335 438.797 453.335 438.796C453.335 438.794 453.335 438.792 453.335 438.79C453.335 438.789 453.335 438.787 453.335 438.785C453.335 438.783 453.335 438.782 453.335 438.78C453.335 438.778 453.335 438.776 453.335 438.775C453.335 438.773 453.335 438.771 453.335 438.769C453.335 438.767 453.335 438.766 453.335 438.764C453.335 438.762 453.335 438.76 453.335 438.759C453.335 438.757 453.335 438.755 453.335 438.753C453.335 438.751 453.335 438.75 453.335 438.748C453.335 438.746 453.335 438.744 453.335 438.742C453.335 438.741 453.335 438.739 453.335 438.737C453.335 438.735 453.335 438.733 453.335 438.732C453.335 438.73 453.335 438.728 453.335 438.726C453.335 438.724 453.335 438.723 453.335 438.721C453.335 438.719 453.335 438.717 453.335 438.715C453.335 438.713 453.335 438.712 453.335 438.71C453.335 438.708 453.335 438.706 453.335 438.704C453.335 438.702 453.335 438.701 453.335 438.699C453.335 438.697 453.335 438.695 453.335 438.693C453.335 438.691 453.335 438.69 453.335 438.688C453.335 438.686 453.335 438.684 453.335 438.682C453.335 438.68 453.335 438.678 453.335 438.677C453.335 438.675 453.335 438.673 453.335 438.671C453.335 438.669 453.335 438.667 453.335 438.665C453.335 438.663 453.335 438.662 453.335 438.66C453.335 438.658 453.335 438.656 453.335 438.654C453.335 438.652 453.335 438.65 453.335 438.648C453.335 438.647 453.335 438.645 453.335 438.643C453.335 438.641 453.335 438.639 453.335 438.637C453.335 438.635 453.335 438.633 453.335 438.631C453.335 438.629 453.335 438.628 453.335 438.626C453.335 438.624 453.335 438.622 453.335 438.62C453.335 438.618 453.335 438.616 453.335 438.614C453.335 438.612 453.335 438.61 453.335 438.608C453.335 438.606 453.335 438.605 453.335 438.603C453.335 438.601 453.335 438.599 453.335 438.597C453.335 438.595 453.335 438.593 453.335 438.591C453.335 438.589 453.335 438.587 453.335 438.585C453.335 438.583 453.335 438.581 453.335 438.579C453.335 438.577 453.335 438.575 453.335 438.573C453.335 438.571 453.335 438.57 453.335 438.568C453.335 438.566 453.335 438.564 453.335 438.562C453.335 438.56 453.335 438.558 453.335 438.556C453.335 438.554 453.335 438.552 453.335 438.55C453.335 438.548 453.335 438.546 453.335 438.544C453.335 438.542 453.335 438.54 453.335 438.538C453.335 438.536 453.335 438.534 453.335 438.532C453.335 438.53 453.335 438.528 453.335 438.526C453.335 438.524 453.335 438.522 453.335 438.52C453.335 438.518 453.335 438.516 453.335 438.514C453.335 438.512 453.335 438.51 453.335 438.508C453.335 438.506 453.335 438.504 453.335 438.502C453.335 438.5 453.335 438.498 453.335 438.496C453.335 438.494 453.335 438.492 453.335 438.49C453.335 438.488 453.335 438.486 453.335 438.483C453.335 438.481 453.335 438.479 453.335 438.477C453.335 438.475 453.335 438.473 453.335 438.471C453.335 438.469 453.335 438.467 453.335 438.465C453.335 438.463 453.335 438.461 453.335 438.459C453.335 438.457 453.335 438.455 453.335 438.453C453.335 438.451 453.335 438.449 453.335 438.447C453.335 438.444 453.335 438.442 453.335 438.44C453.335 438.438 453.335 438.436 453.335 438.434C453.335 438.432 453.335 438.43 453.335 438.428C453.335 438.426 453.335 438.424 453.335 438.422C453.335 438.419 453.335 438.417 453.335 438.415C453.335 438.413 453.335 438.411 453.335 438.409C453.335 438.407 453.335 438.405 453.335 438.403C453.335 438.401 453.335 438.398 453.335 438.396C453.335 438.394 453.335 438.392 453.335 438.39C453.335 438.388 453.335 438.386 453.335 438.384C453.335 438.381 453.335 438.379 453.335 438.377C453.335 438.375 453.335 438.373 453.335 438.371C453.335 438.369 453.335 438.366 453.335 438.364C453.335 438.362 453.335 438.36 453.335 438.358C453.335 438.356 453.335 438.354 453.335 438.351C453.335 438.349 453.335 438.347 453.335 438.345C453.335 438.343 453.335 438.341 453.335 438.339C453.335 438.336 453.335 438.334 453.335 438.332C453.335 438.33 453.335 438.328 453.335 438.326C453.335 438.323 453.335 438.321 453.335 438.319C453.335 438.317 453.335 438.315 453.335 438.312C453.335 438.31 453.335 438.308 453.335 438.306C453.335 438.304 453.335 438.302 453.335 438.299C453.335 438.297 453.335 438.295 453.335 438.293C453.335 438.291 453.335 438.288 453.335 438.286C453.335 438.284 453.335 438.282 453.335 438.28C453.335 438.277 453.335 438.275 453.335 438.273C453.335 438.271 453.335 438.268 453.335 438.266C453.335 438.264 453.335 438.262 453.335 438.26C453.335 438.257 453.335 438.255 453.335 438.253C453.335 438.251 453.335 438.248 453.335 438.246C453.335 438.244 453.335 438.242 453.335 438.239C453.335 438.237 453.335 438.235 453.335 438.233C453.335 438.23 453.335 438.228 453.335 438.226C453.335 438.224 453.335 438.221 453.335 438.219C453.335 438.217 453.335 438.215 453.335 438.212C453.335 438.21 453.335 438.208 453.335 438.206C453.335 438.203 453.335 438.201 453.335 438.199C453.335 438.196 453.335 438.194 453.335 438.192C453.335 438.19 453.335 438.187 453.335 438.185C453.335 438.183 453.335 438.18 453.335 438.178C453.335 438.176 453.335 438.174 453.335 438.171C453.335 438.169 453.335 438.167 453.335 438.164C453.335 438.162 453.335 438.16 453.335 438.158C453.335 438.155 453.335 438.153 453.335 438.151C453.335 438.148 453.335 438.146 453.335 438.144C453.335 438.141 453.335 438.139 453.335 438.137C453.335 438.134 453.335 438.132 453.335 438.13C453.335 438.127 453.335 438.125 453.335 438.123C453.335 438.12 453.335 438.118 453.335 438.116C453.335 438.113 453.335 438.111 453.335 438.109C453.335 438.106 453.335 438.104 453.335 438.102C453.335 438.099 453.335 438.097 453.335 438.095C453.335 438.092 453.335 438.09 453.335 438.087C453.335 438.085 453.335 438.083 453.335 438.08C453.335 438.078 453.335 438.076 453.335 438.073C453.335 438.071 453.335 438.069 453.335 438.066C453.335 438.064 453.335 438.061 453.335 438.059C453.335 438.057 453.335 438.054 453.335 438.052C453.335 438.049 453.335 438.047 453.335 438.045C453.335 438.042 453.335 438.04 453.335 438.037C453.335 438.035 453.335 438.033 453.335 438.03C453.335 438.028 453.335 438.025 453.335 438.023C453.335 438.021 453.335 438.018 453.335 438.016C453.335 438.013 453.335 438.011 453.335 438.009C453.335 438.006 453.335 438.004 453.335 438.001C453.335 437.999 453.335 437.996 453.335 437.994C453.335 437.992 453.335 437.989 453.335 437.987C453.335 437.984 453.335 437.982 453.335 437.979C453.335 437.977 453.335 437.975 453.335 437.972C453.335 437.97 453.335 437.967 453.335 437.965C453.335 437.962 453.335 437.96 453.335 437.957C453.335 437.955 453.335 437.952 453.335 437.95C453.335 437.948 453.335 437.945 453.335 437.943C453.335 437.94 453.335 437.938 453.335 437.935C453.335 437.933 453.335 437.93 453.335 437.928C453.335 437.925 453.335 437.923 453.335 437.92C453.335 437.918 453.335 437.915 453.335 437.913C453.335 437.91 453.335 437.908 453.335 437.905C453.335 437.903 453.335 437.9 453.335 437.898C453.335 437.895 453.335 437.893 453.335 437.89C453.335 437.888 453.335 437.885 453.335 437.883C453.335 437.88 453.335 437.878 453.335 437.875C453.335 437.873 453.335 437.87 453.335 437.868C453.335 437.865 453.335 437.863 453.335 437.86C453.335 437.858 453.335 437.855 453.335 437.853C453.335 437.85 453.335 437.847 453.335 437.845C453.335 437.842 453.335 437.84 453.335 437.837C453.335 437.835 453.335 437.832 453.335 437.83C453.335 437.827 453.335 437.825 453.335 437.822C453.335 437.819 453.335 437.817 453.335 437.814C453.335 437.812 453.335 437.809 453.335 437.807C453.335 437.804 453.335 437.802 453.335 437.799C453.335 437.796 453.335 437.794 453.335 437.791C453.335 437.789 453.335 437.786 453.335 437.783C453.335 437.781 453.335 437.778 453.335 437.776C453.335 437.773 453.335 437.771 453.335 437.768C453.335 437.765 453.335 437.763 453.335 437.76C453.335 437.758 453.335 437.755 453.335 437.752C453.335 437.75 453.335 437.747 453.335 437.745C453.335 437.742 453.335 437.739 453.335 437.737C453.335 437.734 453.335 437.732 453.335 437.729C453.335 437.726 453.335 437.724 453.335 437.721C453.335 437.718 453.335 437.716 453.335 437.713C453.335 437.711 453.335 437.708 453.335 437.705C453.335 437.703 453.335 437.7 453.335 437.697C453.335 437.695 453.335 437.692 453.335 437.689C453.335 437.687 453.335 437.684 453.335 437.681C453.335 437.679 453.335 437.676 453.335 437.673C453.335 437.671 453.335 437.668 453.335 437.665C453.335 437.663 453.335 437.66 453.335 437.658C453.335 437.655 453.335 437.652 453.335 437.65C453.335 437.647 453.335 437.644 453.335 437.641C453.335 437.639 453.335 437.636 453.335 437.633C453.335 437.631 453.335 437.628 453.335 437.625C453.335 437.623 453.335 437.62 453.335 437.617C453.335 437.615 453.335 437.612 453.335 437.609C453.335 437.607 453.335 437.604 453.335 437.601C453.335 437.598 453.335 437.596 453.335 437.593C453.335 437.59 453.335 437.588 453.335 437.585C453.335 437.582 453.335 437.579 453.335 437.577C453.335 437.574 453.335 437.571 453.335 437.569C453.335 437.566 453.335 437.563 453.335 437.56C453.335 437.558 453.335 437.555 453.335 437.552C453.335 437.549 453.335 437.547 453.335 437.544C453.335 437.541 453.335 437.538 453.335 437.536C453.335 437.533 453.335 437.53 453.335 437.527C453.335 437.525 453.335 437.522 453.335 437.519C453.335 437.516 453.335 437.514 453.335 437.511C453.335 437.508 453.335 437.505 453.335 437.503C453.335 437.5 453.335 437.497 453.335 437.494C453.335 437.491 453.335 437.489 453.335 437.486C453.335 437.483 453.335 437.48 453.335 437.478C453.335 437.475 453.335 437.472 453.335 437.469C453.335 437.466 453.335 437.464 453.335 437.461C453.335 437.458 453.335 437.455 453.335 437.452C453.335 437.45 453.335 437.447 453.335 437.444C453.335 437.441 453.335 437.438 453.335 437.436C453.335 437.433 453.335 437.43 453.335 437.427C453.335 437.424 453.335 437.421 453.335 437.419C453.335 437.416 453.335 437.413 453.335 437.41C453.335 437.407 453.335 437.405 453.335 437.402C453.335 437.399 453.335 437.396 453.335 437.393C453.335 437.39 453.335 437.388 453.335 437.385C453.335 437.382 453.335 437.379 453.335 437.376C453.335 437.373 453.335 437.37 453.335 437.368C453.335 437.365 453.335 437.362 453.335 437.359C453.335 437.356 453.335 437.353 453.335 437.35C453.335 437.348 453.335 437.345 453.335 437.342C453.335 437.339 453.335 437.336 453.335 437.333C453.335 437.33 453.335 437.327 453.335 437.325C453.335 437.322 453.335 437.319 453.335 437.316C453.335 437.313 453.335 437.31 453.335 437.307C453.335 437.304 453.335 437.301 453.335 437.299C453.335 437.296 453.335 437.293 453.335 437.29C453.335 437.287 453.335 437.284 453.335 437.281C453.335 437.278 453.335 437.275 453.335 437.272C453.335 437.269 453.335 437.267 453.335 437.264C453.335 437.261 453.335 437.258 453.335 437.255C453.335 437.252 453.335 437.249 453.335 437.246C453.335 437.243 453.335 437.24 453.335 437.237C453.335 437.234 453.335 437.231 453.335 437.228C453.335 437.225 453.335 437.223 453.335 437.22C453.335 437.217 453.335 437.214 453.335 437.211C453.335 437.208 453.335 437.205 453.335 437.202C453.335 437.199 453.335 437.196 453.335 437.193C453.335 437.19 453.335 437.187 453.335 437.184C453.335 437.181 453.335 437.178 453.335 437.175C453.335 437.172 453.335 437.169 453.335 437.166C453.335 437.163 453.335 437.16 453.335 437.157C453.335 437.154 453.335 437.151 453.335 437.148C453.335 437.145 453.335 437.142 453.335 437.139C453.335 437.136 453.335 437.133 453.335 437.13C453.335 437.127 453.335 437.124 453.335 437.121C453.335 437.118 453.335 437.115 453.335 437.112C453.335 437.109 453.335 437.106 453.335 437.103C453.335 437.1 453.335 437.097 453.335 437.094C453.335 437.091 453.335 437.088 453.335 437.085C453.335 437.082 453.335 437.079 453.335 437.076C453.335 437.073 453.335 437.07 453.335 437.067C453.335 437.064 453.335 437.061 453.335 437.058C453.335 437.055 453.335 437.052 453.335 437.049C453.335 437.046 453.335 437.043 453.335 437.04C453.335 437.037 453.335 437.033 453.335 437.03C453.335 437.027 453.335 437.024 453.335 437.021C453.335 437.018 453.335 437.015 453.335 437.012C453.335 437.009 453.335 437.006 453.335 437.003C453.335 437 453.335 436.997 453.335 436.994C453.335 436.99 453.335 436.987 453.335 436.984C453.335 436.981 453.335 436.978 453.335 436.975C453.335 436.972 453.335 436.969 453.335 436.966C453.335 436.963 453.335 436.96 453.335 436.956C453.335 436.953 453.335 436.95 453.335 436.947C453.335 436.944 453.335 436.941 453.335 436.938C453.335 436.935 453.335 436.932 453.335 436.928C453.335 436.925 453.335 436.922 453.335 436.919C453.335 436.916 453.335 436.913 453.335 436.91C453.335 436.907 453.335 436.903 453.335 436.9C453.335 436.897 453.335 436.894 453.335 436.891C453.335 436.888 453.335 436.885 453.335 436.881C453.335 436.878 453.335 436.875 453.335 436.872C453.335 436.869 453.335 436.866 453.335 436.863C453.335 436.859 453.335 436.856 453.335 436.853C453.335 436.85 453.335 436.847 453.335 436.844C453.335 436.84 453.335 436.837 453.335 436.834C453.335 436.831 453.335 436.828 453.335 436.825C453.335 436.821 453.335 436.818 453.335 436.815C453.335 436.812 453.335 436.809 453.335 436.805C453.335 436.802 453.335 436.799 453.335 436.796C453.335 436.793 453.335 436.79 453.335 436.786C453.335 436.783 453.335 436.78 453.335 436.777C453.335 436.773 453.335 436.77 453.335 436.767C453.335 436.764 453.335 436.761 453.335 436.757C453.335 436.754 453.335 436.751 453.335 436.748C453.335 436.745 453.335 436.741 453.335 436.738C453.335 436.735 453.335 436.732 453.335 436.728C453.335 436.725 453.335 436.722 453.335 436.719C453.335 436.715 453.335 436.712 453.335 436.709C453.335 436.706 453.335 436.703 453.335 436.699C453.335 436.696 453.335 436.693 453.335 436.69C453.335 436.686 453.335 436.683 453.335 436.68C453.335 436.676 453.335 436.673 453.335 436.67C453.335 436.667 453.335 436.663 453.335 436.66C453.335 436.657 453.335 436.654 453.335 436.65C453.335 436.647 453.335 436.644 453.335 436.641C453.335 436.637 453.335 436.634 453.335 436.631C453.335 436.627 453.335 436.624 453.335 436.621C453.335 436.618 453.335 436.614 453.335 436.611C453.335 436.608 453.335 436.604 453.335 436.601C453.335 436.598 453.335 436.594 453.335 436.591C453.335 436.588 453.335 436.585 453.335 436.581C453.335 436.578 453.335 436.575 453.335 436.571C453.335 436.568 453.335 436.565 453.335 436.561C453.335 436.558 453.335 436.555 453.335 436.551C453.335 436.548 453.335 436.545 453.335 436.541C453.335 436.538 453.335 436.535 453.335 436.531C453.335 436.528 453.335 436.525 453.335 436.521C453.335 436.518 453.335 436.515 453.335 436.511C453.335 436.508 453.335 436.505 453.335 436.501C453.335 436.498 453.335 436.494 453.335 436.491C453.335 436.488 453.335 436.484 453.335 436.481C453.335 436.478 453.335 436.474 453.335 436.471C453.335 436.468 453.335 436.464 453.335 436.461C453.335 436.457 453.335 436.454 453.335 436.451C453.335 436.447 453.335 436.444 453.335 436.441C453.335 436.437 453.335 436.434 453.335 436.43C453.335 436.427 453.335 436.424 453.335 436.42C453.335 436.417 453.335 436.413 453.335 436.41C453.335 436.407 453.335 436.403 453.335 436.4C453.335 436.396 453.335 436.393 453.335 436.389C453.335 436.386 453.335 436.383 453.335 436.379C453.335 436.376 453.335 436.372 453.335 436.369C453.335 436.366 453.335 436.362 453.335 436.359C453.335 436.355 453.335 436.352 453.335 436.348C453.335 436.345 453.335 436.342 453.335 436.338C453.335 436.335 453.335 436.331 453.335 436.328C453.335 436.324 453.335 436.321 453.335 436.317C453.335 436.314 453.335 436.311 453.335 436.307C453.335 436.304 453.335 436.3 453.335 436.297C453.335 436.293 453.335 436.29 453.335 436.286C453.335 436.283 453.335 436.279 453.335 436.276C453.335 436.272 453.335 436.269 453.335 436.265C453.335 436.262 453.335 436.258 453.335 436.255C453.335 436.251 453.335 436.248 453.335 436.245C453.335 436.241 453.335 436.238 453.335 436.234C453.335 436.231 453.335 436.227 453.335 436.224C453.335 436.22 453.335 436.217 453.335 436.213C453.335 436.21 453.335 436.206 453.335 436.203C453.335 436.199 453.335 436.195 453.335 436.192C453.335 436.188 453.335 436.185 453.335 436.181C453.335 436.178 453.335 436.174 453.335 436.171C453.335 436.167 453.335 436.164 453.335 436.16C453.335 436.157 453.335 436.153 453.335 436.15C453.335 436.146 453.335 436.143 453.335 436.139C453.335 436.135 453.335 436.132 453.335 436.128C453.335 436.125 453.335 436.121 453.335 436.118C453.335 436.114 453.335 436.111 453.335 436.107C453.335 436.104 453.335 436.1 453.335 436.096C453.335 436.093 453.335 436.089 453.335 436.086C453.335 436.082 453.335 436.079 453.335 436.075C453.335 436.071 453.335 436.068 453.335 436.064C453.335 436.061 453.335 436.057 453.335 436.053C453.335 436.05 453.335 436.046 453.335 436.043C453.335 436.039 453.335 436.036 453.335 436.032C453.335 436.028 453.335 436.025 453.335 436.021C453.335 436.018 453.335 436.014 453.335 436.01C453.335 436.007 453.335 436.003 453.335 436C453.335 435.996 453.335 435.992 453.335 435.989C453.335 435.985 453.335 435.981 453.335 435.978C453.335 435.974 453.335 435.971 453.335 435.967C453.335 435.963 453.335 435.96 453.335 435.956C453.335 435.952 453.335 435.949 453.335 435.945C453.335 435.941 453.335 435.938 453.335 435.934C453.335 435.931 453.335 435.927 453.335 435.923C453.335 435.92 453.335 435.916 453.335 435.912C453.335 435.909 453.335 435.905 453.335 435.901C453.335 435.898 453.335 435.894 453.335 435.89C453.335 435.887 453.335 435.883 453.335 435.879C453.335 435.876 453.335 435.872 453.335 435.868C453.335 435.865 453.335 435.861 453.335 435.857C453.335 435.854 453.335 435.85 453.335 435.846C453.335 435.842 453.335 435.839 453.335 435.835C453.335 435.831 453.335 435.828 453.335 435.824C453.335 435.82 453.335 435.817 453.335 435.813C453.335 435.809 453.335 435.806 453.335 435.802C453.335 435.798 453.335 435.794 453.335 435.791C453.335 435.787 453.335 435.783 453.335 435.78C453.335 435.776 453.335 435.772 453.335 435.768C453.335 435.765 453.335 435.761 453.335 435.757C453.335 435.753 453.335 435.75 453.335 435.746C453.335 435.742 453.335 435.738 453.335 435.735C453.335 435.731 453.335 435.727 453.335 435.724C453.335 435.72 453.335 435.716 453.335 435.712C453.335 435.708 453.335 435.705 453.335 435.701C453.335 435.697 453.335 435.693 453.335 435.69C453.335 435.686 453.335 435.682 453.335 435.678C453.335 435.675 453.335 435.671 453.335 435.667C453.335 435.663 453.335 435.66 453.335 435.656C453.335 435.652 453.335 435.648 453.335 435.644C453.335 435.641 453.335 435.637 453.335 435.633C453.335 435.629 453.335 435.625 453.335 435.622C453.335 435.618 453.335 435.614 453.335 435.61C453.335 435.606 453.335 435.603 453.335 435.599C453.335 435.595 453.335 435.591 453.335 435.587C453.335 435.584 453.335 435.58 453.335 435.576C453.335 435.572 453.335 435.568 453.335 435.565C453.335 435.561 453.335 435.557 453.335 435.553C453.335 435.549 453.335 435.545 453.335 435.542C453.335 435.538 453.335 435.534 453.335 435.53C453.335 435.526 453.335 435.522 453.335 435.519C453.335 435.515 453.335 435.511 453.335 435.507C453.335 435.503 453.335 435.499 453.335 435.495C453.335 435.492 453.335 435.488 453.335 435.484C453.335 435.48 453.335 435.476 453.335 435.472C453.335 435.468 453.335 435.465 453.335 435.461C453.335 435.457 453.335 435.453 453.335 435.449C453.335 435.445 453.335 435.441 453.335 435.437C453.335 435.434 453.335 435.43 453.335 435.426C453.335 435.422 453.335 435.418 453.335 435.414C453.335 435.41 453.335 435.406 453.335 435.402C453.335 435.399 453.335 435.395 453.335 435.391C453.335 435.387 453.335 435.383 453.335 435.379C453.335 435.375 453.335 435.371 453.335 435.367C453.335 435.363 453.335 435.359 453.335 435.356C453.335 435.352 453.335 435.348 453.335 435.344C453.335 435.34 453.335 435.336 453.335 435.332C453.335 435.328 453.335 435.324 453.335 435.32C453.335 435.316 453.335 435.312 453.335 435.308C453.335 435.304 453.335 435.3 453.335 435.297C453.335 435.293 453.335 435.289 453.335 435.285C453.335 435.281 453.335 435.277 453.335 435.273C453.335 435.269 453.335 435.265 453.335 435.261C453.335 435.257 453.335 435.253 453.335 435.249C453.335 435.245 453.335 435.241 453.335 435.237C453.335 435.233 453.335 435.229 453.335 435.225C453.335 435.221 453.335 435.217 453.335 435.213C453.335 435.209 453.335 435.205 453.335 435.201C453.335 435.197 453.335 435.193 453.335 435.189C453.335 435.185 453.335 435.181 453.335 435.177C453.335 435.173 453.335 435.169 453.335 435.165C453.335 435.161 453.335 435.157 453.335 435.153C453.335 435.149 453.335 435.145 453.335 435.141C453.335 435.137 453.335 435.133 453.335 435.129C453.335 435.125 453.335 435.121 453.335 435.117C453.335 435.113 453.335 435.109 453.335 435.105C453.335 435.101 453.335 435.097 453.335 435.093C453.335 435.089 453.335 435.085 453.335 435.081C453.335 435.077 453.335 435.073 453.335 435.069C453.335 435.065 453.335 435.061 453.335 435.057C453.335 435.052 453.335 435.048 453.335 435.044C453.335 435.04 453.335 435.036 453.335 435.032C453.335 435.028 453.335 435.024 453.335 435.02C453.335 435.016 453.335 435.012 453.335 435.008C453.335 435.004 453.335 435 453.335 434.996C453.335 434.991 453.335 434.987 453.335 434.983C453.335 434.979 453.335 434.975 453.335 434.971C453.335 434.967 453.335 434.963 453.335 434.959C453.335 434.955 453.335 434.951 453.335 434.946C453.335 434.942 453.335 434.938 453.335 434.934C453.335 434.93 453.335 434.926 453.335 434.922C453.335 434.918 453.335 434.914 453.335 434.909C453.335 434.905 453.335 434.901 453.335 434.897C453.335 434.893 453.335 434.889 453.335 434.885C453.335 434.881 453.335 434.876 453.335 434.872C453.335 434.868 453.335 434.864 453.335 434.86C453.335 434.856 453.335 434.852 453.335 434.848C453.335 434.843 453.335 434.839 453.335 434.835C453.335 434.831 453.335 434.827 453.335 434.823C453.335 434.818 453.335 434.814 453.335 434.81C453.335 434.806 453.335 434.802 453.335 434.798C453.335 434.793 453.335 434.789 453.335 434.785C453.335 434.781 453.335 434.777 453.335 434.773C453.335 434.768 453.335 434.764 453.335 434.76C453.335 434.756 453.335 434.752 453.335 434.748C453.335 434.743 453.335 434.739 453.335 434.735C453.335 434.731 453.335 434.727 453.335 434.722C453.335 434.718 453.335 434.714 453.335 434.71C453.335 434.706 453.335 434.701 453.335 434.697C453.335 434.693 453.335 434.689 453.335 434.685C453.335 434.68 453.335 434.676 453.335 434.672C453.335 434.668 453.335 434.663 453.335 434.659C453.335 434.655 453.335 434.651 453.335 434.646C453.335 434.642 453.335 434.638 453.335 434.634C453.335 434.63 453.335 434.625 453.335 434.621C453.335 434.617 453.335 434.613 453.335 434.608C453.335 434.604 453.335 434.6 453.335 434.596C453.335 434.591 453.335 434.587 453.335 434.583C453.335 434.579 453.335 434.574 453.335 434.57C453.335 434.566 453.335 434.562 453.335 434.557C453.335 434.553 453.335 434.549 453.335 434.544C453.335 434.54 453.335 434.536 453.335 434.532C453.335 434.527 453.335 434.523 453.335 434.519C453.335 434.514 453.335 434.51 453.335 434.506C453.335 434.502 453.335 434.497 453.335 434.493C453.335 434.489 453.335 434.484 453.335 434.48C453.335 434.476 453.335 434.472 453.335 434.467C453.335 434.463 453.335 434.459 453.335 434.454C453.335 434.45 453.335 434.446 453.335 434.441C453.335 434.437 453.335 434.433 453.335 434.428H450.908ZM450.908 438.955C450.908 439.414 450.736 440.597 450.328 442.639L452.708 443.115C453.104 441.135 453.335 439.702 453.335 438.955H450.908ZM451.518 441.664H319.954V444.091H451.518V441.664ZM318.754 443.054C320.999 458.363 326.946 469.944 336.705 477.627L338.207 475.72C329.056 468.516 323.336 457.567 321.155 442.701L318.754 443.054ZM336.705 477.627C346.412 485.269 358.363 488.955 372.477 488.75L372.442 486.323C358.794 486.521 347.41 482.965 338.207 475.72L336.705 477.627ZM372.48 488.75C384.288 488.547 394.629 486.306 403.469 481.989L402.403 479.807C393.943 483.939 383.965 486.124 372.438 486.323L372.48 488.75ZM403.459 481.993C412.655 477.604 419.378 469.578 423.686 458.089L421.413 457.237C417.273 468.279 410.92 475.743 402.413 479.803L403.459 481.993ZM422.389 458.866L449.547 462.487L449.868 460.081L422.71 456.46L422.389 458.866ZM448.549 460.924C445.772 469.85 441.815 477.452 436.695 483.754L438.579 485.284C443.92 478.711 448.011 470.824 450.866 461.645L448.549 460.924ZM436.681 483.772C431.743 490.093 425.923 495.22 419.219 499.164L420.449 501.256C427.425 497.153 433.474 491.82 438.594 485.266L436.681 483.772ZM419.242 499.151C412.506 502.915 405.065 505.794 396.915 507.782L397.49 510.14C405.836 508.105 413.483 505.15 420.426 501.27L419.242 499.151ZM396.936 507.777C388.983 509.566 380.624 510.463 371.856 510.463V512.89C380.79 512.89 389.329 511.977 397.469 510.145L396.936 507.777ZM372.459 379.201C365.657 379.201 358.868 380.542 352.099 383.208L352.988 385.467C359.496 382.903 365.984 381.629 372.459 381.629V379.201ZM352.129 383.197C345.311 385.676 339.321 389.603 334.167 394.963L335.917 396.645C340.821 391.545 346.499 387.827 352.958 385.478L352.129 383.197ZM334.184 394.946C329.015 400.115 324.907 406.705 321.839 414.681L324.105 415.552C327.072 407.837 331.011 401.552 335.9 396.662L334.184 394.946ZM321.83 414.706C318.942 422.751 317.93 432.183 318.744 442.969L321.165 442.786C320.369 432.248 321.369 423.173 324.114 415.526L321.83 414.706ZM321.117 443.226C322.309 439.254 323.583 436.134 324.926 433.833L322.829 432.61C321.355 435.137 320.014 438.455 318.792 442.529L321.117 443.226ZM324.887 433.895C326.42 431.596 328.108 429.926 329.933 428.831L328.684 426.749C326.486 428.068 324.553 430.019 322.867 432.548L324.887 433.895ZM329.89 428.855C331.973 427.719 334.252 426.957 336.735 426.575L336.366 424.176C333.619 424.599 331.07 425.447 328.728 426.724L329.89 428.855ZM336.722 426.577C339.469 426.185 342.629 425.986 346.207 425.986V423.559C342.543 423.559 339.265 423.762 336.379 424.174L336.722 426.577ZM346.207 425.986H424.059V423.559H346.207V425.986ZM425.26 424.601C423.018 408.908 417.178 397.396 407.58 390.302L406.137 392.254C415.047 398.839 420.673 409.657 422.857 424.944L425.26 424.601ZM407.604 390.32C398.302 383.085 386.564 379.405 372.477 379.201L372.442 381.629C386.115 381.827 397.31 385.389 406.114 392.236L407.604 390.32ZM5.16191 790.866H3.94819V792.08H5.16191V790.866ZM5.16191 579.64V578.427H3.94819V579.64H5.16191ZM35.6388 579.64L36.6116 578.915L36.2475 578.427H35.6388V579.64ZM151.813 735.344L150.84 736.07L150.845 736.076L150.849 736.081L151.813 735.344ZM159.055 746.811L160.13 746.247L159.055 746.811ZM164.185 759.182L163.022 759.531L163.437 760.913L164.728 760.268L164.185 759.182ZM164.788 758.881L165.331 759.966L166.303 759.48L165.927 758.461L164.788 758.881ZM160.262 579.64V578.427H159.048V579.64H160.262ZM189.834 579.64H191.047V578.427H189.834V579.64ZM189.834 790.866V792.08H191.047V790.866H189.834ZM159.357 790.866L158.389 791.599L158.753 792.08H159.357V790.866ZM42.8808 636.973L41.9098 637.701L41.913 637.706L42.8808 636.973ZM35.9405 625.808L34.8549 626.351L34.8601 626.361L34.8654 626.371L35.9405 625.808ZM30.509 613.135L31.6546 612.734L31.0165 610.911L29.6508 612.276L30.509 613.135ZM30.2073 613.437L29.349 612.578L28.8364 613.091L29.0447 613.785L30.2073 613.437ZM33.2248 626.714L32.0276 626.913L32.0324 626.942L32.0388 626.971L33.2248 626.714ZM34.7335 790.866V792.08H35.9473V790.866H34.7335ZM6.37564 790.866V579.64H3.94819V790.866H6.37564ZM5.16191 580.854H35.6388V578.427H5.16191V580.854ZM34.666 580.366L150.84 736.07L152.786 734.618L36.6116 578.915L34.666 580.366ZM150.849 736.081C153.418 739.441 155.796 743.204 157.98 747.374L160.13 746.247C157.889 741.968 155.438 738.087 152.777 734.607L150.849 736.081ZM157.98 747.374C160.162 751.539 161.84 755.591 163.022 759.531L165.347 758.834C164.115 754.727 162.374 750.531 160.13 746.247L157.98 747.374ZM164.728 760.268L165.331 759.966L164.246 757.795L163.642 758.097L164.728 760.268ZM165.927 758.461C164.55 754.723 163.461 750.473 162.666 745.706L160.272 746.105C161.087 750.993 162.21 755.394 163.649 759.3L165.927 758.461ZM162.666 745.706C161.87 740.93 161.476 736.572 161.476 732.628H159.048C159.048 736.731 159.458 741.224 160.272 746.105L162.666 745.706ZM161.476 732.628V579.64H159.048V732.628H161.476ZM160.262 580.854H189.834V578.427H160.262V580.854ZM188.62 579.64V790.866H191.047V579.64H188.62ZM189.834 789.652H159.357V792.08H189.834V789.652ZM160.325 790.134L43.8486 636.241L41.913 637.706L158.389 791.599L160.325 790.134ZM43.8518 636.245C41.4833 633.087 39.2037 629.422 37.0157 625.245L34.8654 626.371C37.1031 630.643 39.4503 634.422 41.9098 637.701L43.8518 636.245ZM37.0261 625.266C34.8327 620.879 33.0434 616.702 31.6546 612.734L29.3634 613.536C30.791 617.615 32.6227 621.887 34.8549 626.351L37.0261 625.266ZM29.6508 612.276L29.349 612.578L31.0655 614.295L31.3673 613.993L29.6508 612.276ZM29.0447 613.785C30.2349 617.752 31.23 622.127 32.0276 626.913L34.422 626.514C33.6102 621.644 32.5937 617.167 31.3698 613.088L29.0447 613.785ZM32.0388 626.971C33.0284 631.523 33.5198 635.862 33.5198 639.991H35.9473C35.9473 635.67 35.4329 631.157 34.4108 626.456L32.0388 626.971ZM33.5198 639.991V790.866H35.9473V639.991H33.5198ZM34.7335 789.652H5.16191V792.08H34.7335V789.652ZM256.785 788.15L256.415 789.306L256.428 789.311L256.442 789.315L256.785 788.15ZM230.231 773.666L229.437 774.584L229.443 774.59L229.449 774.595L230.231 773.666ZM212.126 749.526L211.022 750.032L211.027 750.041L211.031 750.051L212.126 749.526ZM212.126 681.331L211.031 680.806L211.027 680.815L211.022 680.825L212.126 681.331ZM230.231 657.19L229.449 656.262L229.443 656.267L229.437 656.272L230.231 657.19ZM256.785 643.008L257.133 644.171L257.141 644.168L257.148 644.166L256.785 643.008ZM320.756 643.008L320.386 644.164L320.756 643.008ZM347.31 657.492L346.528 658.421L346.536 658.427L346.543 658.433L347.31 657.492ZM365.415 681.331L364.312 681.836L364.316 681.846L364.321 681.855L365.415 681.331ZM365.415 749.526L364.321 749.002L364.316 749.011L364.312 749.021L365.415 749.526ZM347.31 773.666L346.528 772.738L347.31 773.666ZM320.756 788.15L321.105 789.313L321.115 789.31L321.126 789.306L320.756 788.15ZM268.553 666.545L268.169 665.393L268.158 665.397L268.553 666.545ZM251.353 676.503L250.551 675.591L250.542 675.599L250.533 675.608L251.353 676.503ZM239.585 693.099L240.684 693.614L240.687 693.608L240.69 693.601L239.585 693.099ZM239.283 738.663L238.166 739.137L238.171 739.15L239.283 738.663ZM267.648 764.312L267.253 765.46L267.274 765.467L267.296 765.474L267.648 764.312ZM309.289 764.312L309.651 765.471L309.662 765.467L309.673 765.464L309.289 764.312ZM326.489 754.656L327.288 755.569L327.291 755.567L326.489 754.656ZM338.258 738.362L337.153 737.859L337.149 737.867L337.146 737.875L338.258 738.362ZM338.258 693.099L337.14 693.573L337.149 693.594L337.159 693.614L338.258 693.099ZM326.489 676.804L325.687 677.715L325.698 677.725L325.709 677.734L326.489 676.804ZM309.289 666.846L308.863 667.983L308.879 667.989L308.895 667.994L309.289 666.846ZM273.079 622.489L271.956 622.03L271.272 623.703H273.079V622.489ZM290.581 579.64V578.427H289.766L289.457 579.181L290.581 579.64ZM324.075 579.64L325.1 580.29L326.281 578.427H324.075V579.64ZM296.918 622.489V623.703H297.585L297.943 623.139L296.918 622.489ZM288.77 791.463C277.818 791.463 267.272 789.97 257.127 786.986L256.442 789.315C266.817 792.366 277.594 793.89 288.77 793.89V791.463ZM257.155 786.994C247.238 783.821 238.529 779.068 231.012 772.738L229.449 774.595C237.221 781.14 246.214 786.042 256.415 789.306L257.155 786.994ZM231.025 772.748C223.718 766.429 217.781 758.521 213.22 749.002L211.031 750.051C215.724 759.844 221.857 768.029 229.437 774.584L231.025 772.748ZM213.229 749.021C208.891 739.555 206.701 728.369 206.701 715.428H204.273C204.273 728.639 206.509 740.185 211.022 750.032L213.229 749.021ZM206.701 715.428C206.701 702.488 208.891 691.301 213.229 681.836L211.022 680.825C206.509 690.672 204.273 702.217 204.273 715.428H206.701ZM213.22 681.855C217.781 672.336 223.718 664.427 231.025 658.108L229.437 656.272C221.857 662.828 215.724 671.013 211.031 680.806L213.22 681.855ZM231.012 658.119C238.524 651.794 247.226 647.143 257.133 644.171L256.436 641.846C246.227 644.908 237.226 649.712 229.449 656.262L231.012 658.119ZM257.148 644.166C267.287 640.985 277.826 639.394 288.77 639.394V636.966C277.587 636.966 266.802 638.593 256.421 641.85L257.148 644.166ZM288.77 639.394C299.919 639.394 310.455 640.986 320.386 644.164L321.126 641.852C310.94 638.593 300.153 636.966 288.77 636.966V639.394ZM320.386 644.164C330.302 647.337 339.012 652.091 346.528 658.421L348.092 656.564C340.32 650.019 331.326 645.116 321.126 641.852L320.386 644.164ZM346.543 658.433C354.033 664.543 359.957 672.336 364.312 681.836L366.519 680.825C362.022 671.013 355.876 662.914 348.077 656.552L346.543 658.433ZM364.321 681.855C368.854 691.315 371.142 702.495 371.142 715.428H373.569C373.569 702.21 371.23 690.658 366.51 680.806L364.321 681.855ZM371.142 715.428C371.142 728.362 368.854 739.542 364.321 749.002L366.51 750.051C371.23 740.199 373.569 728.646 373.569 715.428H371.142ZM364.312 749.021C359.956 758.524 354.027 766.423 346.528 772.738L348.092 774.595C355.882 768.035 362.023 759.841 366.519 750.032L364.312 749.021ZM346.528 772.738C339.012 779.068 330.302 783.821 320.386 786.994L321.126 789.306C331.326 786.042 340.32 781.14 348.092 774.595L346.528 772.738ZM320.407 786.988C310.47 789.969 299.926 791.463 288.77 791.463V793.89C300.145 793.89 310.925 792.367 321.105 789.313L320.407 786.988ZM288.77 662.012C281.797 662.012 274.929 663.14 268.169 665.393L268.937 667.696C275.454 665.524 282.064 664.439 288.77 664.439V662.012ZM268.158 665.397C261.574 667.66 255.702 671.059 250.551 675.591L252.155 677.414C257.063 673.094 262.658 669.855 268.948 667.693L268.158 665.397ZM250.533 675.608C245.572 680.156 241.557 685.826 238.48 692.597L240.69 693.601C243.647 687.094 247.479 681.701 252.173 677.397L250.533 675.608ZM238.486 692.584C235.38 699.21 233.845 706.834 233.845 715.428H236.272C236.272 707.124 237.755 699.863 240.684 693.614L238.486 692.584ZM233.845 715.428C233.845 724.407 235.273 732.319 238.166 739.137L240.4 738.189C237.66 731.731 236.272 724.153 236.272 715.428H233.845ZM238.171 739.15C241.052 745.735 244.976 751.217 249.95 755.569L251.549 753.743C246.868 749.647 243.147 744.466 240.395 738.177L238.171 739.15ZM249.95 755.569C254.904 759.904 260.676 763.199 267.253 765.46L268.042 763.164C261.745 760.999 256.251 757.857 251.549 753.743L249.95 755.569ZM267.296 765.474C274.056 767.522 281.217 768.543 288.77 768.543V766.116C281.438 766.116 274.516 765.125 268 763.151L267.296 765.474ZM288.77 768.543C296.126 768.543 303.089 767.521 309.651 765.471L308.927 763.154C302.616 765.126 295.899 766.116 288.77 766.116V768.543ZM309.673 765.464C316.451 763.204 322.329 759.909 327.288 755.569L325.69 753.743C320.994 757.852 315.405 760.994 308.906 763.161L309.673 765.464ZM327.291 755.567C332.46 751.019 336.486 745.44 339.37 738.848L337.146 737.875C334.397 744.158 330.577 749.442 325.687 753.745L327.291 755.567ZM339.362 738.864C342.464 732.041 343.998 724.22 343.998 715.428H341.57C341.57 723.937 340.086 731.405 337.153 737.859L339.362 738.864ZM343.998 715.428C343.998 706.834 342.463 699.21 339.357 692.584L337.159 693.614C340.088 699.863 341.57 707.124 341.57 715.428H343.998ZM339.375 692.625C336.491 685.828 332.46 680.234 327.27 675.875L325.709 677.734C330.577 681.823 334.391 687.093 337.14 693.573L339.375 692.625ZM327.291 675.893C322.141 671.361 316.269 667.962 309.684 665.699L308.895 667.994C315.185 670.156 320.779 673.396 325.687 677.715L327.291 675.893ZM309.716 665.71C303.135 663.242 296.15 662.012 288.77 662.012V664.439C295.875 664.439 302.569 665.623 308.863 667.983L309.716 665.71ZM274.203 622.948L291.704 580.099L289.457 579.181L271.956 622.03L274.203 622.948ZM290.581 580.854H324.075V578.427H290.581V580.854ZM323.05 578.991L295.892 621.839L297.943 623.139L325.1 580.29L323.05 578.991ZM296.918 621.275H273.079V623.703H296.918V621.275ZM412.729 742.284L413.931 742.119L413.759 740.867L412.515 741.09L412.729 742.284ZM426.308 763.709L425.742 764.783L425.753 764.789L425.765 764.794L426.308 763.709ZM490.882 763.105L490.283 762.05L490.882 763.105ZM493.296 731.723L492.888 732.866L492.901 732.87L493.296 731.723ZM472.174 727.197L472.002 728.398L472.016 728.4L472.03 728.402L472.174 727.197ZM444.413 723.877L444.268 725.083L444.28 725.084L444.292 725.085L444.413 723.877ZM416.652 718.144L417.01 716.985L416.652 718.144ZM395.227 706.376L394.401 707.265L394.409 707.273L394.417 707.28L395.227 706.376ZM390.701 666.243L389.632 665.668L389.628 665.675L389.624 665.683L390.701 666.243ZM401.262 653.268L400.499 652.324L401.262 653.268ZM415.445 645.12L415.88 646.253L415.891 646.249L415.902 646.244L415.445 645.12ZM431.437 640.292L431.208 639.1L431.437 640.292ZM446.525 638.482L446.575 639.695L446.601 639.693L446.626 639.691L446.525 638.482ZM478.209 639.689L478.015 640.887L478.032 640.89L478.05 640.892L478.209 639.689ZM499.935 645.724L499.445 646.834L499.457 646.839L499.935 645.724ZM518.04 658.096L517.165 658.937L517.173 658.945L517.182 658.954L518.04 658.096ZM527.696 678.615L527.871 679.816L529.069 679.641L528.898 678.443L527.696 678.615ZM500.84 682.538L499.648 682.765L499.865 683.906L501.016 683.739L500.84 682.538ZM487.865 665.639L487.375 666.75L487.394 666.758L487.414 666.766L487.865 665.639ZM426.609 666.243L426.079 665.151L426.067 665.157L426.609 666.243ZM424.799 696.116L424.355 697.246L424.379 697.255L424.403 697.264L424.799 696.116ZM446.223 700.944L446.052 702.146L446.223 700.944ZM473.984 704.264L473.864 705.471L473.984 704.264ZM501.745 709.695L502.104 708.536L501.745 709.695ZM522.868 721.162L522.06 722.067L522.068 722.074L522.076 722.081L522.868 721.162ZM522.566 770.045L521.656 769.242L521.655 769.244L522.566 770.045ZM501.444 785.133L501.894 786.26L501.901 786.257L501.909 786.254L501.444 785.133ZM477.002 791.168L476.884 789.96L476.869 789.961L476.855 789.963L477.002 791.168ZM446.223 792.073L446.118 793.282L446.223 792.073ZM431.437 789.961L431.164 791.144L431.186 791.149L431.208 791.153L431.437 789.961ZM415.445 785.133L415.009 786.266L415.016 786.268L415.023 786.271L415.445 785.133ZM400.659 776.986L399.917 777.946L399.927 777.954L399.937 777.962L400.659 776.986ZM389.494 764.614L390.523 763.971L389.494 764.614ZM384.062 747.414L383.849 746.219L382.753 746.415L382.854 747.524L384.062 747.414ZM411.526 742.449C412.976 753.009 417.68 760.539 425.742 764.783L426.873 762.635C419.647 758.831 415.298 752.078 413.931 742.119L411.526 742.449ZM425.765 764.794C433.647 768.735 444.422 770.656 457.991 770.656V768.228C444.604 768.228 434.257 766.326 426.85 762.623L425.765 764.794ZM457.991 770.656C472.558 770.656 483.77 768.538 491.481 764.161L490.283 762.05C483.109 766.122 472.393 768.228 457.991 768.228V770.656ZM491.481 764.161C499.369 759.684 503.261 752.197 503.261 741.982H500.833C500.833 751.482 497.282 758.077 490.283 762.05L491.481 764.161ZM503.261 741.982C503.261 739.303 502.443 736.956 500.783 735.009C499.141 733.084 496.741 731.627 493.692 730.576L492.901 732.87C495.686 733.831 497.661 735.09 498.936 736.584C500.193 738.058 500.833 739.834 500.833 741.982H503.261ZM493.705 730.58C487.959 728.528 480.822 727.004 472.317 725.991L472.03 728.402C480.424 729.401 487.369 730.895 492.888 732.866L493.705 730.58ZM472.345 725.995C463.877 724.785 454.606 723.677 444.533 722.67L444.292 725.085C454.336 726.09 463.573 727.194 472.002 728.398L472.345 725.995ZM444.557 722.672C434.561 721.473 425.38 719.575 417.01 716.985L416.293 719.304C424.821 721.943 434.147 723.868 444.268 725.083L444.557 722.672ZM417.01 716.985C408.707 714.415 401.725 710.572 396.037 705.472L394.417 707.28C400.397 712.641 407.698 716.643 416.293 719.304L417.01 716.985ZM396.053 705.486C390.717 700.532 387.992 693.64 387.992 684.65H385.564C385.564 694.167 388.472 701.759 394.401 707.265L396.053 705.486ZM387.992 684.65C387.992 677.55 389.274 671.618 391.778 666.803L389.624 665.683C386.897 670.926 385.564 677.265 385.564 684.65H387.992ZM391.77 666.818C394.517 661.716 397.938 657.521 402.026 654.211L400.499 652.324C396.138 655.854 392.518 660.309 389.632 665.668L391.77 666.818ZM402.026 654.211C406.149 650.874 410.765 648.221 415.88 646.253L415.009 643.988C409.664 646.043 404.825 648.822 400.499 652.324L402.026 654.211ZM415.902 646.244C421.268 644.059 426.522 642.474 431.667 641.484L431.208 639.1C425.892 640.123 420.485 641.756 414.987 643.996L415.902 646.244ZM431.667 641.484C436.844 640.489 441.813 639.893 446.575 639.695L446.474 637.269C441.581 637.473 436.492 638.084 431.208 639.1L431.667 641.484ZM446.626 639.691C451.438 639.29 455.323 639.092 458.293 639.092V636.665C455.228 636.665 451.268 636.869 446.424 637.272L446.626 639.691ZM458.293 639.092C464.046 639.092 470.618 639.688 478.015 640.887L478.403 638.491C470.913 637.276 464.208 636.665 458.293 636.665V639.092ZM478.05 640.892C485.584 641.883 492.714 643.865 499.445 646.834L500.425 644.613C493.476 641.548 486.122 639.506 478.367 638.485L478.05 640.892ZM499.457 646.839C506.357 649.797 512.255 653.83 517.165 658.937L518.915 657.254C513.767 651.901 507.595 647.686 500.413 644.608L499.457 646.839ZM517.182 658.954C522.199 663.971 525.319 670.556 526.495 678.786L528.898 678.443C527.659 669.776 524.342 662.681 518.898 657.237L517.182 658.954ZM527.521 677.414L500.665 681.337L501.016 683.739L527.871 679.816L527.521 677.414ZM502.032 682.31C500.358 673.519 495.798 667.505 488.316 664.513L487.414 666.766C494.013 669.406 498.104 674.658 499.648 682.765L502.032 682.31ZM488.355 664.529C481.284 661.41 471.025 659.899 457.69 659.899V662.327C470.909 662.327 480.766 663.834 487.375 666.75L488.355 664.529ZM457.69 659.899C443.944 659.899 433.366 661.612 426.079 665.151L427.14 667.335C433.935 664.034 444.076 662.327 457.69 662.327V659.899ZM426.067 665.157C418.711 668.835 415.136 675.771 415.136 685.555H417.564C417.564 676.429 420.829 670.49 427.152 667.329L426.067 665.157ZM415.136 685.555C415.136 688.224 415.921 690.583 417.514 692.575C419.093 694.548 421.406 696.088 424.355 697.246L425.243 694.987C422.559 693.932 420.648 692.605 419.41 691.058C418.186 689.529 417.564 687.714 417.564 685.555H415.136ZM424.403 697.264C430.331 699.308 437.553 700.932 446.052 702.146L446.395 699.743C437.995 698.543 430.934 696.948 425.194 694.969L424.403 697.264ZM446.052 702.146C454.52 703.356 463.791 704.464 473.864 705.471L474.105 703.056C464.061 702.051 454.824 700.947 446.395 699.743L446.052 702.146ZM473.864 705.471C483.852 706.47 493.025 708.267 501.387 710.855L502.104 708.536C493.568 705.893 484.233 704.069 474.105 703.056L473.864 705.471ZM501.387 710.855C509.697 713.427 516.577 717.172 522.06 722.067L523.676 720.256C517.893 715.093 510.691 711.194 502.104 708.536L501.387 710.855ZM522.076 722.081C527.588 726.833 530.405 733.607 530.405 742.586H532.833C532.833 733.057 529.816 725.549 523.66 720.242L522.076 722.081ZM530.405 742.586C530.405 753.836 527.449 762.677 521.656 769.242L523.476 770.848C529.753 763.734 532.833 754.27 532.833 742.586H530.405ZM521.655 769.244C515.945 775.742 509.057 780.662 500.979 784.012L501.909 786.254C510.326 782.764 517.52 777.626 523.478 770.847L521.655 769.244ZM500.993 784.006C493.048 787.184 485.012 789.167 476.884 789.96L477.12 792.376C485.487 791.56 493.746 789.519 501.894 786.26L500.993 784.006ZM476.855 789.963C468.626 790.967 462.144 791.463 457.388 791.463V793.89C462.288 793.89 468.881 793.381 477.149 792.373L476.855 789.963ZM457.388 791.463C454.622 791.463 450.939 791.265 446.328 790.864L446.118 793.282C450.761 793.686 454.521 793.89 457.388 793.89V791.463ZM446.328 790.864C441.749 790.466 436.862 789.768 431.667 788.769L431.208 791.153C436.474 792.165 441.444 792.876 446.118 793.282L446.328 790.864ZM431.71 788.778C426.534 787.584 421.253 785.99 415.866 783.995L415.023 786.271C420.499 788.299 425.88 789.924 431.164 791.144L431.71 788.778ZM415.88 784C410.754 782.029 405.922 779.366 401.38 776.01L399.937 777.962C404.65 781.445 409.674 784.214 415.009 786.266L415.88 784ZM401.401 776.025C397.091 772.695 393.466 768.679 390.523 763.971L388.465 765.257C391.557 770.205 395.375 774.437 399.917 777.946L401.401 776.025ZM390.523 763.971C387.622 759.329 385.86 753.786 385.271 747.304L382.854 747.524C383.471 754.32 385.331 760.242 388.465 765.257L390.523 763.971ZM384.276 748.609L412.943 743.479L412.515 741.09L383.849 746.219L384.276 748.609Z" fill="url(#paint1_linear_11634_77)"/>
</g>
</g>
<defs>
<linearGradient id="paint0_linear_11634_77" x1="-43.6247" y1="147.246" x2="883.511" y2="109.739" gradientUnits="userSpaceOnUse">
<stop stop-color="#D9D9D9"/>
<stop offset="1" stop-color="#D9D9D9" stop-opacity="0"/>
</linearGradient>
<linearGradient id="paint1_linear_11634_77" x1="268.806" y1="262.419" x2="268.806" y2="1465.59" gradientUnits="userSpaceOnUse">
<stop stop-color="white"/>
<stop offset="1" stop-color="#00E7F9"/>
</linearGradient>
</defs>
</svg>
