<svg width="51" height="51" viewBox="0 0 51 51" fill="none" xmlns="http://www.w3.org/2000/svg">
<g id="ic:baseline-tiktok">
<path id="Vector" d="M35.2748 12.3675C33.8222 10.7092 33.0217 8.57954 33.0223 6.375H26.4561V32.725C26.4055 34.1509 25.8034 35.5016 24.7768 36.4925C23.7502 37.4834 22.3792 38.0373 20.9523 38.0375C17.9348 38.0375 15.4273 35.5725 15.4273 32.5125C15.4273 28.8575 18.9548 26.1162 22.5886 27.2425V20.5275C15.2573 19.55 8.83984 25.245 8.83984 32.5125C8.83984 39.5887 14.7048 44.625 20.9311 44.625C27.6036 44.625 33.0223 39.2062 33.0223 32.5125V19.1463C35.685 21.0584 38.8817 22.0844 42.1598 22.0788V15.5125C42.1598 15.5125 38.1648 15.7038 35.2748 12.3675Z" fill="#DDDDDD"/>
</g>
</svg>
