<svg xmlns="http://www.w3.org/2000/svg" width="154" height="154" viewBox="0 0 154 154" fill="none"><path d="M12.227 17.546C13.2118 15.228 15.0573 13.3824 17.3753 12.3977C55.3458 -3.73379 98.2431 -3.73379 136.214 12.3977C138.532 13.3824 140.377 15.228 141.362 17.546C157.493 55.5164 157.493 98.4138 141.362 136.384C140.377 138.702 138.532 140.548 136.214 141.533C98.2431 157.664 55.3458 157.664 17.3753 141.533C15.0573 140.548 13.2118 138.702 12.227 136.384C-3.90444 98.4138 -3.90444 55.5164 12.227 17.546Z" fill="url(#paint0_radial_2550_2313)"/><path fill-rule="evenodd" clip-rule="evenodd" d="M41.4742 76.9649C41.4742 56.867 57.7668 40.5744 77.8646 40.5744C97.9624 40.5744 114.255 56.867 114.255 76.9649C114.255 97.0628 97.9624 113.355 77.8646 113.355C70.7055 113.355 64.0416 111.293 58.4191 107.73C57.3728 107.068 56.0906 106.89 54.9036 107.244L42.5773 110.923L47.2184 100.063C47.7669 98.78 47.6553 97.3098 46.9193 96.1239C43.4679 90.5621 41.4742 84.0029 41.4742 76.9649ZM77.8646 32.012C53.0378 32.012 32.9117 52.1381 32.9117 76.9649C32.9117 84.8343 34.9373 92.2417 38.4971 98.6824L31.1155 115.954C30.463 117.481 30.7522 119.248 31.8577 120.487C32.9631 121.726 34.6854 122.214 36.2766 121.739L55.5397 115.991C62.1201 119.762 69.7461 121.918 77.8646 121.918C102.691 121.918 122.818 101.792 122.818 76.9649C122.818 52.1381 102.691 32.012 77.8646 32.012ZM87.6793 86.3083L82.0529 90.2714C79.4178 88.7704 76.5044 86.6752 73.5821 83.7528C70.5441 80.7149 68.2918 77.5784 66.6311 74.7014L70.2067 71.6665C71.7411 70.3641 72.1611 68.1684 71.2158 66.3915L66.6599 57.829C66.0464 56.676 64.9402 55.8662 63.6558 55.6296C62.3714 55.393 61.0492 55.7557 60.0652 56.6145L58.7145 57.7933C55.4662 60.6283 53.545 65.287 55.1373 70.0041C56.788 74.8941 60.3108 82.5905 67.5276 89.8074C75.292 97.5718 83.1789 100.629 87.7911 101.817C91.5072 102.774 95.0238 101.491 97.5018 99.4723L100.034 97.4087C101.117 96.5263 101.702 95.1705 101.6 93.7769C101.497 92.3834 100.722 91.1273 99.5212 90.4119L92.336 86.1306C90.8847 85.2663 89.0609 85.3356 87.6793 86.3083Z" fill="white"/><circle cx="136.854" cy="17.9756" r="14.0364" fill="#F92145"/><path d="M138.66 25.5592V14.866H135.048V25.5592H138.66ZM136.854 13.8027C137.957 13.8027 138.72 13.1807 138.72 12.0974C138.72 11.014 137.957 10.3921 136.854 10.3921C135.751 10.3921 134.988 11.014 134.988 12.0974C134.988 13.1807 135.751 13.8027 136.854 13.8027Z" fill="#FDF7F7"/><defs><radialGradient id="paint0_radial_2550_2313" cx="0" cy="0" r="1" gradientUnits="userSpaceOnUse" gradientTransform="translate(67.9642 24.93) rotate(68.4047) scale(156.234)"><stop stop-color="#1AFB65"/><stop offset="1" stop-color="#0DD1C4"/></radialGradient></defs></svg>