<svg width="89" height="88" viewBox="0 0 89 88" fill="none" xmlns="http://www.w3.org/2000/svg">
<g id="WhatsappLogo">
<path id="Vector" d="M65.2134 49.7887L54.0884 44.2887C53.6505 44.073 53.1628 43.9753 52.6745 44.0054C52.1862 44.0356 51.7145 44.1926 51.3072 44.4606L46.2001 47.8294C43.8557 46.5551 41.9264 44.6474 40.6376 42.3294L44.0447 37.2797C44.3157 36.8769 44.4745 36.4106 44.505 35.9278C44.5355 35.4449 44.4367 34.9627 44.2185 34.5297L38.656 23.5297C38.4254 23.0693 38.069 22.682 37.6273 22.4116C37.1855 22.1413 36.6759 21.9987 36.1563 22C32.4682 22 28.9311 23.4487 26.3231 26.0273C23.7152 28.6059 22.2501 32.1033 22.2501 35.75C22.2593 43.77 25.4855 51.4589 31.2209 57.1299C36.9564 62.8009 44.7327 65.9909 52.8438 66C54.67 66 56.4783 65.6443 58.1655 64.9533C59.8527 64.2623 61.3857 63.2495 62.677 61.9727C63.9684 60.6959 64.9927 59.1801 65.6915 57.5119C66.3904 55.8437 66.7501 54.0557 66.7501 52.25C66.7505 51.7391 66.6069 51.2382 66.3355 50.8035C66.064 50.3688 65.6755 50.0174 65.2134 49.7887ZM52.8438 60.5C46.2074 60.4927 39.8449 57.8828 35.1522 53.2429C30.4595 48.6029 27.8199 42.3119 27.8126 35.75C27.812 33.8426 28.48 31.9939 29.7027 30.5186C30.9254 29.0433 32.6273 28.0325 34.5189 27.6581L38.51 35.5644L35.1134 40.5625C34.8595 40.939 34.7036 41.3715 34.6593 41.8218C34.615 42.2722 34.6838 42.7263 34.8596 43.1441C36.8495 47.8204 40.6119 51.5406 45.3414 53.5081C45.7652 53.6896 46.228 53.7639 46.6881 53.7243C47.1481 53.6847 47.591 53.5324 47.9766 53.2812L53.0559 49.9331L61.052 53.8794C60.6705 55.7518 59.6437 57.4354 58.1468 58.6428C56.6499 59.8502 54.7756 60.5066 52.8438 60.5ZM44.5001 8.25C38.2578 8.24865 32.1215 9.8453 26.6884 12.8845C21.2554 15.9238 16.7107 20.3021 13.4967 25.5932C10.2827 30.8844 8.5089 36.9082 8.34796 43.0783C8.18702 49.2484 9.64441 55.3546 12.5783 60.8025L8.63238 72.5072C8.30553 73.4763 8.2581 74.5162 8.4954 75.5104C8.7327 76.5047 9.24536 77.4139 9.97591 78.1363C10.7065 78.8586 11.626 79.3655 12.6316 79.6001C13.6371 79.8348 14.6889 79.7879 15.6689 79.4647L27.5066 75.5631C32.3556 78.1132 37.7285 79.5376 43.2173 79.728C48.7062 79.9184 54.1668 78.87 59.1846 76.6622C64.2025 74.4544 68.6457 71.1453 72.177 66.9862C75.7084 62.827 78.235 57.927 79.5651 52.6581C80.8953 47.3893 80.994 41.8901 79.8537 36.5779C78.7135 31.2657 76.3642 26.2802 72.9844 21.9997C69.6045 17.7193 65.2828 14.2564 60.3473 11.874C55.4118 9.49159 49.9923 8.25223 44.5001 8.25ZM44.5001 74.25C39.1218 74.2536 33.8378 72.8532 29.1823 70.1903C28.8415 69.9949 28.4625 69.8733 28.0705 69.8336C27.6786 69.7938 27.2825 69.837 26.9087 69.96L13.9063 74.25L18.2416 61.3938C18.3666 61.0243 18.4107 60.6329 18.3712 60.2453C18.3316 59.8577 18.2092 59.4829 18.0122 59.1456C14.6398 53.3806 13.2858 46.6764 14.1602 40.0729C15.0346 33.4694 18.0886 27.3357 22.8484 22.6235C27.6081 17.9113 33.8075 14.8839 40.485 14.011C47.1624 13.138 53.9446 14.4684 59.7793 17.7955C65.6141 21.1227 70.1753 26.2608 72.7553 32.4127C75.3354 38.5646 75.7901 45.3864 74.0489 51.8199C72.3077 58.2534 68.4679 63.9389 63.1252 67.9945C57.7826 72.05 51.2356 74.2489 44.5001 74.25Z" fill="url(#paint0_linear_203_512)"/>
</g>
<defs>
<linearGradient id="paint0_linear_203_512" x1="44.4887" y1="8.25" x2="44.4887" y2="79.75" gradientUnits="userSpaceOnUse">
<stop stop-color="#4B3CFF"/>
<stop offset="1" stop-color="#FA00FF"/>
</linearGradient>
</defs>
</svg>
