<svg width="62" height="62" viewBox="0 0 62 62" fill="none" xmlns="http://www.w3.org/2000/svg">
<g clip-path="url(#clip0_11618_746)">
<path d="M50.375 7.75H11.625C10.5973 7.75 9.61166 8.15826 8.88496 8.88496C8.15826 9.61166 7.75 10.5973 7.75 11.625V50.375C7.75 51.4027 8.15826 52.3883 8.88496 53.115C9.61166 53.8417 10.5973 54.25 11.625 54.25H50.375C51.4027 54.25 52.3883 53.8417 53.115 53.115C53.8417 52.3883 54.25 51.4027 54.25 50.375V11.625C54.25 10.5973 53.8417 9.61166 53.115 8.88496C52.3883 8.15826 51.4027 7.75 50.375 7.75ZM40.1208 37.3792C40.3008 37.5592 40.4436 37.7729 40.541 38.0081C40.6384 38.2433 40.6886 38.4954 40.6886 38.75C40.6886 39.0046 40.6384 39.2567 40.541 39.4919C40.4436 39.7271 40.3008 39.9408 40.1208 40.1208C39.9408 40.3008 39.7271 40.4436 39.4919 40.541C39.2567 40.6384 39.0046 40.6886 38.75 40.6886C38.4954 40.6886 38.2433 40.6384 38.0081 40.541C37.7729 40.4436 37.5592 40.3008 37.3792 40.1208L31 33.7391L24.6208 40.1208C24.4408 40.3008 24.2271 40.4436 23.9919 40.541C23.7567 40.6384 23.5046 40.6886 23.25 40.6886C22.9954 40.6886 22.7433 40.6384 22.5081 40.541C22.2729 40.4436 22.0592 40.3008 21.8792 40.1208C21.6992 39.9408 21.5564 39.7271 21.459 39.4919C21.3616 39.2567 21.3114 39.0046 21.3114 38.75C21.3114 38.4954 21.3616 38.2433 21.459 38.0081C21.5564 37.7729 21.6992 37.5592 21.8792 37.3792L28.2609 31L21.8792 24.6208C21.5157 24.2572 21.3114 23.7641 21.3114 23.25C21.3114 22.7359 21.5157 22.2428 21.8792 21.8792C22.2428 21.5157 22.7359 21.3114 23.25 21.3114C23.7641 21.3114 24.2572 21.5157 24.6208 21.8792L31 28.2609L37.3792 21.8792C37.5592 21.6992 37.7729 21.5564 38.0081 21.459C38.2433 21.3616 38.4954 21.3114 38.75 21.3114C39.0046 21.3114 39.2567 21.3616 39.4919 21.459C39.7271 21.5564 39.9408 21.6992 40.1208 21.8792C40.3008 22.0592 40.4436 22.2729 40.541 22.5081C40.6384 22.7433 40.6886 22.9954 40.6886 23.25C40.6886 23.5046 40.6384 23.7567 40.541 23.9919C40.4436 24.2271 40.3008 24.4408 40.1208 24.6208L33.7391 31L40.1208 37.3792Z" fill="white"/>
</g>
<defs>
<clipPath id="clip0_11618_746">
<rect width="62" height="62" fill="white"/>
</clipPath>
</defs>
</svg>
