<svg width="50" height="36" viewBox="0 0 50 36" fill="none" xmlns="http://www.w3.org/2000/svg">
<g id="youtube-icon.svg" clip-path="url(#clip0_104_478)">
<g id="Clip path group">
<mask id="mask0_104_478" style="mask-type:luminance" maskUnits="userSpaceOnUse" x="0" y="0" width="50" height="36">
<g id="a">
<path id="Vector" d="M50 0.789062H0V35.6376H50V0.789062Z" fill="white"/>
</g>
</mask>
<g mask="url(#mask0_104_478)">
<g id="Group">
<path id="Vector_2" d="M33.3326 17.6655C28.7609 15.2413 24.3834 13.0125 19.9087 10.6855V24.606C24.6174 22.0661 29.5805 19.7401 33.3521 17.6655H33.3326Z" fill="white"/>
<path id="Vector_3" d="M33.3326 17.6655C28.7609 15.2413 19.9087 10.6855 19.9087 10.6855L31.711 18.5568C31.711 18.5568 29.5611 19.7401 33.3326 17.6655Z" fill="#E8E0E0"/>
<path id="Vector_4" d="M20.7692 35.5031C11.2732 35.3296 8.02989 35.1736 6.03633 34.766C4.68755 34.4952 3.51547 33.894 2.65606 33.0219C1.99185 32.3619 1.46362 31.355 1.05381 29.9579C0.70228 28.7939 0.565367 27.8255 0.370174 25.46C0.0713706 20.1213 0.000138938 15.7565 0.370174 10.8795C0.675452 8.18631 0.823466 4.98914 2.85125 3.1239C3.80872 2.25094 4.92252 1.68917 6.17324 1.45693C8.12702 1.08884 16.4509 0.797852 25.0681 0.797852C33.6659 0.797852 42.0083 1.08884 43.9639 1.45693C45.5264 1.74791 46.9917 2.61995 47.8521 3.74442C49.7022 6.63224 49.7346 10.2232 49.9224 13.0321C50.0001 14.3704 50.0001 21.97 49.9224 23.3084C49.6301 27.7475 49.3951 29.3181 48.7309 30.9465C48.3202 31.9746 47.9696 32.5171 47.3627 33.1183C46.4109 34.0436 45.1976 34.659 43.8844 34.8826C35.6668 35.4958 28.6889 35.6289 20.7692 35.5031ZM33.3532 17.6658C28.7814 15.2416 24.4039 12.9935 19.9293 10.6666V24.588C24.6379 22.048 29.602 19.7211 33.3726 17.6465L33.3532 17.6658Z" fill="#CD201F"/>
</g>
</g>
</g>
</g>
<defs>
<clipPath id="clip0_104_478">
<rect width="50" height="36" fill="white"/>
</clipPath>
</defs>
</svg>
